STARTFONT 2.1
COMMENT
COMMENT Converted from OpenType font "NimbusSans-Regular.otf" by "otf2bdf 3.0".
COMMENT
FONT -FreeType-Nimbus Sans-Medium-R-Normal--100-720-100-100-P-518-ISO10646-1
SIZE 72 100 100
FONTBOUNDINGBOX 124 138 -21 -30
STARTPROPERTIES 19
FOUNDRY "FreeType"
FAMILY_NAME "Nimbus Sans"
WEIGHT_NAME "Medium"
SLANT "R"
SETWIDTH_NAME "Normal"
ADD_STYLE_NAME ""
PIXEL_SIZE 100
POINT_SIZE 720
RESOLUTION_X 100
RESOLUTION_Y 100
SPACING "P"
AVERAGE_WIDTH 518
CHARSET_REGISTRY "ISO10646"
CHARSET_ENCODING "1"
FONT_ASCENT 72
FONT_DESCENT 27
COPYRIGHT "(URW)++,Copyright 2014 by (URW)++ Design & Development"
_OTF_FONTFILE "NimbusSans-Regular.otf"
_OTF_PSNAME "NimbusSans-Regular"
ENDPROPERTIES
CHARS 854
STARTCHAR 0020
ENCODING 32
SWIDTH 280 0
DWIDTH 28 0
BBX 0 0 0 0
BITMAP
ENDCHAR
STARTCHAR 0021
ENCODING 33
SWIDTH 280 0
DWIDTH 28 0
BBX 9 73 12 0
BITMAP
FF80
FF80
FF80
FF80
FF80
FF80
FF80
FF80
FF80
FF80
FF80
FF80
FF80
FF80
FF80
FF80
FF80
FF80
FF80
FF80
FF80
FF80
FF80
FF80
FF80
FF80
FF80
FF80
FF80
FF80
FF80
FF80
FF80
FF80
7F80
7F80
7F80
7F00
7F00
7F00
7F00
7F00
7F00
7F00
3F00
3F00
3F00
3E00
3E00
3E00
3E00
3E00
3E00
3E00
1E00
1E00
0000
0000
0000
0000
0000
0000
0000
FF80
FF80
FF80
FF80
FF80
FF80
FF80
FF80
FF80
FF80
ENDCHAR
STARTCHAR 0022
ENCODING 34
SWIDTH 360 0
DWIDTH 36 0
BBX 26 25 5 46
BITMAP
FFC0FFC0
FFC0FFC0
FFC0FFC0
FFC0FFC0
FFC0FFC0
FFC0FFC0
FFC0FFC0
FFC0FFC0
FFC0FFC0
FFC0FFC0
FFC0FFC0
FF80FF80
FF80FF80
7F807F80
7F807F80
7F807F80
7F007F00
7F007F00
3F003F00
3F003F00
3F003F00
3E003E00
3E003E00
1E001E00
1E001E00
ENDCHAR
STARTCHAR 0023
ENCODING 35
SWIDTH 560 0
DWIDTH 56 0
BBX 53 72 1 -2
BITMAP
00000FE000FE00
00000FE000FE00
00001FE001FE00
00001FE001FE00
00001FE001FE00
00001FC001FE00
00001FC001FC00
00003FC001FC00
00003FC003FC00
00003FC003FC00
00003FC003FC00
00003F8003F800
00003F8003F800
00007F8007F800
00007F8007F800
00007F8007F800
00007F0007F800
00007F0007F000
0000FF0007F000
0000FF000FF000
0FFFFFFFFFFFF8
0FFFFFFFFFFFF8
0FFFFFFFFFFFF8
0FFFFFFFFFFFF8
0FFFFFFFFFFFF8
0FFFFFFFFFFFF8
0FFFFFFFFFFFF8
0001FC001FC000
0001FC001FC000
0003FC001FC000
0003FC003FC000
0003FC003FC000
0003FC003FC000
0003F8003F8000
0003F8003F8000
0007F8007F8000
0007F8007F8000
0007F8007F8000
0007F0007F0000
0007F0007F0000
000FF0007F0000
000FF000FF0000
000FF000FF0000
000FE000FF0000
FFFFFFFFFFFFC0
FFFFFFFFFFFFC0
FFFFFFFFFFFFC0
FFFFFFFFFFFFC0
FFFFFFFFFFFFC0
FFFFFFFFFFFFC0
FFFFFFFFFFFFC0
003FC003FC0000
003FC003FC0000
003FC003FC0000
003FC003FC0000
003F8003F80000
007F8003F80000
007F8007F80000
007F8007F80000
007F8007F80000
007F0007F80000
007F0007F00000
00FF000FF00000
00FF000FF00000
00FF000FF00000
00FE000FF00000
00FE000FE00000
01FE000FE00000
01FE001FE00000
01FE001FE00000
01FE001FE00000
01FC001FC00000
ENDCHAR
STARTCHAR 0024
ENCODING 36
SWIDTH 560 0
DWIDTH 56 0
BBX 49 90 4 -13
BITMAP
000007E0000000
000007E0000000
000007E0000000
000007E0000000
000007E0000000
00000FF0000000
0000FFFF800000
0007FFFFF00000
001FFFFFFC0000
007FFFFFFE0000
00FFFFFFFF0000
01FFFFFFFF8000
03FFFFEFFFC000
07FF87E0FFE000
0FFE07E07FF000
0FF807E03FF000
1FF007E01FF800
1FE007E00FF800
3FE007E007F800
3FC007E007FC00
3FC007E003FC00
3FC007E003FC00
7FC007E003FC00
7F8007E003FC00
7F8007E003FC00
7F8007E0000000
7FC007E0000000
7FC007E0000000
3FC007E0000000
3FE007E0000000
3FE007E0000000
3FF007E0000000
1FF807E0000000
1FFC07E0000000
1FFF07E0000000
0FFFC7E0000000
07FFFFE0000000
03FFFFF0000000
01FFFFFE000000
00FFFFFFC00000
007FFFFFF80000
001FFFFFFE0000
0007FFFFFF8000
0000FFFFFFC000
00001FFFFFE000
000007FFFFF000
000007EFFFF800
000007E1FFFC00
000007E07FFE00
000007E01FFE00
000007E007FE00
000007E003FF00
000007E001FF00
000007E001FF00
000007E000FF00
000007E000FF00
FF0007E000FF80
FF0007E000FF80
FF0007E000FF80
FF0007E000FF00
FF0007E000FF00
FF8007E000FF00
FF8007E000FF00
7F8007E000FF00
7F8007E001FF00
7FC007E001FE00
7FC007E003FE00
3FE007E007FC00
3FF007E00FFC00
1FF807E01FF800
1FFE07E03FF800
0FFF87E0FFF000
07FFFFFFFFE000
03FFFFFFFFC000
01FFFFFFFF8000
00FFFFFFFF0000
003FFFFFFC0000
000FFFFFF00000
0001FFFF000000
000007E0000000
000007E0000000
000007E0000000
000007E0000000
000007E0000000
000007E0000000
000007E0000000
000007E0000000
000007E0000000
000007E0000000
000007E0000000
ENDCHAR
STARTCHAR 0025
ENCODING 37
SWIDTH 890 0
DWIDTH 89 0
BBX 83 73 3 -2
BITMAP
000000000000007F000000
000000000000007E000000
0007F800000000FE000000
003FFF00000000FC000000
00FFFFC0000001FC000000
01FFFFE0000001F8000000
03FFFFF8000003F8000000
07FFFFFC000003F0000000
0FFFFFFC000007F0000000
1FFC0FFE000007E0000000
3FF003FF00000FE0000000
3FC001FF00001FC0000000
7F8000FF80001FC0000000
7F80007F80003F80000000
7F00003F80003F00000000
FF00003FC0007F00000000
FE00001FC0007E00000000
FE00001FC000FE00000000
FE00001FC000FC00000000
FE00001FC001FC00000000
FE00001FC001F800000000
FE00001FC003F800000000
FE00001FC003F000000000
FF00003FC007F000000000
7F00003F800FE000000000
7F80007F800FE000000000
7F80007F801FC000000000
3FC000FF001F8000000000
3FF003FF003F8000000000
1FFC0FFE003F0000000000
0FFFFFFC007F0000000000
0FFFFFF8007E0000000000
07FFFFF000FE0000000000
01FFFFE000FC0000000000
00FFFFC001FC0000000000
003FFF0001F80000000000
0007F80003F80000000000
0000000007F00000000000
0000000007F00000000000
000000000FE00003FC0000
000000000FC0001FFF8000
000000001FC0007FFFE000
000000001F8000FFFFF000
000000003F8003FFFFF800
000000003F0007FFFFFC00
000000007F000FFFFFFE00
000000007E000FFE07FF00
00000000FE001FF001FF80
00000000FC001FE0007F80
00000001FC003FC0003FC0
00000003F8003F80003FC0
00000003F8007F80001FC0
00000007F0007F00001FE0
00000007E0007F00000FE0
0000000FE0007F00000FE0
0000000FC0007F00000FE0
0000001FC0007F00000FE0
0000001F80007F00000FE0
0000003F80007F00000FE0
0000003F00007F00001FE0
0000007F00007F80001FC0
0000007E00003F80003FC0
000000FE00003FC0003FC0
000001FC00001FE0007F80
000001FC00001FF801FF80
000003F800000FFE07FF00
000003F000000FFFFFFE00
000007F0000007FFFFFC00
000007E0000003FFFFF800
00000FE0000001FFFFF000
00000FC00000007FFFE000
00001FC00000001FFF8000
00001F8000000003FC0000
ENDCHAR
STARTCHAR 0026
ENCODING 38
SWIDTH 670 0
DWIDTH 67 0
BBX 58 73 5 -2
BITMAP
000007FC00000000
00003FFF80000000
0000FFFFE0000000
0001FFFFF0000000
0007FFFFF8000000
000FFFFFFC000000
000FFFFFFE000000
001FFC0FFF000000
003FF003FF000000
003FE001FF800000
007FC000FF800000
007F80007F800000
007F80007F800000
00FF80003FC00000
00FF80003FC00000
00FF80003FC00000
00FF80003FC00000
00FF80003FC00000
007F80007FC00000
007F80007F800000
007FC000FF800000
007FC000FF800000
003FE001FF000000
003FF003FF000000
001FF80FFE000000
000FFC1FFC000000
000FFC3FF8000000
0007FEFFF0000000
0003FFFFE0000000
0001FFFFC0000000
0001FFFF00000000
0000FFFC00000000
0001FFF800000000
0003FFF000000000
000FFFF800000000
001FFFFC00000000
007FFFFE00000000
00FFF7FF000F8000
01FFE3FF000FF000
03FF81FF800FF000
07FF00FFC00FF000
0FFE00FFE00FF000
1FF8007FF00FF000
1FF0003FF00FF000
3FF0001FF81FE000
3FE0000FFC1FE000
7FC0000FFE1FE000
7FC00007FF3FE000
7F800003FFBFC000
FF800001FFFFC000
FF800000FFFF8000
FF800000FFFF8000
FF8000007FFF0000
FF8000003FFF0000
FF8000001FFE0000
FF8000000FFE0000
FF8000000FFE0000
7FC000000FFF0000
7FC000001FFF8000
7FE000003FFF8000
7FF000007FFFC000
3FF80000FFFFE000
3FFC0001FFFFF000
1FFE0007FFBFF800
1FFFC03FFF1FF800
0FFFFFFFFE0FFC00
07FFFFFFFC0FFE00
03FFFFFFF807FF00
01FFFFFFE003FF80
00FFFFFFC001FFC0
003FFFFF0001FFC0
000FFFFC00000000
0000FFC000000000
ENDCHAR
STARTCHAR 0027
ENCODING 39
SWIDTH 190 0
DWIDTH 19 0
BBX 9 25 5 46
BITMAP
FF80
FF80
FF80
FF80
FF80
FF80
FF80
FF80
FF80
FF80
FF80
FF80
FF80
FF80
FF80
7F00
7F00
7F00
7F00
7F00
3E00
3E00
3E00
3E00
3E00
ENDCHAR
STARTCHAR 0028
ENCODING 40
SWIDTH 330 0
DWIDTH 33 0
BBX 22 94 7 -21
BITMAP
0000FC
0000F8
0001F8
0003F0
0007E0
0007E0
000FC0
000FC0
001F80
001F80
003F80
007F00
007F00
00FE00
00FE00
00FC00
01FC00
01FC00
03F800
03F800
07F800
07F000
07F000
0FF000
0FF000
0FE000
1FE000
1FE000
1FE000
1FC000
3FC000
3FC000
3FC000
3FC000
3F8000
7F8000
7F8000
7F8000
7F8000
7F8000
7F8000
7F8000
7F8000
FF8000
FF0000
FF0000
FF0000
FF0000
FF0000
FF0000
FF8000
FF8000
7F8000
7F8000
7F8000
7F8000
7F8000
7F8000
7F8000
3F8000
3FC000
3FC000
3FC000
3FC000
1FC000
1FE000
1FE000
1FE000
0FE000
0FF000
0FF000
07F000
07F000
07F800
03F800
03F800
01FC00
01FC00
01FC00
00FE00
00FE00
007F00
007F00
003F80
003F80
001F80
000FC0
000FC0
0007E0
0007F0
0003F0
0001F8
0001F8
0000FC
ENDCHAR
STARTCHAR 0029
ENCODING 41
SWIDTH 330 0
DWIDTH 33 0
BBX 22 94 4 -21
BITMAP
FC0000
7C0000
7E0000
3F0000
3F8000
1F8000
1FC000
0FC000
0FE000
07E000
07F000
03F800
03F800
01FC00
01FC00
01FC00
00FE00
00FE00
007F00
007F00
007F80
003F80
003F80
003FC0
003FC0
001FC0
001FE0
001FE0
001FE0
000FE0
000FF0
000FF0
000FF0
000FF0
0007F0
0007F8
0007F8
0007F8
0007F8
0007F8
0007F8
0007F8
0007F8
0007FC
0007FC
0007FC
0007FC
0007FC
0007FC
0007FC
0007FC
0007F8
0007F8
0007F8
0007F8
0007F8
0007F8
0007F8
0007F8
0007F0
000FF0
000FF0
000FF0
000FF0
000FE0
001FE0
001FE0
001FE0
001FC0
003FC0
003FC0
003F80
003F80
007F80
007F00
007F00
00FE00
00FE00
00FC00
01FC00
01FC00
03F800
03F800
07F000
07E000
07E000
0FC000
0FC000
1F8000
1F8000
3F0000
7E0000
7C0000
FC0000
ENDCHAR
STARTCHAR 002A
ENCODING 42
SWIDTH 390 0
DWIDTH 39 0
BBX 30 29 4 44
BITMAP
000FC000
000FC000
000FC000
000FC000
000FC000
000FC000
000FC000
000FC000
380FC078
7F0FC1F8
7FEFCFF8
7FFFFFFC
FFFFFFFC
7FFFFFFC
0FFFFFC0
00FFFC00
001FF000
003FF000
007FF800
00FFFC00
00FEFE00
01FCFF00
03F87F00
07F03F80
0FF03FC0
0FE01FC0
03C00F80
01C00E00
00800400
ENDCHAR
STARTCHAR 002B
ENCODING 43
SWIDTH 580 0
DWIDTH 58 0
BBX 48 49 5 -1
BITMAP
000007F00000
000007F00000
000007F00000
000007F00000
000007F00000
000007F00000
000007F00000
000007F00000
000007F00000
000007F00000
000007F00000
000007F00000
000007F00000
000007F00000
000007F00000
000007F00000
000007F00000
000007F00000
000007F00000
000007F00000
000007F00000
FFFFFFFFFFFF
FFFFFFFFFFFF
FFFFFFFFFFFF
FFFFFFFFFFFF
FFFFFFFFFFFF
FFFFFFFFFFFF
FFFFFFFFFFFF
000007F00000
000007F00000
000007F00000
000007F00000
000007F00000
000007F00000
000007F00000
000007F00000
000007F00000
000007F00000
000007F00000
000007F00000
000007F00000
000007F00000
000007F00000
000007F00000
000007F00000
000007F00000
000007F00000
000007F00000
000007F00000
ENDCHAR
STARTCHAR 002C
ENCODING 44
SWIDTH 280 0
DWIDTH 28 0
BBX 10 25 9 -15
BITMAP
FFC0
FFC0
FFC0
FFC0
FFC0
FFC0
FFC0
FFC0
FFC0
FFC0
03C0
03C0
03C0
03C0
03C0
03C0
07C0
0780
0780
0F80
3F00
FE00
FC00
F800
C000
ENDCHAR
STARTCHAR 002D
ENCODING 45
SWIDTH 330 0
DWIDTH 33 0
BBX 23 7 5 24
BITMAP
FFFFFE
FFFFFE
FFFFFE
FFFFFE
FFFFFE
FFFFFE
FFFFFE
ENDCHAR
STARTCHAR 002E
ENCODING 46
SWIDTH 280 0
DWIDTH 28 0
BBX 10 10 9 0
BITMAP
FFC0
FFC0
FFC0
FFC0
FFC0
FFC0
FFC0
FFC0
FFC0
FFC0
ENDCHAR
STARTCHAR 002F
ENCODING 47
SWIDTH 280 0
DWIDTH 28 0
BBX 29 75 -1 -2
BITMAP
000000F8
000001F8
000001F8
000001F0
000003F0
000003F0
000003E0
000003E0
000007E0
000007C0
000007C0
00000FC0
00000F80
00000F80
00001F80
00001F00
00001F00
00003F00
00003F00
00003E00
00007E00
00007E00
00007C00
0000FC00
0000FC00
0000F800
0000F800
0001F800
0001F000
0001F000
0003F000
0003E000
0003E000
0007E000
0007C000
0007C000
000FC000
000FC000
000F8000
001F8000
001F8000
001F0000
003F0000
003F0000
003E0000
003E0000
007E0000
007C0000
007C0000
00FC0000
00F80000
00F80000
01F80000
01F00000
01F00000
03F00000
03F00000
03E00000
07E00000
07E00000
07C00000
0FC00000
0FC00000
0F800000
0F800000
1F800000
1F000000
1F000000
3F000000
3E000000
3E000000
7E000000
7C000000
7C000000
FC000000
ENDCHAR
STARTCHAR 0030
ENCODING 48
SWIDTH 560 0
DWIDTH 56 0
BBX 47 74 4 -2
BITMAP
00001FF00000
0000FFFF0000
0003FFFFC000
000FFFFFE000
001FFFFFF800
007FFFFFFC00
00FFFFFFFE00
00FFFFFFFF00
01FFE01FFF00
03FF8003FF80
03FF0001FFC0
07FE0000FFC0
07FC00007FE0
0FFC00007FE0
0FF800003FE0
1FF800003FF0
1FF000001FF0
1FF000001FF0
3FF000000FF8
3FE000000FF8
3FE000000FF8
3FE000000FF8
3FE0000007FC
7FC0000007FC
7FC0000007FC
7FC0000007FC
7FC0000007FC
7FC0000007FC
7FC0000007FC
7FC0000007FC
7FC0000003FE
FF80000003FE
FF80000003FE
FF80000003FE
FF80000003FE
FF80000003FE
FF80000003FE
FF80000003FE
FF80000003FE
FF80000003FE
FF80000003FE
FF80000003FE
FF80000003FE
7FC0000003FE
7FC0000007FC
7FC0000007FC
7FC0000007FC
7FC0000007FC
7FC0000007FC
7FC0000007FC
7FC0000007FC
7FE0000007FC
3FE000000FF8
3FE000000FF8
3FE000000FF8
3FE000000FF8
1FF000001FF0
1FF000001FF0
1FF800001FF0
0FF800003FE0
0FFC00003FE0
07FC00007FC0
07FE0000FFC0
03FF0001FF80
03FF8003FF80
01FFC007FF00
00FFFC7FFE00
00FFFFFFFE00
007FFFFFFC00
003FFFFFF800
000FFFFFE000
0007FFFFC000
0001FFFF0000
00001FF00000
ENDCHAR
STARTCHAR 0031
ENCODING 49
SWIDTH 560 0
DWIDTH 56 0
BBX 25 72 10 0
BITMAP
00001F80
00003F80
00003F80
00003F80
00007F80
00007F80
00007F80
0000FF80
0001FF80
0001FF80
0007FF80
000FFF80
007FFF80
0FFFFF80
FFFFFF80
FFFFFF80
FFFFFF80
FFFFFF80
FFFFFF80
FFFFFF80
0000FF80
0000FF80
0000FF80
0000FF80
0000FF80
0000FF80
0000FF80
0000FF80
0000FF80
0000FF80
0000FF80
0000FF80
0000FF80
0000FF80
0000FF80
0000FF80
0000FF80
0000FF80
0000FF80
0000FF80
0000FF80
0000FF80
0000FF80
0000FF80
0000FF80
0000FF80
0000FF80
0000FF80
0000FF80
0000FF80
0000FF80
0000FF80
0000FF80
0000FF80
0000FF80
0000FF80
0000FF80
0000FF80
0000FF80
0000FF80
0000FF80
0000FF80
0000FF80
0000FF80
0000FF80
0000FF80
0000FF80
0000FF80
0000FF80
0000FF80
0000FF80
0000FF80
ENDCHAR
STARTCHAR 0032
ENCODING 50
SWIDTH 560 0
DWIDTH 56 0
BBX 48 72 3 0
BITMAP
00000FFE0000
0000FFFFE000
0007FFFFF800
000FFFFFFE00
003FFFFFFF00
007FFFFFFF80
00FFFFFFFFC0
01FFFFFFFFE0
03FFF003FFF0
03FFC000FFF8
07FF80003FF8
07FE00001FFC
0FFC00000FFC
0FFC000007FE
1FF8000007FE
1FF8000003FE
1FF0000003FF
1FF0000001FF
1FF0000001FF
3FE0000001FF
3FE0000001FF
3FE0000001FF
3FE0000001FF
3FE0000001FF
3FE0000001FF
0000000003FF
0000000003FE
0000000003FE
0000000007FE
0000000007FC
000000000FFC
000000001FF8
000000003FF8
000000007FF0
00000001FFE0
00000003FFC0
0000000FFFC0
0000003FFF80
0000007FFE00
000001FFFC00
000007FFF800
00001FFFE000
00003FFFC000
0000FFFF0000
0001FFFC0000
0007FFF00000
000FFFC00000
001FFF800000
003FFE000000
007FF8000000
00FFF0000000
01FFC0000000
03FF80000000
07FF00000000
07FE00000000
0FFC00000000
0FF800000000
1FF000000000
1FF000000000
3FE000000000
3FE000000000
3FE000000000
3FC000000000
7FFFFFFFFFFF
7FFFFFFFFFFF
7FFFFFFFFFFF
7FFFFFFFFFFF
7FFFFFFFFFFF
7FFFFFFFFFFF
7FFFFFFFFFFF
7FFFFFFFFFFF
FFFFFFFFFFFF
ENDCHAR
STARTCHAR 0033
ENCODING 51
SWIDTH 560 0
DWIDTH 56 0
BBX 48 74 3 -2
BITMAP
00003FFC0000
0003FFFF8000
000FFFFFF000
003FFFFFFC00
007FFFFFFE00
00FFFFFFFF00
01FFFFFFFF80
03FFFFFFFFC0
03FFE007FFE0
07FF8001FFE0
0FFE00007FF0
0FFC00003FF0
0FF800003FF0
1FF000001FF8
1FF000001FF8
1FF000000FF8
3FE000000FF8
3FE000000FF8
3FE000000FF8
3FE000000FFC
3FE000000FFC
3FE000000FF8
3FE000000FF8
000000000FF8
000000000FF8
000000000FF8
000000001FF0
000000003FF0
000000007FE0
00000000FFE0
00000007FFC0
00001FFFFF80
00001FFFFF00
00001FFFFC00
00001FFFF000
00001FFFFC00
00001FFFFF00
00001FFFFF80
00001FFFFFE0
00000003FFF0
000000007FF8
000000003FF8
000000001FFC
000000000FFC
0000000007FE
0000000007FE
0000000003FE
0000000003FE
0000000003FE
0000000003FF
0000000001FF
FF80000001FF
FF80000001FF
FF80000001FF
7F80000003FE
7FC0000003FE
7FC0000003FE
7FC0000003FE
7FE0000007FE
3FE0000007FC
3FF000000FFC
3FF000000FFC
1FF800001FF8
1FFC00007FF8
0FFF0000FFF0
0FFFE007FFE0
07FFFFFFFFC0
03FFFFFFFF80
01FFFFFFFF00
00FFFFFFFE00
003FFFFFFC00
001FFFFFF000
0003FFFF8000
00003FF80000
ENDCHAR
STARTCHAR 0034
ENCODING 52
SWIDTH 560 0
DWIDTH 56 0
BBX 49 72 3 0
BITMAP
00000000FE0000
00000001FE0000
00000003FE0000
00000003FE0000
00000007FE0000
0000000FFE0000
0000001FFE0000
0000001FFE0000
0000003FFE0000
0000007FFE0000
0000007FFE0000
000000FFFE0000
000001FFFE0000
000001FFFE0000
000003FFFE0000
000007FBFE0000
00000FFBFE0000
00000FF3FE0000
00001FE3FE0000
00003FE3FE0000
00003FC3FE0000
00007F83FE0000
0000FF83FE0000
0001FF03FE0000
0001FE03FE0000
0003FC03FE0000
0007FC03FE0000
0007F803FE0000
000FF003FE0000
001FF003FE0000
003FE003FE0000
003FC003FE0000
007FC003FE0000
00FF8003FE0000
00FF0003FE0000
01FE0003FE0000
03FE0003FE0000
03FC0003FE0000
07F80003FE0000
0FF80003FE0000
1FF00003FE0000
1FE00003FE0000
3FE00003FE0000
7FC00003FE0000
7F800003FE0000
FF800003FE0000
FF000003FE0000
FFFFFFFFFFFF80
FFFFFFFFFFFF80
FFFFFFFFFFFF80
FFFFFFFFFFFF80
FFFFFFFFFFFF80
FFFFFFFFFFFF80
FFFFFFFFFFFF80
FFFFFFFFFFFF80
00000003FE0000
00000003FE0000
00000003FE0000
00000003FE0000
00000003FE0000
00000003FE0000
00000003FE0000
00000003FE0000
00000003FE0000
00000003FE0000
00000003FE0000
00000003FE0000
00000003FE0000
00000003FE0000
00000003FE0000
00000003FE0000
00000003FE0000
ENDCHAR
STARTCHAR 0035
ENCODING 53
SWIDTH 560 0
DWIDTH 56 0
BBX 47 73 4 -2
BITMAP
01FFFFFFFFF0
01FFFFFFFFF0
01FFFFFFFFF0
01FFFFFFFFF0
03FFFFFFFFF0
03FFFFFFFFF0
03FFFFFFFFF0
03FFFFFFFFF0
03FFFFFFFFF0
03FC00000000
03FC00000000
07FC00000000
07FC00000000
07F800000000
07F800000000
07F800000000
07F800000000
07F800000000
0FF800000000
0FF800000000
0FF000000000
0FF000000000
0FF000000000
0FF000000000
0FF007F00000
1FF07FFF8000
1FF1FFFFE000
1FE7FFFFF800
1FFFFFFFFC00
1FFFFFFFFF00
1FFFFFFFFF80
1FFFFFFFFFC0
1FFFC01FFFE0
3FFF0003FFE0
3FFC0000FFF0
3FF800007FF8
3FF000003FF8
3FE000001FF8
3FC000000FFC
000000000FFC
0000000007FC
0000000007FE
0000000007FE
0000000003FE
0000000003FE
0000000003FE
0000000003FE
0000000003FE
0000000003FE
0000000003FE
0000000003FE
0000000003FE
0000000003FE
FF00000003FE
FF80000003FE
FF80000007FC
FF80000007FC
FFC0000007FC
7FC000000FF8
7FE000001FF8
7FF000001FF0
3FF800003FF0
3FFC0000FFE0
1FFE0001FFE0
0FFFC00FFFC0
07FFFFFFFF80
07FFFFFFFF00
01FFFFFFFE00
00FFFFFFFC00
007FFFFFF000
001FFFFFC000
0003FFFF0000
00003FF00000
ENDCHAR
STARTCHAR 0036
ENCODING 54
SWIDTH 560 0
DWIDTH 56 0
BBX 47 74 4 -2
BITMAP
000007FE0000
00003FFFC000
0001FFFFF000
0003FFFFF800
000FFFFFFE00
001FFFFFFF00
003FFFFFFF80
007FFFFFFFC0
00FFF807FFC0
01FFE001FFE0
01FF80007FE0
03FF00003FF0
07FE00001FF0
07FC00001FF8
0FFC00000FF8
0FF800000FF8
0FF800000FF8
1FF0000007FC
1FF0000007FC
1FE000000000
3FE000000000
3FE000000000
3FE000000000
3FC000000000
7FC000000000
7FC000000000
7FC000000000
7FC003F80000
7FC03FFFC000
7FC0FFFFF000
7FC3FFFFFC00
7F87FFFFFE00
7F8FFFFFFF00
FF9FFFFFFF80
FFBFFFFFFFC0
FFFFF00FFFE0
FFFFC001FFF0
FFFF00007FF0
FFFE00003FF8
FFFC00001FF8
FFF800000FFC
FFF000000FFC
FFF0000007FC
FFE0000007FE
7FE0000007FE
7FC0000003FE
7FC0000003FE
7FC0000003FE
7FC0000003FE
7FC0000003FE
7FC0000003FE
7FC0000003FE
7FC0000003FE
3FC0000003FE
3FC0000003FE
3FE0000003FE
3FE0000007FE
1FE0000007FC
1FF0000007FC
1FF000000FFC
0FF800001FF8
0FFC00001FF8
07FE00003FF0
07FF0000FFF0
03FFC001FFE0
01FFF007FFC0
01FFFFFFFF80
00FFFFFFFF00
007FFFFFFE00
003FFFFFFC00
000FFFFFF800
0007FFFFE000
0001FFFF8000
00001FF80000
ENDCHAR
STARTCHAR 0037
ENCODING 55
SWIDTH 560 0
DWIDTH 56 0
BBX 47 71 5 0
BITMAP
FFFFFFFFFFFE
FFFFFFFFFFFE
FFFFFFFFFFFE
FFFFFFFFFFFE
FFFFFFFFFFFE
FFFFFFFFFFFE
FFFFFFFFFFFE
FFFFFFFFFFFE
FFFFFFFFFFFC
0000000007F8
0000000007F8
000000000FF0
000000001FE0
000000001FE0
000000003FC0
000000007F80
000000007F80
00000000FF00
00000001FE00
00000001FE00
00000003FC00
00000007F800
00000007F800
0000000FF000
0000000FE000
0000001FE000
0000003FC000
0000003FC000
0000007F8000
0000007F8000
000000FF0000
000001FF0000
000001FE0000
000003FE0000
000003FC0000
000007FC0000
000007F80000
00000FF80000
00000FF00000
00001FF00000
00001FE00000
00003FE00000
00003FC00000
00003FC00000
00007FC00000
00007F800000
0000FF800000
0000FF000000
0000FF000000
0001FF000000
0001FE000000
0003FE000000
0003FE000000
0003FC000000
0007FC000000
0007FC000000
0007FC000000
000FF8000000
000FF8000000
000FF8000000
000FF0000000
001FF0000000
001FF0000000
001FF0000000
003FF0000000
003FE0000000
003FE0000000
003FE0000000
007FE0000000
007FC0000000
007FC0000000
ENDCHAR
STARTCHAR 0038
ENCODING 56
SWIDTH 560 0
DWIDTH 56 0
BBX 47 74 4 -2
BITMAP
00003FF80000
0001FFFF0000
000FFFFFE000
001FFFFFF800
007FFFFFFC00
00FFFFFFFE00
01FFFFFFFF00
03FFFFFFFF80
07FFE00FFFC0
07FF0003FFC0
0FFE0000FFE0
0FFC00007FE0
1FF800003FF0
1FF800003FF0
1FF000001FF0
1FF000001FF8
3FE000000FF8
3FE000000FF8
3FE000000FF8
3FE000000FF8
3FE000000FF8
3FE000000FF8
3FF000001FF8
1FF000001FF0
1FF000001FF0
1FF800003FF0
0FFC00007FE0
0FFE0000FFE0
07FF0001FFC0
03FFC007FF80
01FFFC7FFF00
00FFFFFFFE00
003FFFFFF800
001FFFFFF000
001FFFFFF000
007FFFFFFC00
00FFFFFFFE00
03FFFFFFFF80
07FFE00FFFC0
0FFF0001FFE0
0FFC0000FFF0
1FF800003FF0
3FF000001FF8
3FE000000FFC
7FE000000FFC
7FC0000007FC
FFC0000007FE
FF80000003FE
FF80000003FE
FF80000003FE
FF80000003FE
FF80000003FE
FF80000003FE
FF80000003FE
FF80000003FE
FF80000003FE
FF80000003FE
FFC0000007FE
7FC0000007FC
7FE0000007FC
7FE000000FFC
3FF000001FF8
3FF800003FF8
1FFC00007FF0
1FFF0001FFF0
0FFFE007FFE0
07FFFFFFFFC0
03FFFFFFFF80
01FFFFFFFF00
00FFFFFFFE00
003FFFFFF800
000FFFFFE000
0003FFFF8000
00003FF80000
ENDCHAR
STARTCHAR 0039
ENCODING 57
SWIDTH 560 0
DWIDTH 56 0
BBX 47 74 4 -2
BITMAP
00003FF00000
0001FFFF0000
000FFFFFC000
001FFFFFF000
007FFFFFF800
00FFFFFFFC00
01FFFFFFFE00
03FFFFFFFF00
07FFC01FFF80
0FFF0003FF80
0FFE0001FFC0
1FF80000FFC0
3FF000007FE0
3FF000003FE0
3FE000001FF0
7FE000001FF0
7FC000000FF8
7FC000000FF8
FF80000007F8
FF80000007F8
FF80000007FC
FF80000007FC
FF80000007FC
FF80000007FC
FF80000007FC
FF80000007FC
FF80000007FE
FF80000007FE
FF80000007FE
FFC000000FFE
7FC000000FFE
7FC000000FFE
7FE000001FFE
3FF000003FFE
3FF000003FFE
3FF800007FFE
1FFC0001FFFE
0FFF0003FFFE
0FFFE01FFFFE
07FFFFFFFBFE
03FFFFFFF3FE
01FFFFFFE3FE
00FFFFFFC3FE
003FFFFF83FE
001FFFFE03FC
0003FFF803FC
00003F8007FC
0000000007FC
0000000007FC
0000000007FC
0000000007FC
0000000007F8
000000000FF8
000000000FF8
000000000FF8
000000001FF0
7FC000001FF0
3FE000001FF0
3FE000003FE0
3FE000007FE0
1FF000007FC0
1FF80000FFC0
1FF80001FF80
0FFC0003FF80
0FFF0007FF00
07FFC01FFE00
03FFFFFFFC00
03FFFFFFF800
01FFFFFFF000
00FFFFFFE000
003FFFFFC000
001FFFFF0000
0007FFFC0000
00007FC00000
ENDCHAR
STARTCHAR 003A
ENCODING 58
SWIDTH 280 0
DWIDTH 28 0
BBX 10 52 11 0
BITMAP
FFC0
FFC0
FFC0
FFC0
FFC0
FFC0
FFC0
FFC0
FFC0
FFC0
0000
0000
0000
0000
0000
0000
0000
0000
0000
0000
0000
0000
0000
0000
0000
0000
0000
0000
0000
0000
0000
0000
0000
0000
0000
0000
0000
0000
0000
0000
0000
0000
FFC0
FFC0
FFC0
FFC0
FFC0
FFC0
FFC0
FFC0
FFC0
FFC0
ENDCHAR
STARTCHAR 003B
ENCODING 59
SWIDTH 280 0
DWIDTH 28 0
BBX 11 67 11 -15
BITMAP
FFE0
FFE0
FFE0
FFE0
FFE0
FFE0
FFE0
FFE0
FFE0
FFE0
0000
0000
0000
0000
0000
0000
0000
0000
0000
0000
0000
0000
0000
0000
0000
0000
0000
0000
0000
0000
0000
0000
0000
0000
0000
0000
0000
0000
0000
0000
0000
0000
FFE0
FFE0
FFE0
FFE0
FFE0
FFE0
FFE0
FFE0
FFE0
FFE0
03E0
03E0
03E0
03C0
03C0
03C0
03C0
07C0
0780
0F80
1F00
FF00
FE00
F800
E000
ENDCHAR
STARTCHAR 003C
ENCODING 60
SWIDTH 580 0
DWIDTH 58 0
BBX 48 48 5 -1
BITMAP
000000000001
00000000000F
00000000003F
0000000001FF
0000000007FF
000000001FFF
00000000FFFF
00000003FFFF
0000000FFFFC
0000007FFFF0
000001FFFF80
000007FFFE00
00003FFFF000
0000FFFFC000
0007FFFF0000
001FFFF80000
007FFFE00000
03FFFF000000
0FFFFC000000
3FFFE0000000
FFFF80000000
FFFC00000000
FFF000000000
FFC000000000
FFE000000000
FFF800000000
FFFF00000000
FFFFC0000000
3FFFF8000000
07FFFE000000
01FFFF800000
007FFFF00000
000FFFFC0000
0003FFFF8000
0000FFFFE000
00001FFFF800
000007FFFF00
000000FFFFC0
0000003FFFF8
0000000FFFFE
00000001FFFF
000000007FFF
000000001FFF
0000000003FF
0000000000FF
00000000003F
000000000007
000000000001
ENDCHAR
STARTCHAR 003D
ENCODING 61
SWIDTH 580 0
DWIDTH 58 0
BBX 48 24 5 11
BITMAP
FFFFFFFFFFFF
FFFFFFFFFFFF
FFFFFFFFFFFF
FFFFFFFFFFFF
FFFFFFFFFFFF
FFFFFFFFFFFF
FFFFFFFFFFFF
000000000000
000000000000
000000000000
000000000000
000000000000
000000000000
000000000000
000000000000
000000000000
000000000000
FFFFFFFFFFFF
FFFFFFFFFFFF
FFFFFFFFFFFF
FFFFFFFFFFFF
FFFFFFFFFFFF
FFFFFFFFFFFF
FFFFFFFFFFFF
ENDCHAR
STARTCHAR 003E
ENCODING 62
SWIDTH 580 0
DWIDTH 58 0
BBX 49 48 5 -1
BITMAP
C0000000000000
F0000000000000
FE000000000000
FF800000000000
FFE00000000000
FFFC0000000000
FFFF0000000000
FFFFC000000000
3FFFF800000000
07FFFE00000000
01FFFFC0000000
007FFFF0000000
000FFFFC000000
0003FFFF800000
00007FFFE00000
00001FFFF80000
000007FFFF0000
000000FFFFC000
0000003FFFF000
00000007FFFE00
00000001FFFF80
000000007FFF80
000000000FFF80
0000000003FF80
0000000003FF80
000000000FFF80
000000007FFF80
00000001FFFF00
0000000FFFFC00
0000003FFFF000
000000FFFF8000
000007FFFE0000
00001FFFF80000
0000FFFFC00000
0003FFFF000000
001FFFFC000000
007FFFE0000000
03FFFF80000000
0FFFFC00000000
7FFFF000000000
FFFFC000000000
FFFE0000000000
FFF80000000000
FFE00000000000
FF000000000000
FC000000000000
F0000000000000
80000000000000
ENDCHAR
STARTCHAR 003F
ENCODING 63
SWIDTH 560 0
DWIDTH 56 0
BBX 43 74 8 0
BITMAP
0000FFE00000
000FFFFE0000
003FFFFF8000
00FFFFFFE000
01FFFFFFF000
03FFFFFFFC00
07FFFFFFFC00
0FFFFFFFFE00
1FFF003FFF00
1FFC000FFF80
3FF00003FF80
3FE00001FFC0
7FE00000FFC0
7FC00000FFC0
7FC000007FC0
FF8000007FE0
FF8000003FE0
FF8000003FE0
FF8000003FE0
FF0000003FE0
FF0000003FE0
FF0000003FE0
FF0000007FE0
000000007FC0
000000007FC0
00000000FFC0
00000000FF80
00000001FF80
00000003FF00
00000007FF00
0000000FFE00
0000001FFC00
0000003FF800
0000007FF800
000000FFF000
000001FFE000
000003FF8000
000007FF0000
00000FFE0000
00001FFC0000
00003FF80000
00003FF00000
00007FE00000
00007FE00000
0000FFC00000
0000FFC00000
0000FF800000
0000FF800000
0000FF800000
0000FF800000
0000FF800000
0000FF800000
0000FF800000
0000FF800000
000000000000
000000000000
000000000000
000000000000
000000000000
000000000000
000000000000
000000000000
000000000000
000000000000
0000FF800000
0000FF800000
0000FF800000
0000FF800000
0000FF800000
0000FF800000
0000FF800000
0000FF800000
0000FF800000
0000FF800000
ENDCHAR
STARTCHAR 0040
ENCODING 64
SWIDTH 1020 0
DWIDTH 102 0
BBX 92 88 3 -14
BITMAP
00000000001FFF0000000000
0000000003FFFFFC00000000
000000001FFFFFFF80000000
00000000FFFFFFFFE0000000
00000007FFFFFFFFFC000000
0000001FFFFFFFFFFF000000
0000007FFFFFFFFFFF800000
000000FFFFFFFFFFFFE00000
000003FFFF8000FFFFF80000
000007FFF800000FFFFC0000
00001FFFC0000001FFFE0000
00003FFF000000007FFF0000
00007FFC000000001FFF8000
0000FFF0000000000FFFC000
0001FFE00000000003FFE000
0003FF800000000001FFF000
0007FF0000000000007FF800
000FFE0000000000003FFC00
001FFC0000000000001FFC00
003FF80000000000000FFE00
003FF000000000000007FF00
007FE000000000000007FF00
00FFC0000007F8000003FF80
00FF8000007FFE000001FF80
01FF000001FFFF81FF01FFC0
03FF000007FFFFC1FE00FFC0
03FE00000FFFFFE1FE007FC0
07FC00003FFFFFF3FE007FE0
07FC00007FFF7FF3FC007FE0
0FF80000FFF007FBFC003FE0
0FF80001FFC001FFFC003FE0
0FF00003FF8000FFF8003FF0
1FF00007FE00007FF8001FF0
1FE00007FC00007FF8001FF0
1FE0000FFC00007FF0001FF0
3FE0001FF800003FF0001FF0
3FC0001FF000003FF0001FF0
3FC0003FF000003FE0001FF0
7FC0003FE000003FE0001FF0
7FC0007FE000003FE0001FF0
7F80007FC000003FC0001FF0
7F80007FC000007FC0001FF0
7F8000FFC000007FC0001FF0
7F8000FF8000007F80001FE0
7F8000FF8000007F80001FE0
7F8000FF800000FF80003FE0
FF8000FF800000FF80003FE0
FF8000FF800000FF00003FC0
FF8001FF000000FF00007FC0
FF8001FF000001FF00007FC0
7F8001FF000001FE0000FF80
7F8001FF800003FE0000FF80
7F8000FF800003FE0001FF00
7FC000FF800007FC0001FF00
7FC000FF800007FC0003FE00
7FC000FFC0000FFC0007FC00
7FE000FFC0001FFC000FFC00
3FE0007FE0003FFC001FF800
3FE0007FF0003FFC003FF000
3FF0003FF800FFFE00FFE000
1FF0003FFC01FFFF03FFC000
1FF8001FFF9FFBFFFFFF8000
1FF8000FFFFFF3FFFFFF0000
0FFC0007FFFFE1FFFFFE0000
0FFC0003FFFFC0FFFFF80000
07FE0001FFFF00FFFFF00000
07FF00007FFE003FFF800000
03FF80000FF0000FFC000000
01FFC0000000000000000000
01FFE0000000000000000000
00FFF0000000000000000000
007FF8000000000000000000
003FFC000000000000000000
001FFF000000000000000000
000FFF800000000000000000
0007FFE00000000000000000
0003FFF80000000000000000
0001FFFE00000000C0000000
0000FFFFC000000FC0000000
00003FFFFC0001FFE0000000
00001FFFFFFFFFFFE0000000
000007FFFFFFFFFFF0000000
000001FFFFFFFFFFF0000000
0000007FFFFFFFFFF0000000
0000001FFFFFFFFFC0000000
00000003FFFFFFFE00000000
000000007FFFFFE000000000
0000000003FFF80000000000
ENDCHAR
STARTCHAR 0041
ENCODING 65
SWIDTH 670 0
DWIDTH 67 0
BBX 63 73 2 0
BITMAP
0000003FFC000000
0000007FFC000000
0000007FFE000000
000000FFFE000000
000000FFFE000000
000000FFFF000000
000001FFFF000000
000001FFFF000000
000001FFFF800000
000003FFFF800000
000003FEFF800000
000003FEFFC00000
000007FEFFC00000
000007FC7FC00000
000007FC7FE00000
00000FFC7FE00000
00000FF83FE00000
00001FF83FF00000
00001FF83FF00000
00001FF01FF80000
00003FF01FF80000
00003FE01FF80000
00003FE00FFC0000
00007FE00FFC0000
00007FC00FFC0000
00007FC007FE0000
0000FFC007FE0000
0000FF8007FE0000
0000FF8003FF0000
0001FF8003FF0000
0001FF0003FF0000
0003FF0001FF8000
0003FE0001FF8000
0003FE0000FF8000
0007FE0000FFC000
0007FC0000FFC000
0007FC00007FE000
000FFC00007FE000
000FF800007FE000
000FF800003FF000
001FF800003FF000
001FF000003FF000
001FF000001FF800
003FFFFFFFFFF800
003FFFFFFFFFF800
007FFFFFFFFFFC00
007FFFFFFFFFFC00
007FFFFFFFFFFC00
00FFFFFFFFFFFE00
00FFFFFFFFFFFE00
00FFFFFFFFFFFE00
01FF80000003FF00
01FF80000003FF00
01FF00000003FF00
03FF00000001FF80
03FF00000001FF80
03FE00000001FFC0
07FE00000000FFC0
07FE00000000FFC0
07FC00000000FFE0
0FFC000000007FE0
0FFC000000007FE0
1FF8000000007FF0
1FF8000000003FF0
1FF8000000003FF0
3FF0000000003FF8
3FF0000000001FF8
3FF0000000001FF8
7FE0000000001FFC
7FE0000000000FFC
7FC0000000000FFC
FFC0000000000FFE
FFC00000000007FE
ENDCHAR
STARTCHAR 0042
ENCODING 66
SWIDTH 670 0
DWIDTH 67 0
BBX 54 73 8 0
BITMAP
FFFFFFFFF00000
FFFFFFFFFE0000
FFFFFFFFFFC000
FFFFFFFFFFE000
FFFFFFFFFFF800
FFFFFFFFFFFC00
FFFFFFFFFFFE00
FFFFFFFFFFFF00
FF800000FFFF00
FF8000001FFF80
FF80000007FF80
FF80000001FFC0
FF80000001FFC0
FF80000000FFC0
FF800000007FE0
FF800000007FE0
FF800000007FE0
FF800000003FE0
FF800000003FE0
FF800000003FE0
FF800000003FE0
FF800000003FE0
FF800000003FE0
FF800000007FE0
FF800000007FC0
FF800000007FC0
FF80000000FFC0
FF80000000FF80
FF80000001FF80
FF80000007FF00
FF8000000FFE00
FF800000FFFC00
FFFFFFFFFFF800
FFFFFFFFFFE000
FFFFFFFFFFC000
FFFFFFFFFFE000
FFFFFFFFFFF800
FFFFFFFFFFFE00
FFFFFFFFFFFF00
FFFFFFFFFFFF80
FF8000000FFFC0
FF80000001FFE0
FF800000007FF0
FF800000003FF0
FF800000001FF8
FF800000001FF8
FF800000000FFC
FF800000000FFC
FF8000000007FC
FF8000000007FC
FF8000000007FC
FF8000000007FC
FF8000000007FC
FF8000000007FC
FF8000000007FC
FF8000000007FC
FF8000000007FC
FF800000000FFC
FF800000000FF8
FF800000001FF8
FF800000001FF8
FF800000003FF0
FF80000000FFF0
FF80000001FFE0
FF8000001FFFE0
FFFFFFFFFFFFC0
FFFFFFFFFFFF80
FFFFFFFFFFFF00
FFFFFFFFFFFE00
FFFFFFFFFFFC00
FFFFFFFFFFF000
FFFFFFFFFFC000
FFFFFFFFFC0000
ENDCHAR
STARTCHAR 0043
ENCODING 67
SWIDTH 720 0
DWIDTH 72 0
BBX 63 76 5 -2
BITMAP
0000001FFF000000
000003FFFFF00000
00000FFFFFFE0000
00007FFFFFFF8000
0000FFFFFFFFC000
0003FFFFFFFFF000
0007FFFFFFFFF800
000FFFFFFFFFFC00
001FFFF00FFFFE00
003FFF0000FFFF00
007FFC00001FFF00
00FFF0000007FF80
01FFE0000003FF80
01FFC0000001FFC0
03FF80000000FFE0
07FF000000007FE0
07FE000000007FE0
0FFC000000003FF0
0FFC000000003FF0
1FF8000000001FF0
1FF8000000001FF8
1FF0000000001FF8
3FF0000000001FF8
3FE0000000000FF8
3FE0000000000000
7FE0000000000000
7FC0000000000000
7FC0000000000000
7FC0000000000000
7FC0000000000000
FFC0000000000000
FFC0000000000000
FF80000000000000
FF80000000000000
FF80000000000000
FF80000000000000
FF80000000000000
FF80000000000000
FF80000000000000
FF80000000000000
FF80000000000000
FF80000000000000
FF80000000000000
FF80000000000000
FFC0000000000000
FFC0000000000000
FFC0000000000000
7FC00000000007FE
7FC00000000007FE
7FE00000000007FC
7FE00000000007FC
7FE0000000000FFC
3FF0000000000FFC
3FF0000000000FFC
3FF0000000001FF8
1FF8000000001FF8
1FF8000000001FF8
0FFC000000003FF8
0FFE000000003FF0
07FE000000007FF0
07FF000000007FE0
03FF80000000FFE0
03FFC0000001FFC0
01FFE0000003FFC0
00FFF8000007FF80
007FFE00001FFF00
007FFF80007FFF00
003FFFF807FFFE00
001FFFFFFFFFFC00
000FFFFFFFFFF800
0003FFFFFFFFF000
0001FFFFFFFFC000
00007FFFFFFF0000
00001FFFFFFC0000
000003FFFFF00000
0000003FFE000000
ENDCHAR
STARTCHAR 0044
ENCODING 68
SWIDTH 720 0
DWIDTH 72 0
BBX 58 73 9 0
BITMAP
FFFFFFFFC0000000
FFFFFFFFFC000000
FFFFFFFFFF000000
FFFFFFFFFFE00000
FFFFFFFFFFF00000
FFFFFFFFFFFC0000
FFFFFFFFFFFE0000
FFFFFFFFFFFF0000
FF800003FFFF8000
FF8000001FFFC000
FF80000007FFC000
FF80000001FFE000
FF80000000FFF000
FF800000007FF000
FF800000003FF800
FF800000001FFC00
FF800000000FFC00
FF800000000FFC00
FF8000000007FE00
FF8000000007FE00
FF8000000003FF00
FF8000000003FF00
FF8000000003FF00
FF8000000001FF00
FF8000000001FF80
FF8000000001FF80
FF8000000000FF80
FF8000000000FF80
FF8000000000FF80
FF8000000000FF80
FF8000000000FF80
FF8000000000FFC0
FF8000000000FFC0
FF8000000000FFC0
FF8000000000FFC0
FF8000000000FFC0
FF8000000000FFC0
FF8000000000FFC0
FF8000000000FFC0
FF8000000000FFC0
FF8000000000FFC0
FF8000000000FFC0
FF8000000000FF80
FF8000000000FF80
FF8000000000FF80
FF8000000000FF80
FF8000000000FF80
FF8000000001FF80
FF8000000001FF80
FF8000000001FF00
FF8000000001FF00
FF8000000003FF00
FF8000000003FE00
FF8000000007FE00
FF8000000007FE00
FF800000000FFC00
FF800000000FFC00
FF800000001FF800
FF800000003FF800
FF800000007FF000
FF80000000FFF000
FF80000001FFE000
FF80000007FFC000
FF8000001FFFC000
FF800003FFFF8000
FFFFFFFFFFFF0000
FFFFFFFFFFFE0000
FFFFFFFFFFF80000
FFFFFFFFFFF00000
FFFFFFFFFFC00000
FFFFFFFFFF000000
FFFFFFFFFC000000
FFFFFFFFC0000000
ENDCHAR
STARTCHAR 0045
ENCODING 69
SWIDTH 670 0
DWIDTH 67 0
BBX 52 73 9 0
BITMAP
FFFFFFFFFFFFE0
FFFFFFFFFFFFE0
FFFFFFFFFFFFE0
FFFFFFFFFFFFE0
FFFFFFFFFFFFE0
FFFFFFFFFFFFE0
FFFFFFFFFFFFE0
FFFFFFFFFFFFE0
FF800000000000
FF800000000000
FF800000000000
FF800000000000
FF800000000000
FF800000000000
FF800000000000
FF800000000000
FF800000000000
FF800000000000
FF800000000000
FF800000000000
FF800000000000
FF800000000000
FF800000000000
FF800000000000
FF800000000000
FF800000000000
FF800000000000
FF800000000000
FF800000000000
FF800000000000
FF800000000000
FF800000000000
FFFFFFFFFFFF80
FFFFFFFFFFFF80
FFFFFFFFFFFF80
FFFFFFFFFFFF80
FFFFFFFFFFFF80
FFFFFFFFFFFF80
FFFFFFFFFFFF80
FFFFFFFFFFFF80
FF800000000000
FF800000000000
FF800000000000
FF800000000000
FF800000000000
FF800000000000
FF800000000000
FF800000000000
FF800000000000
FF800000000000
FF800000000000
FF800000000000
FF800000000000
FF800000000000
FF800000000000
FF800000000000
FF800000000000
FF800000000000
FF800000000000
FF800000000000
FF800000000000
FF800000000000
FF800000000000
FF800000000000
FF800000000000
FFFFFFFFFFFFF0
FFFFFFFFFFFFF0
FFFFFFFFFFFFF0
FFFFFFFFFFFFF0
FFFFFFFFFFFFF0
FFFFFFFFFFFFF0
FFFFFFFFFFFFF0
FFFFFFFFFFFFF0
ENDCHAR
STARTCHAR 0046
ENCODING 70
SWIDTH 610 0
DWIDTH 61 0
BBX 49 73 9 0
BITMAP
FFFFFFFFFFFF80
FFFFFFFFFFFF80
FFFFFFFFFFFF80
FFFFFFFFFFFF80
FFFFFFFFFFFF80
FFFFFFFFFFFF80
FFFFFFFFFFFF80
FFFFFFFFFFFF80
FF800000000000
FF800000000000
FF800000000000
FF800000000000
FF800000000000
FF800000000000
FF800000000000
FF800000000000
FF800000000000
FF800000000000
FF800000000000
FF800000000000
FF800000000000
FF800000000000
FF800000000000
FF800000000000
FF800000000000
FF800000000000
FF800000000000
FF800000000000
FF800000000000
FF800000000000
FF800000000000
FF800000000000
FFFFFFFFFFF000
FFFFFFFFFFF000
FFFFFFFFFFF000
FFFFFFFFFFF000
FFFFFFFFFFF000
FFFFFFFFFFF000
FFFFFFFFFFF000
FFFFFFFFFFF000
FF800000000000
FF800000000000
FF800000000000
FF800000000000
FF800000000000
FF800000000000
FF800000000000
FF800000000000
FF800000000000
FF800000000000
FF800000000000
FF800000000000
FF800000000000
FF800000000000
FF800000000000
FF800000000000
FF800000000000
FF800000000000
FF800000000000
FF800000000000
FF800000000000
FF800000000000
FF800000000000
FF800000000000
FF800000000000
FF800000000000
FF800000000000
FF800000000000
FF800000000000
FF800000000000
FF800000000000
FF800000000000
FF800000000000
ENDCHAR
STARTCHAR 0047
ENCODING 71
SWIDTH 780 0
DWIDTH 78 0
BBX 67 76 4 -2
BITMAP
00000007FFC0000000
000000FFFFFE000000
000007FFFFFFC00000
00001FFFFFFFF00000
00007FFFFFFFFC0000
0000FFFFFFFFFE0000
0003FFFFFFFFFF8000
0007FFFFFFFFFFC000
000FFFFE01FFFFE000
001FFFE0000FFFF000
003FFF000003FFF800
007FFC000000FFF800
00FFF80000003FFC00
00FFE00000001FFE00
01FFC00000000FFE00
03FF8000000007FF00
03FF0000000003FF00
07FF0000000003FF00
07FE0000000001FF80
0FFC0000000001FF80
0FFC0000000000FF80
1FF80000000000FFC0
1FF80000000000FFC0
1FF000000000000000
3FF000000000000000
3FE000000000000000
3FE000000000000000
3FE000000000000000
7FE000000000000000
7FC000000000000000
7FC000000000000000
7FC000000000000000
7FC000000000000000
7FC000000000000000
7FC000000000000000
FFC000000FFFFFFFE0
FFC000000FFFFFFFE0
FFC000000FFFFFFFE0
FFC000000FFFFFFFE0
FFC000000FFFFFFFE0
FFC000000FFFFFFFE0
7FC000000FFFFFFFE0
7FC000000FFFFFFFE0
7FC000000000001FE0
7FC000000000001FE0
7FE000000000001FE0
7FE000000000001FE0
7FE000000000001FE0
3FE000000000001FE0
3FF000000000003FE0
3FF000000000003FE0
3FF000000000003FE0
1FF800000000003FE0
1FF800000000007FE0
1FFC00000000007FE0
0FFC00000000007FE0
0FFE0000000000FFE0
07FE0000000001FFE0
07FF0000000001FFE0
03FF8000000003FFE0
03FFC000000007FFE0
01FFE00000000FFFE0
01FFF00000001FFFE0
00FFF80000003FFFE0
007FFE000000FFFFE0
003FFF800001FFDFE0
001FFFE0000FFF9FE0
000FFFFF01FFFF1FE0
0007FFFFFFFFFC0FE0
0003FFFFFFFFF80FE0
0001FFFFFFFFF00FE0
00007FFFFFFFC00FE0
00001FFFFFFF8007E0
000007FFFFFC0007E0
000000FFFFF0000000
0000000FFF00000000
ENDCHAR
STARTCHAR 0048
ENCODING 72
SWIDTH 720 0
DWIDTH 72 0
BBX 56 73 8 0
BITMAP
FFC000000001FF
FFC000000001FF
FFC000000001FF
FFC000000001FF
FFC000000001FF
FFC000000001FF
FFC000000001FF
FFC000000001FF
FFC000000001FF
FFC000000001FF
FFC000000001FF
FFC000000001FF
FFC000000001FF
FFC000000001FF
FFC000000001FF
FFC000000001FF
FFC000000001FF
FFC000000001FF
FFC000000001FF
FFC000000001FF
FFC000000001FF
FFC000000001FF
FFC000000001FF
FFC000000001FF
FFC000000001FF
FFC000000001FF
FFC000000001FF
FFC000000001FF
FFC000000001FF
FFC000000001FF
FFC000000001FF
FFC000000001FF
FFFFFFFFFFFFFF
FFFFFFFFFFFFFF
FFFFFFFFFFFFFF
FFFFFFFFFFFFFF
FFFFFFFFFFFFFF
FFFFFFFFFFFFFF
FFFFFFFFFFFFFF
FFFFFFFFFFFFFF
FFC000000001FF
FFC000000001FF
FFC000000001FF
FFC000000001FF
FFC000000001FF
FFC000000001FF
FFC000000001FF
FFC000000001FF
FFC000000001FF
FFC000000001FF
FFC000000001FF
FFC000000001FF
FFC000000001FF
FFC000000001FF
FFC000000001FF
FFC000000001FF
FFC000000001FF
FFC000000001FF
FFC000000001FF
FFC000000001FF
FFC000000001FF
FFC000000001FF
FFC000000001FF
FFC000000001FF
FFC000000001FF
FFC000000001FF
FFC000000001FF
FFC000000001FF
FFC000000001FF
FFC000000001FF
FFC000000001FF
FFC000000001FF
FFC000000001FF
ENDCHAR
STARTCHAR 0049
ENCODING 73
SWIDTH 280 0
DWIDTH 28 0
BBX 9 73 10 0
BITMAP
FF80
FF80
FF80
FF80
FF80
FF80
FF80
FF80
FF80
FF80
FF80
FF80
FF80
FF80
FF80
FF80
FF80
FF80
FF80
FF80
FF80
FF80
FF80
FF80
FF80
FF80
FF80
FF80
FF80
FF80
FF80
FF80
FF80
FF80
FF80
FF80
FF80
FF80
FF80
FF80
FF80
FF80
FF80
FF80
FF80
FF80
FF80
FF80
FF80
FF80
FF80
FF80
FF80
FF80
FF80
FF80
FF80
FF80
FF80
FF80
FF80
FF80
FF80
FF80
FF80
FF80
FF80
FF80
FF80
FF80
FF80
FF80
FF80
ENDCHAR
STARTCHAR 004A
ENCODING 74
SWIDTH 500 0
DWIDTH 50 0
BBX 41 75 2 -2
BITMAP
00000001FF80
00000001FF80
00000001FF80
00000001FF80
00000001FF80
00000001FF80
00000001FF80
00000001FF80
00000001FF80
00000001FF80
00000001FF80
00000001FF80
00000001FF80
00000001FF80
00000001FF80
00000001FF80
00000001FF80
00000001FF80
00000001FF80
00000001FF80
00000001FF80
00000001FF80
00000001FF80
00000001FF80
00000001FF80
00000001FF80
00000001FF80
00000001FF80
00000001FF80
00000001FF80
00000001FF80
00000001FF80
00000001FF80
00000001FF80
00000001FF80
00000001FF80
00000001FF80
00000001FF80
00000001FF80
00000001FF80
00000001FF80
00000001FF80
00000001FF80
00000001FF80
00000001FF80
00000001FF80
00000001FF80
00000001FF80
00000001FF80
FF800001FF80
FF800001FF80
FF800001FF80
FF800001FF80
FF800001FF80
FF800001FF80
FF800001FF80
FF800001FF80
FF800001FF00
FFC00001FF00
FFC00001FF00
FFC00003FF00
FFE00003FF00
7FE00007FE00
7FF0000FFE00
7FF8000FFE00
3FFC003FFC00
1FFF00FFF800
1FFFFFFFF800
0FFFFFFFF000
07FFFFFFE000
03FFFFFFC000
01FFFFFF8000
007FFFFE0000
001FFFF80000
0001FF800000
ENDCHAR
STARTCHAR 004B
ENCODING 75
SWIDTH 670 0
DWIDTH 67 0
BBX 57 73 8 0
BITMAP
FF8000000007FF80
FF800000000FFF00
FF800000001FFE00
FF800000003FFC00
FF800000007FF800
FF80000000FFF000
FF80000001FFE000
FF80000003FFC000
FF80000007FF8000
FF8000000FFF0000
FF8000001FFE0000
FF8000003FFC0000
FF8000007FF80000
FF800000FFF00000
FF800001FFE00000
FF800003FFC00000
FF800007FF800000
FF80000FFF000000
FF80001FFE000000
FF80003FFC000000
FF80007FF8000000
FF8000FFF0000000
FF8001FFE0000000
FF8003FFC0000000
FF8007FF80000000
FF800FFF00000000
FF801FFE00000000
FF803FFC00000000
FF803FF800000000
FF807FF000000000
FF80FFF000000000
FF81FFF800000000
FF83FFFC00000000
FF87FFFC00000000
FF8FFFFE00000000
FF9FFFFF00000000
FFBFF3FF00000000
FFFFE3FF80000000
FFFFC1FFC0000000
FFFF80FFE0000000
FFFF00FFE0000000
FFFE007FF0000000
FFFC003FF8000000
FFF8001FF8000000
FFF0001FFC000000
FFE0000FFE000000
FFC00007FE000000
FF800007FF000000
FF800003FF800000
FF800001FFC00000
FF800001FFC00000
FF800000FFE00000
FF8000007FF00000
FF8000007FF00000
FF8000003FF80000
FF8000001FFC0000
FF8000001FFC0000
FF8000000FFE0000
FF80000007FF0000
FF80000003FF0000
FF80000003FF8000
FF80000001FFC000
FF80000000FFE000
FF80000000FFE000
FF800000007FF000
FF800000003FF800
FF800000003FF800
FF800000001FFC00
FF800000000FFE00
FF800000000FFE00
FF8000000007FF00
FF8000000003FF80
FF8000000003FF80
ENDCHAR
STARTCHAR 004C
ENCODING 76
SWIDTH 560 0
DWIDTH 56 0
BBX 45 73 8 0
BITMAP
FF8000000000
FF8000000000
FF8000000000
FF8000000000
FF8000000000
FF8000000000
FF8000000000
FF8000000000
FF8000000000
FF8000000000
FF8000000000
FF8000000000
FF8000000000
FF8000000000
FF8000000000
FF8000000000
FF8000000000
FF8000000000
FF8000000000
FF8000000000
FF8000000000
FF8000000000
FF8000000000
FF8000000000
FF8000000000
FF8000000000
FF8000000000
FF8000000000
FF8000000000
FF8000000000
FF8000000000
FF8000000000
FF8000000000
FF8000000000
FF8000000000
FF8000000000
FF8000000000
FF8000000000
FF8000000000
FF8000000000
FF8000000000
FF8000000000
FF8000000000
FF8000000000
FF8000000000
FF8000000000
FF8000000000
FF8000000000
FF8000000000
FF8000000000
FF8000000000
FF8000000000
FF8000000000
FF8000000000
FF8000000000
FF8000000000
FF8000000000
FF8000000000
FF8000000000
FF8000000000
FF8000000000
FF8000000000
FF8000000000
FF8000000000
FF8000000000
FFFFFFFFFFF8
FFFFFFFFFFF8
FFFFFFFFFFF8
FFFFFFFFFFF8
FFFFFFFFFFF8
FFFFFFFFFFF8
FFFFFFFFFFF8
FFFFFFFFFFF8
ENDCHAR
STARTCHAR 004D
ENCODING 77
SWIDTH 830 0
DWIDTH 83 0
BBX 68 73 8 0
BITMAP
FFF80000000001FFF0
FFF80000000001FFF0
FFF80000000003FFF0
FFFC0000000003FFF0
FFFC0000000003FFF0
FFFC0000000007FFF0
FFFE0000000007FFF0
FFFE0000000007FFF0
FFFE000000000FFFF0
FFFF000000000FFFF0
FFFF000000000FFFF0
FFFF000000001FFFF0
FF7F800000001FFFF0
FF7F800000001FFFF0
FF7F800000003FDFF0
FF3FC00000003FDFF0
FF3FC00000003FDFF0
FF3FC00000007F9FF0
FF1FE00000007F9FF0
FF1FE00000007F9FF0
FF1FE0000000FF1FF0
FF0FF0000000FF1FF0
FF0FF0000000FF1FF0
FF0FF0000001FE1FF0
FF07F8000001FE1FF0
FF07F8000001FE1FF0
FF07F8000003FC1FF0
FF03FC000003FC1FF0
FF03FC000003FC1FF0
FF03FC000007F81FF0
FF01FE000007F81FF0
FF01FE000007F81FF0
FF01FE00000FF01FF0
FF00FF00000FF01FF0
FF00FF00000FF01FF0
FF00FF00001FE01FF0
FF007F80001FE01FF0
FF007F80001FE01FF0
FF007F80003FC01FF0
FF003FC0003FC01FF0
FF003FC0003FC01FF0
FF003FE0007F801FF0
FF001FE0007F801FF0
FF001FE0007F801FF0
FF001FF000FF001FF0
FF000FF000FF001FF0
FF000FF000FF001FF0
FF000FF801FE001FF0
FF0007F801FE001FF0
FF0007F801FE001FF0
FF0007FC03FC001FF0
FF0003FC03FC001FF0
FF0003FC03FC001FF0
FF0003FE07F8001FF0
FF0001FE07F8001FF0
FF0001FE07F8001FF0
FF0001FF0FF0001FF0
FF0000FF0FF0001FF0
FF0000FF0FF0001FF0
FF0000FF9FE0001FF0
FF00007F9FE0001FF0
FF00007F9FE0001FF0
FF00007FFFC0001FF0
FF00003FFFC0001FF0
FF00003FFFC0001FF0
FF00003FFF80001FF0
FF00001FFF80001FF0
FF00001FFF80001FF0
FF00001FFF00001FF0
FF00000FFF00001FF0
FF00000FFF00001FF0
FF00000FFE00001FF0
FF000007FE00001FF0
ENDCHAR
STARTCHAR 004E
ENCODING 78
SWIDTH 720 0
DWIDTH 72 0
BBX 57 73 8 0
BITMAP
FFC000000000FF80
FFE000000000FF80
FFE000000000FF80
FFF000000000FF80
FFF800000000FF80
FFF800000000FF80
FFFC00000000FF80
FFFC00000000FF80
FFFE00000000FF80
FFFF00000000FF80
FFFF00000000FF80
FFFF80000000FF80
FFFFC0000000FF80
FFFFC0000000FF80
FF7FE0000000FF80
FF7FF0000000FF80
FF3FF0000000FF80
FF1FF8000000FF80
FF1FFC000000FF80
FF0FFC000000FF80
FF07FE000000FF80
FF07FE000000FF80
FF03FF000000FF80
FF01FF800000FF80
FF01FF800000FF80
FF00FFC00000FF80
FF00FFE00000FF80
FF007FE00000FF80
FF003FF00000FF80
FF003FF80000FF80
FF001FF80000FF80
FF000FFC0000FF80
FF000FFC0000FF80
FF0007FE0000FF80
FF0003FF0000FF80
FF0003FF0000FF80
FF0001FF8000FF80
FF0001FFC000FF80
FF0000FFC000FF80
FF00007FE000FF80
FF00007FF000FF80
FF00003FF000FF80
FF00001FF800FF80
FF00001FF800FF80
FF00000FFC00FF80
FF000007FE00FF80
FF000007FE00FF80
FF000003FF00FF80
FF000003FF80FF80
FF000001FF80FF80
FF000000FFC0FF80
FF000000FFE0FF80
FF0000007FE0FF80
FF0000003FF0FF80
FF0000003FF0FF80
FF0000001FF8FF80
FF0000000FFCFF80
FF0000000FFCFF80
FF00000007FEFF80
FF00000007FFFF80
FF00000003FFFF80
FF00000001FFFF80
FF00000001FFFF80
FF00000000FFFF80
FF000000007FFF80
FF000000007FFF80
FF000000003FFF80
FF000000001FFF80
FF000000001FFF80
FF000000000FFF80
FF000000000FFF80
FF0000000007FF80
FF0000000003FF80
ENDCHAR
STARTCHAR 004F
ENCODING 79
SWIDTH 780 0
DWIDTH 78 0
BBX 70 76 4 -2
BITMAP
00000007FFC0000000
000000FFFFFC000000
000007FFFFFF800000
00001FFFFFFFE00000
00007FFFFFFFF80000
0000FFFFFFFFFE0000
0003FFFFFFFFFF0000
0007FFFFFFFFFF8000
000FFFFE01FFFFE000
001FFFC0001FFFF000
003FFF000003FFF800
007FFC000000FFF800
00FFF80000007FFC00
01FFE00000001FFE00
03FFC00000000FFF00
03FF8000000007FF00
07FF0000000003FF80
07FE0000000001FFC0
0FFE0000000001FFC0
0FFC0000000000FFC0
1FF800000000007FE0
1FF800000000007FE0
3FF000000000003FF0
3FF000000000003FF0
3FE000000000001FF0
7FE000000000001FF8
7FE000000000001FF8
7FC000000000000FF8
7FC000000000000FF8
7FC000000000000FFC
FFC000000000000FFC
FFC000000000000FFC
FF80000000000007FC
FF80000000000007FC
FF80000000000007FC
FF80000000000007FC
FF80000000000007FC
FF80000000000007FC
FF80000000000007FC
FF80000000000007FC
FF80000000000007FC
FF80000000000007FC
FF80000000000007FC
FF80000000000007FC
FFC000000000000FFC
FFC000000000000FFC
7FC000000000000FFC
7FC000000000000FF8
7FE000000000000FF8
7FE000000000001FF8
7FE000000000001FF8
3FE000000000001FF0
3FF000000000003FF0
3FF000000000003FF0
1FF800000000007FE0
1FF800000000007FE0
0FFC0000000000FFC0
0FFE0000000001FFC0
07FE0000000001FF80
07FF0000000003FF80
03FF8000000007FF00
03FFC00000000FFF00
01FFE00000001FFE00
00FFF80000007FFC00
007FFC000000FFF800
007FFF000003FFF800
003FFFE0000FFFF000
001FFFFE01FFFFE000
0007FFFFFFFFFF8000
0003FFFFFFFFFF0000
0001FFFFFFFFFE0000
00007FFFFFFFF80000
00001FFFFFFFE00000
000007FFFFFF800000
000000FFFFFC000000
0000000FFF80000000
ENDCHAR
STARTCHAR 0050
ENCODING 80
SWIDTH 670 0
DWIDTH 67 0
BBX 53 73 9 0
BITMAP
FFFFFFFFF00000
FFFFFFFFFF0000
FFFFFFFFFFE000
FFFFFFFFFFF000
FFFFFFFFFFFC00
FFFFFFFFFFFE00
FFFFFFFFFFFF00
FFFFFFFFFFFF80
FF800000FFFF80
FF8000000FFFC0
FF80000003FFE0
FF80000001FFE0
FF80000000FFE0
FF800000007FF0
FF800000007FF0
FF800000003FF0
FF800000003FF0
FF800000001FF8
FF800000001FF8
FF800000001FF8
FF800000001FF8
FF800000001FF8
FF800000001FF8
FF800000001FF8
FF800000001FF8
FF800000003FF0
FF800000003FF0
FF800000003FF0
FF800000007FF0
FF80000000FFE0
FF80000001FFE0
FF80000003FFE0
FF8000000FFFC0
FF8000007FFF80
FFFFFFFFFFFF80
FFFFFFFFFFFF00
FFFFFFFFFFFE00
FFFFFFFFFFFC00
FFFFFFFFFFF000
FFFFFFFFFFE000
FFFFFFFFFF8000
FFFFFFFFF80000
FF800000000000
FF800000000000
FF800000000000
FF800000000000
FF800000000000
FF800000000000
FF800000000000
FF800000000000
FF800000000000
FF800000000000
FF800000000000
FF800000000000
FF800000000000
FF800000000000
FF800000000000
FF800000000000
FF800000000000
FF800000000000
FF800000000000
FF800000000000
FF800000000000
FF800000000000
FF800000000000
FF800000000000
FF800000000000
FF800000000000
FF800000000000
FF800000000000
FF800000000000
FF800000000000
FF800000000000
ENDCHAR
STARTCHAR 0051
ENCODING 81
SWIDTH 780 0
DWIDTH 78 0
BBX 70 80 4 -6
BITMAP
00000007FFC0000000
000000FFFFFC000000
000007FFFFFF800000
00001FFFFFFFE00000
00007FFFFFFFF80000
0000FFFFFFFFFE0000
0003FFFFFFFFFF0000
0007FFFFFFFFFF8000
000FFFFE01FFFFE000
001FFFE0001FFFF000
007FFF000003FFF800
007FFC000000FFF800
00FFF80000007FFC00
01FFE00000001FFE00
03FFC00000000FFF00
03FF8000000007FF00
07FF0000000003FF80
07FE0000000001FFC0
0FFE0000000001FFC0
0FFC0000000000FFE0
1FF800000000007FE0
1FF800000000007FE0
3FF000000000003FF0
3FF000000000003FF0
3FE000000000001FF0
7FE000000000001FF8
7FE000000000001FF8
7FC000000000000FF8
7FC000000000000FF8
7FC000000000000FFC
FFC000000000000FFC
FFC000000000000FFC
FF80000000000007FC
FF80000000000007FC
FF80000000000007FC
FF80000000000007FC
FF80000000000007FC
FF80000000000007FC
FF80000000000007FC
FF80000000000007FC
FF80000000000007FC
FF80000000000007FC
FF80000000000007FC
FF80000000000007FC
FFC000000000000FFC
FFC000000000000FFC
7FC000000000000FFC
7FC000000000000FF8
7FE000000000000FF8
7FE000000000001FF8
7FE000000000001FF8
3FE000000000001FF0
3FF000000000003FF0
3FF000000000003FF0
1FF80000001C007FE0
1FF80000003E007FE0
0FFC0000007F00FFC0
0FFE0000007F81FFC0
07FE000000FFC1FF80
07FF000000FFF3FF80
03FF8000007FFFFF00
03FFC000001FFFFF00
01FFE000000FFFFE00
00FFF8000007FFFC00
007FFC000003FFF800
007FFF000003FFF000
003FFFE0001FFFF000
000FFFFE01FFFFFC00
0007FFFFFFFFFFFE00
0003FFFFFFFFFFFF00
0001FFFFFFFFFFFF80
00007FFFFFFFF9FFC0
00001FFFFFFFE0FFF0
000007FFFFFF807FF8
000000FFFFFC003FF8
0000000FFF80000FF0
0000000000000007E0
0000000000000003C0
000000000000000180
000000000000000080
ENDCHAR
STARTCHAR 0052
ENCODING 82
SWIDTH 720 0
DWIDTH 72 0
BBX 59 73 9 0
BITMAP
FFFFFFFFFF000000
FFFFFFFFFFF00000
FFFFFFFFFFFE0000
FFFFFFFFFFFF0000
FFFFFFFFFFFFC000
FFFFFFFFFFFFE000
FFFFFFFFFFFFF000
FFFFFFFFFFFFF800
FFC000000FFFF800
FFC0000000FFFC00
FFC00000003FFC00
FFC00000001FFE00
FFC00000000FFE00
FFC000000007FE00
FFC000000007FF00
FFC000000003FF00
FFC000000003FF00
FFC000000003FF00
FFC000000003FF00
FFC000000003FF00
FFC000000003FF00
FFC000000003FF00
FFC000000003FF00
FFC000000003FF00
FFC000000003FF00
FFC000000003FE00
FFC000000007FE00
FFC000000007FE00
FFC00000000FFC00
FFC00000000FF800
FFC00000003FF800
FFC00000007FF000
FFC0000003FFE000
FFFFFFFFFFFFC000
FFFFFFFFFFFF0000
FFFFFFFFFFFE0000
FFFFFFFFFFF80000
FFFFFFFFFFFE0000
FFFFFFFFFFFF0000
FFFFFFFFFFFFC000
FFFFFFFFFFFFE000
FFC0000007FFF000
FFC0000000FFF000
FFC00000003FF800
FFC00000001FF800
FFC00000000FFC00
FFC00000000FFC00
FFC000000007FC00
FFC000000007FC00
FFC000000007FC00
FFC000000007FC00
FFC000000007FC00
FFC000000003FC00
FFC000000003FC00
FFC000000003FE00
FFC000000003FE00
FFC000000003FE00
FFC000000003FE00
FFC000000003FE00
FFC000000003FE00
FFC000000003FE00
FFC000000003FE00
FFC000000003FE00
FFC000000003FE00
FFC000000003FE00
FFC000000003FE00
FFC000000003FF00
FFC000000003FF00
FFC000000003FF80
FFC000000003FFC0
FFC000000001FFE0
FFC000000001FFE0
FFC000000001FFE0
ENDCHAR
STARTCHAR 0053
ENCODING 83
SWIDTH 670 0
DWIDTH 67 0
BBX 57 76 5 -2
BITMAP
000003FFE0000000
00007FFFFE000000
0003FFFFFFC00000
000FFFFFFFF00000
001FFFFFFFFC0000
007FFFFFFFFE0000
00FFFFFFFFFF0000
01FFFFFFFFFF8000
03FFFC003FFFC000
03FFE00007FFE000
07FF800001FFE000
0FFE0000007FF000
0FFC0000003FF800
1FF80000001FF800
1FF80000000FFC00
1FF00000000FFC00
1FF000000007FC00
3FF000000007FC00
3FE000000007FE00
3FE000000003FE00
3FE000000003FE00
3FE000000003FE00
3FF000000003FE00
3FF0000000000000
3FF0000000000000
3FF8000000000000
1FFC000000000000
1FFE000000000000
1FFF800000000000
0FFFE00000000000
0FFFFC0000000000
07FFFFC000000000
03FFFFFC00000000
01FFFFFFC0000000
00FFFFFFF8000000
003FFFFFFF800000
001FFFFFFFF00000
0003FFFFFFFE0000
00007FFFFFFF8000
000007FFFFFFC000
0000007FFFFFE000
00000007FFFFF000
000000007FFFF800
000000000FFFFC00
0000000001FFFE00
00000000007FFE00
00000000001FFF00
00000000000FFF00
000000000007FF00
000000000003FF80
000000000001FF80
FF8000000001FF80
FF8000000000FF80
FF8000000000FF80
FF8000000000FF80
FF8000000000FF80
FF8000000000FF80
7FC000000001FF80
7FC000000001FF80
7FE000000001FF00
7FE000000003FF00
3FF000000003FF00
3FF800000007FE00
1FFC0000000FFE00
1FFF0000001FFC00
0FFF8000007FFC00
07FFF00001FFF800
03FFFF803FFFF000
01FFFFFFFFFFE000
00FFFFFFFFFFC000
007FFFFFFFFF8000
003FFFFFFFFE0000
000FFFFFFFFC0000
0003FFFFFFE00000
00007FFFFF800000
000003FFF0000000
ENDCHAR
STARTCHAR 0054
ENCODING 84
SWIDTH 610 0
DWIDTH 61 0
BBX 57 73 2 0
BITMAP
FFFFFFFFFFFFFF80
FFFFFFFFFFFFFF80
FFFFFFFFFFFFFF80
FFFFFFFFFFFFFF80
FFFFFFFFFFFFFF80
FFFFFFFFFFFFFF80
FFFFFFFFFFFFFF80
FFFFFFFFFFFFFF80
000000FF80000000
000000FF80000000
000000FF80000000
000000FF80000000
000000FF80000000
000000FF80000000
000000FF80000000
000000FF80000000
000000FF80000000
000000FF80000000
000000FF80000000
000000FF80000000
000000FF80000000
000000FF80000000
000000FF80000000
000000FF80000000
000000FF80000000
000000FF80000000
000000FF80000000
000000FF80000000
000000FF80000000
000000FF80000000
000000FF80000000
000000FF80000000
000000FF80000000
000000FF80000000
000000FF80000000
000000FF80000000
000000FF80000000
000000FF80000000
000000FF80000000
000000FF80000000
000000FF80000000
000000FF80000000
000000FF80000000
000000FF80000000
000000FF80000000
000000FF80000000
000000FF80000000
000000FF80000000
000000FF80000000
000000FF80000000
000000FF80000000
000000FF80000000
000000FF80000000
000000FF80000000
000000FF80000000
000000FF80000000
000000FF80000000
000000FF80000000
000000FF80000000
000000FF80000000
000000FF80000000
000000FF80000000
000000FF80000000
000000FF80000000
000000FF80000000
000000FF80000000
000000FF80000000
000000FF80000000
000000FF80000000
000000FF80000000
000000FF80000000
000000FF80000000
000000FF80000000
ENDCHAR
STARTCHAR 0055
ENCODING 85
SWIDTH 720 0
DWIDTH 72 0
BBX 56 75 9 -2
BITMAP
FF8000000003FF
FF8000000003FF
FF8000000003FF
FF8000000003FF
FF8000000003FF
FF8000000003FF
FF8000000003FF
FF8000000003FF
FF8000000003FF
FF8000000003FF
FF8000000003FF
FF8000000003FF
FF8000000003FF
FF8000000003FF
FF8000000003FF
FF8000000003FF
FF8000000003FF
FF8000000003FF
FF8000000003FF
FF8000000003FF
FF8000000003FF
FF8000000003FF
FF8000000003FF
FF8000000003FF
FF8000000003FF
FF8000000003FF
FF8000000003FF
FF8000000003FF
FF8000000003FF
FF8000000003FF
FF8000000003FF
FF8000000003FF
FF8000000003FF
FF8000000003FF
FF8000000003FF
FF8000000003FF
FF8000000003FF
FF8000000003FF
FF8000000003FF
FF8000000003FF
FF8000000003FF
FF8000000003FF
FF8000000003FF
FF8000000003FF
FF8000000003FF
FF8000000003FF
FF8000000003FF
FF8000000003FF
FF8000000003FF
FF8000000003FF
FF8000000003FF
FF8000000003FF
FF8000000003FE
FF8000000003FE
FF8000000003FE
FF8000000003FE
FFC000000007FE
FFC000000007FE
7FC000000007FC
7FE00000000FFC
7FF00000001FFC
3FF00000003FF8
3FFC0000007FF8
1FFE000000FFF0
1FFF800003FFE0
0FFFE0000FFFE0
07FFFE00FFFFC0
03FFFFFFFFFF80
01FFFFFFFFFF00
00FFFFFFFFFE00
003FFFFFFFF800
001FFFFFFFE000
0007FFFFFF8000
0000FFFFFC0000
000007FFC00000
ENDCHAR
STARTCHAR 0056
ENCODING 86
SWIDTH 670 0
DWIDTH 67 0
BBX 61 73 3 0
BITMAP
FFC0000000001FF8
7FE0000000001FF8
7FE0000000001FF8
7FE0000000003FF0
3FF0000000003FF0
3FF0000000003FF0
3FF0000000007FE0
1FF8000000007FE0
1FF8000000007FE0
1FF800000000FFC0
0FFC00000000FFC0
0FFC00000000FFC0
0FFC00000000FF80
07FE00000001FF80
07FE00000001FF00
03FE00000001FF00
03FF00000003FF00
03FF00000003FE00
01FF00000003FE00
01FF80000007FE00
01FF80000007FC00
00FF80000007FC00
00FFC000000FFC00
00FFC000000FF800
007FC000000FF800
007FE000001FF800
007FE000001FF000
003FF000001FF000
003FF000003FF000
001FF000003FE000
001FF800003FE000
001FF800007FE000
000FF800007FC000
000FFC00007FC000
000FFC0000FFC000
0007FC0000FF8000
0007FE0000FF8000
0007FE0001FF0000
0003FE0001FF0000
0003FF0001FF0000
0001FF0003FE0000
0001FF0003FE0000
0001FF8003FE0000
0000FF8007FC0000
0000FF8007FC0000
0000FFC007FC0000
00007FC00FF80000
00007FC00FF80000
00007FE00FF80000
00003FE01FF00000
00003FE01FF00000
00003FF01FF00000
00001FF03FE00000
00001FF83FE00000
00000FF83FE00000
00000FF87FC00000
00000FFC7FC00000
000007FC7FC00000
000007FCFF800000
000007FEFF800000
000003FEFF800000
000003FFFF000000
000003FFFF000000
000001FFFE000000
000001FFFE000000
000001FFFE000000
000000FFFC000000
000000FFFC000000
0000007FFC000000
0000007FF8000000
0000007FF8000000
0000003FF8000000
0000003FF0000000
ENDCHAR
STARTCHAR 0057
ENCODING 87
SWIDTH 940 0
DWIDTH 94 0
BBX 91 73 2 0
BITMAP
FFE0000000FFE0000000FFE0
7FE0000000FFE0000000FFE0
7FE0000000FFE0000000FFC0
7FE0000000FFE0000000FFC0
7FF0000001FFF0000001FFC0
3FF0000001FFF0000001FF80
3FF0000001FFF0000001FF80
3FF0000003FFF8000001FF80
3FF8000003FFF8000001FF80
1FF8000003FFF8000003FF00
1FF8000003FFF8000003FF00
1FF8000007FFFC000003FF00
1FF8000007FFFC000003FF00
0FFC000007FBFC000007FE00
0FFC000007FBFE000007FE00
0FFC00000FFBFE000007FE00
0FFC00000FF3FE000007FE00
07FE00000FF1FE000007FC00
07FE00001FF1FF00000FFC00
07FE00001FF1FF00000FFC00
07FE00001FE1FF00000FFC00
03FF00001FE0FF80000FF800
03FF00003FE0FF80001FF800
03FF00003FE0FF80001FF800
03FF00003FC07F80001FF800
01FF00003FC07FC0001FF000
01FF80007FC07FC0001FF000
01FF80007F807FC0003FF000
01FF80007F803FC0003FF000
00FF8000FF803FE0003FE000
00FFC000FF803FE0003FE000
00FFC000FF001FE0007FE000
00FFC000FF001FF0007FE000
007FC001FF001FF0007FC000
007FE001FF001FF0007FC000
007FE001FE000FF000FFC000
003FE001FE000FF800FFC000
003FE003FE000FF800FF8000
003FF003FC0007F800FF8000
003FF003FC0007FC00FF8000
001FF007FC0007FC01FF8000
001FF007FC0007FC01FF0000
001FF007F80003FC01FF0000
001FF807F80003FE01FF0000
000FF80FF80003FE03FF0000
000FF80FF80003FE03FE0000
000FF80FF00001FF03FE0000
000FFC0FF00001FF03FE0000
0007FC1FF00001FF03FE0000
0007FC1FE00000FF07FC0000
0007FC1FE00000FF87FC0000
0007FE3FE00000FF87FC0000
0003FE3FE00000FF87FC0000
0003FE3FC000007F8FF80000
0003FE3FC000007FCFF80000
0003FE7FC000007FCFF80000
0001FF7FC000003FCFF80000
0001FF7F8000003FEFF00000
0001FF7F8000003FFFF00000
0001FFFF8000003FFFF00000
0000FFFF0000001FFFF00000
0000FFFF0000001FFFE00000
0000FFFF0000001FFFE00000
0000FFFF0000000FFFE00000
00007FFE0000000FFFE00000
00007FFE0000000FFFC00000
00007FFE0000000FFFC00000
00007FFE00000007FFC00000
00003FFC00000007FFC00000
00003FFC00000007FF800000
00003FFC00000007FF800000
00003FFC00000003FF800000
00001FF800000003FF800000
ENDCHAR
STARTCHAR 0058
ENCODING 88
SWIDTH 670 0
DWIDTH 67 0
BBX 62 73 3 0
BITMAP
7FF0000000007FF0
3FF8000000007FF0
3FFC00000000FFE0
1FFC00000001FFC0
0FFE00000001FFC0
07FF00000003FF80
07FF00000007FF00
03FF80000007FF00
01FFC000000FFE00
01FFC000001FFC00
00FFE000001FF800
007FF000003FF800
007FF000007FF000
003FF800007FE000
001FFC0000FFE000
001FFC0001FFC000
000FFE0001FF8000
0007FF0003FF8000
0007FF0007FF0000
0003FF8007FE0000
0001FF800FFE0000
0001FFC01FFC0000
0000FFE01FF80000
00007FE03FF00000
00007FF03FF00000
00003FF87FE00000
00001FF8FFC00000
00000FFCFFC00000
00000FFFFF800000
000007FFFF000000
000003FFFF000000
000003FFFE000000
000001FFFC000000
000000FFFC000000
000000FFF8000000
0000007FF0000000
000000FFF8000000
000000FFF8000000
000001FFFC000000
000003FFFE000000
000003FFFF000000
000007FFFF000000
00000FFFFF800000
00000FFDFFC00000
00001FF8FFC00000
00003FF8FFE00000
00007FF07FF00000
00007FE03FF00000
0000FFE03FF80000
0001FFC01FFC0000
0001FF800FFC0000
0003FF800FFE0000
0007FF0007FF0000
0007FE0003FF0000
000FFE0003FF8000
001FFC0001FFC000
001FF80000FFE000
003FF80000FFE000
007FF000007FF000
007FE000003FF800
00FFE000003FF800
01FFC000001FFC00
03FF8000000FFE00
03FF8000000FFE00
07FF00000007FF00
0FFE00000007FF80
0FFE00000003FF80
1FFC00000001FFC0
3FF800000001FFE0
3FF800000000FFE0
7FF0000000007FF0
FFE0000000007FF8
FFE0000000003FFC
ENDCHAR
STARTCHAR 0059
ENCODING 89
SWIDTH 670 0
DWIDTH 67 0
BBX 64 73 2 0
BITMAP
FFE00000000007FF
FFF0000000000FFE
7FF0000000000FFE
7FF8000000001FFC
3FFC000000003FF8
1FFC000000003FF8
1FFE000000007FF0
0FFE000000007FE0
07FF00000000FFE0
07FF80000001FFC0
03FF80000001FFC0
01FFC0000003FF80
01FFC0000003FF00
00FFE0000007FF00
00FFF0000007FE00
007FF000000FFE00
003FF800001FFC00
003FF800001FF800
001FFC00003FF800
000FFE00003FF000
000FFE00007FE000
0007FF0000FFE000
0003FF0000FFC000
0003FF8001FFC000
0001FFC001FF8000
0001FFC003FF0000
0000FFE007FF0000
00007FE007FE0000
00007FF00FFC0000
00003FF80FFC0000
00001FF81FF80000
00001FFC1FF80000
00000FFC3FF00000
00000FFE7FE00000
000007FF7FE00000
000003FFFFC00000
000003FFFFC00000
000001FFFF800000
000000FFFF000000
000000FFFF000000
0000007FFE000000
0000003FFC000000
0000003FFC000000
0000001FF8000000
0000001FF8000000
0000001FF8000000
0000001FF8000000
0000001FF8000000
0000001FF8000000
0000001FF8000000
0000001FF8000000
0000001FF8000000
0000001FF8000000
0000001FF8000000
0000001FF8000000
0000001FF8000000
0000001FF8000000
0000001FF8000000
0000001FF8000000
0000001FF8000000
0000001FF8000000
0000001FF8000000
0000001FF8000000
0000001FF8000000
0000001FF8000000
0000001FF8000000
0000001FF8000000
0000001FF8000000
0000001FF8000000
0000001FF8000000
0000001FF8000000
0000001FF8000000
0000001FF8000000
ENDCHAR
STARTCHAR 005A
ENCODING 90
SWIDTH 610 0
DWIDTH 61 0
BBX 55 73 3 0
BITMAP
1FFFFFFFFFFFFE
1FFFFFFFFFFFFE
1FFFFFFFFFFFFE
1FFFFFFFFFFFFE
1FFFFFFFFFFFFE
1FFFFFFFFFFFFE
1FFFFFFFFFFFFE
1FFFFFFFFFFFFE
00000000001FFE
00000000001FFC
00000000003FF8
00000000007FF8
0000000000FFF0
0000000001FFE0
0000000001FFC0
0000000003FFC0
0000000007FF80
000000000FFF00
000000000FFE00
000000001FFE00
000000003FFC00
000000007FF800
000000007FF000
00000000FFE000
00000001FFE000
00000003FFC000
00000007FF8000
00000007FF0000
0000000FFF0000
0000001FFE0000
0000003FFC0000
0000003FF80000
0000007FF00000
000000FFF00000
000001FFE00000
000003FFC00000
000003FF800000
000007FF800000
00000FFF000000
00001FFE000000
00001FFC000000
00003FFC000000
00007FF8000000
0000FFF0000000
0000FFE0000000
0001FFC0000000
0003FFC0000000
0007FF80000000
000FFF00000000
000FFE00000000
001FFE00000000
003FFC00000000
007FF800000000
007FF000000000
00FFE000000000
01FFE000000000
03FFC000000000
07FF8000000000
07FF0000000000
0FFF0000000000
1FFE0000000000
3FFC0000000000
3FF80000000000
7FF80000000000
FFF00000000000
FFFFFFFFFFFFFE
FFFFFFFFFFFFFE
FFFFFFFFFFFFFE
FFFFFFFFFFFFFE
FFFFFFFFFFFFFE
FFFFFFFFFFFFFE
FFFFFFFFFFFFFE
FFFFFFFFFFFFFE
ENDCHAR
STARTCHAR 005B
ENCODING 91
SWIDTH 280 0
DWIDTH 28 0
BBX 19 94 6 -21
BITMAP
FFFFE0
FFFFE0
FFFFE0
FFFFE0
FFFFE0
FFFFE0
FFFFE0
FF8000
FF8000
FF8000
FF8000
FF8000
FF8000
FF8000
FF8000
FF8000
FF8000
FF8000
FF8000
FF8000
FF8000
FF8000
FF8000
FF8000
FF8000
FF8000
FF8000
FF8000
FF8000
FF8000
FF8000
FF8000
FF8000
FF8000
FF8000
FF8000
FF8000
FF8000
FF8000
FF8000
FF8000
FF8000
FF8000
FF8000
FF8000
FF8000
FF8000
FF8000
FF8000
FF8000
FF8000
FF8000
FF8000
FF8000
FF8000
FF8000
FF8000
FF8000
FF8000
FF8000
FF8000
FF8000
FF8000
FF8000
FF8000
FF8000
FF8000
FF8000
FF8000
FF8000
FF8000
FF8000
FF8000
FF8000
FF8000
FF8000
FF8000
FF8000
FF8000
FF8000
FF8000
FF8000
FF8000
FF8000
FF8000
FF8000
FF8000
FFFFE0
FFFFE0
FFFFE0
FFFFE0
FFFFE0
FFFFE0
FFFFE0
ENDCHAR
STARTCHAR 005C
ENCODING 92
SWIDTH 280 0
DWIDTH 28 0
BBX 29 75 -1 -2
BITMAP
FC000000
7C000000
7C000000
7E000000
3E000000
3E000000
3F000000
1F000000
1F000000
1F800000
1F800000
0F800000
0FC00000
0FC00000
07C00000
07E00000
07E00000
03E00000
03F00000
03F00000
01F00000
01F00000
01F80000
00F80000
00F80000
00FC0000
007C0000
007C0000
007E0000
007E0000
003E0000
003F0000
003F0000
001F0000
001F8000
001F8000
000F8000
000FC000
000FC000
0007C000
0007E000
0007E000
0003E000
0003E000
0003F000
0001F000
0001F000
0001F800
0001F800
0000F800
0000FC00
0000FC00
00007C00
00007E00
00007E00
00003E00
00003F00
00003F00
00001F00
00001F80
00001F80
00000F80
00000F80
00000FC0
000007C0
000007C0
000007E0
000003E0
000003E0
000003F0
000003F0
000001F0
000001F8
000001F8
000000F8
ENDCHAR
STARTCHAR 005D
ENCODING 93
SWIDTH 280 0
DWIDTH 28 0
BBX 19 94 2 -21
BITMAP
FFFFE0
FFFFE0
FFFFE0
FFFFE0
FFFFE0
FFFFE0
FFFFE0
001FE0
001FE0
001FE0
001FE0
001FE0
001FE0
001FE0
001FE0
001FE0
001FE0
001FE0
001FE0
001FE0
001FE0
001FE0
001FE0
001FE0
001FE0
001FE0
001FE0
001FE0
001FE0
001FE0
001FE0
001FE0
001FE0
001FE0
001FE0
001FE0
001FE0
001FE0
001FE0
001FE0
001FE0
001FE0
001FE0
001FE0
001FE0
001FE0
001FE0
001FE0
001FE0
001FE0
001FE0
001FE0
001FE0
001FE0
001FE0
001FE0
001FE0
001FE0
001FE0
001FE0
001FE0
001FE0
001FE0
001FE0
001FE0
001FE0
001FE0
001FE0
001FE0
001FE0
001FE0
001FE0
001FE0
001FE0
001FE0
001FE0
001FE0
001FE0
001FE0
001FE0
001FE0
001FE0
001FE0
001FE0
001FE0
001FE0
001FE0
FFFFE0
FFFFE0
FFFFE0
FFFFE0
FFFFE0
FFFFE0
FFFFE0
ENDCHAR
STARTCHAR 005E
ENCODING 94
SWIDTH 470 0
DWIDTH 47 0
BBX 37 38 5 33
BITMAP
0001FC0000
0003FE0000
0003FE0000
0007FE0000
0007FF0000
0007FF0000
000FFF8000
000FFF8000
001FDF8000
001FDFC000
001F9FC000
003F8FE000
003F8FE000
007F07E000
007F07F000
00FE07F000
00FE03F800
00FE03F800
01FC01FC00
01FC01FC00
03F801FC00
03F800FE00
03F800FE00
07F0007F00
07F0007F00
0FE0007F00
0FE0003F80
0FE0003F80
1FC0001FC0
1FC0001FC0
3F80001FC0
3F80000FE0
3F80000FE0
7F000007F0
7F000007F0
FE000003F0
FE000003F8
FE000003F8
ENDCHAR
STARTCHAR 005F
ENCODING 95
SWIDTH 560 0
DWIDTH 56 0
BBX 60 5 -2 -18
BITMAP
FFFFFFFFFFFFFFF0
FFFFFFFFFFFFFFF0
FFFFFFFFFFFFFFF0
FFFFFFFFFFFFFFF0
FFFFFFFFFFFFFFF0
ENDCHAR
STARTCHAR 0060
ENCODING 96
SWIDTH 330 0
DWIDTH 33 0
BBX 20 15 3 59
BITMAP
FFE000
7FE000
3FF000
1FF800
0FF800
07FC00
03FE00
01FE00
00FF00
007F80
003F80
001FC0
000FE0
0007E0
0003F0
ENDCHAR
STARTCHAR 0061
ENCODING 97
SWIDTH 560 0
DWIDTH 56 0
BBX 50 56 4 -2
BITMAP
00003FFC000000
0003FFFFC00000
001FFFFFF00000
007FFFFFFC0000
00FFFFFFFE0000
01FFFFFFFF0000
03FFFFFFFF8000
07FFFFFFFFC000
0FFF8007FFC000
0FFE0000FFE000
0FFC00007FE000
1FF800003FE000
1FF000003FE000
1FF000001FE000
1FE000001FE000
1FE000001FE000
1FE000001FE000
000000001FE000
000000001FE000
000000001FE000
000000003FE000
000000007FE000
00000001FFE000
0000003FFFE000
00003FFFFFE000
0007FFFFFFE000
003FFFFFFFE000
00FFFFFFFFE000
03FFFFFF9FE000
07FFFFFC1FE000
0FFFFF001FE000
1FFFC0001FE000
3FFE00001FE000
3FF800001FE000
7FE000001FE000
7FC000001FE000
7FC000001FE000
FF8000001FE000
FF8000001FE000
FF8000001FE000
FF8000003FE000
FF8000003FE000
FF8000007FE000
FFC00000FFE000
7FC00001FFE000
7FE00003FFE000
7FF0000FFFE000
3FF8003FFFF000
3FFF83FFFFF800
1FFFFFFFDFFFC0
0FFFFFFF8FFFC0
0FFFFFFE0FFFC0
03FFFFFC0FFFC0
01FFFFF007FFC0
007FFFC003FFC0
000FFC0000FF00
ENDCHAR
STARTCHAR 0062
ENCODING 98
SWIDTH 560 0
DWIDTH 56 0
BBX 47 75 5 -2
BITMAP
FF8000000000
FF8000000000
FF8000000000
FF8000000000
FF8000000000
FF8000000000
FF8000000000
FF8000000000
FF8000000000
FF8000000000
FF8000000000
FF8000000000
FF8000000000
FF8000000000
FF8000000000
FF8000000000
FF8000000000
FF8000000000
FF8000000000
FF800FFC0000
FF807FFF8000
FF81FFFFF000
FF87FFFFF800
FF8FFFFFFE00
FF9FFFFFFF00
FFBFFFFFFF80
FFBFFFFFFF80
FFFFE00FFFC0
FFFF8003FFE0
FFFE0000FFF0
FFFC00007FF0
FFF800003FF8
FFF800003FF8
FFF000001FF8
FFE000000FFC
FFE000000FFC
FFC0000007FC
FFC0000007FC
FFC0000007FE
FFC0000003FE
FF80000003FE
FF80000003FE
FF80000003FE
FF80000003FE
FF80000003FE
FF80000001FE
FF80000001FE
FF80000001FE
FF80000001FE
FF80000001FE
FF80000003FE
FF80000003FE
FF80000003FE
FF80000003FE
FFC0000003FE
FFC0000007FC
FFC0000007FC
FFE0000007FC
FFE000000FFC
FFE000000FF8
FFF000001FF8
FFF800001FF0
FFF800003FF0
FFFC00007FE0
FFFE0000FFE0
FFFF8003FFC0
FFFFE00FFFC0
FF7FFFFFFF80
FF3FFFFFFF00
FF1FFFFFFE00
FF0FFFFFFC00
FF07FFFFF000
FF03FFFFE000
0000FFFF8000
00000FF80000
ENDCHAR
STARTCHAR 0063
ENCODING 99
SWIDTH 500 0
DWIDTH 50 0
BBX 45 56 3 -2
BITMAP
00001FF80000
0001FFFF0000
0007FFFFC000
001FFFFFF000
003FFFFFF800
007FFFFFFE00
00FFFFFFFF00
01FFFFFFFF00
03FFE00FFF80
07FF8003FFC0
07FE0000FFC0
0FFC00007FE0
1FF800007FE0
1FF000003FE0
1FF000003FE0
3FE000001FF0
3FE000001FF0
3FE000001FF0
7FC000000FF0
7FC000000000
7FC000000000
7F8000000000
7F8000000000
FF8000000000
FF8000000000
FF8000000000
FF8000000000
FF8000000000
FF8000000000
FF8000000000
FF8000000000
FF8000000000
FF8000000000
FF8000000000
FF8000000000
7FC000000000
7FC000000FF8
7FC000000FF8
7FC000000FF0
3FE000001FF0
3FE000001FF0
3FF000001FF0
1FF000003FE0
1FF800007FE0
0FFC00007FE0
0FFE0000FFC0
07FF8003FFC0
03FFE00FFF80
03FFFFFFFF00
01FFFFFFFE00
00FFFFFFFC00
007FFFFFF800
001FFFFFF000
000FFFFFC000
0001FFFF0000
00003FF00000
ENDCHAR
STARTCHAR 0064
ENCODING 100
SWIDTH 560 0
DWIDTH 56 0
BBX 47 75 3 -2
BITMAP
0000000003FE
0000000003FE
0000000003FE
0000000003FE
0000000003FE
0000000003FE
0000000003FE
0000000003FE
0000000003FE
0000000003FE
0000000003FE
0000000003FE
0000000003FE
0000000003FE
0000000003FE
0000000003FE
0000000003FE
0000000003FE
0000000003FE
00007FE003FE
0003FFFC03FE
000FFFFF03FE
003FFFFFC3FE
007FFFFFE3FE
00FFFFFFF3FE
01FFFFFFFBFE
03FFFFFFFFFE
07FFE00FFFFE
0FFF8003FFFE
0FFE0000FFFE
1FFC00007FFE
1FF800003FFE
3FF000003FFE
3FF000001FFE
7FE000000FFE
7FE000000FFE
7FC000000FFE
7FC0000007FE
FF80000007FE
FF80000007FE
FF80000003FE
FF80000003FE
FF80000003FE
FF80000003FE
FF00000003FE
FF00000003FE
FF00000003FE
FF00000003FE
FF00000003FE
FF00000003FE
FF80000003FE
FF80000003FE
FF80000003FE
FF80000003FE
FF80000007FE
FFC0000007FE
7FC0000007FE
7FC0000007FE
7FE000000FFE
3FE000000FFE
3FF000001FFE
3FF000003FFE
1FF800003FFE
1FFC00007FFE
0FFE0000FFFE
0FFF8003FFFE
07FFE00FFFFE
03FFFFFFFDFE
01FFFFFFF9FE
00FFFFFFF1FE
007FFFFFE1FE
003FFFFFC1FE
000FFFFF01FE
0003FFFC0000
00007FE00000
ENDCHAR
STARTCHAR 0065
ENCODING 101
SWIDTH 560 0
DWIDTH 56 0
BBX 47 56 4 -2
BITMAP
00001FF80000
0001FFFF8000
0007FFFFE000
001FFFFFF800
003FFFFFFC00
007FFFFFFE00
00FFFFFFFF80
01FFFFFFFF80
03FFE007FFC0
07FF8001FFE0
07FE0000FFF0
0FFC00003FF0
0FF800003FF8
1FF000001FF8
1FF000000FF8
3FE000000FFC
3FE0000007FC
3FC0000007FC
7FC0000003FC
7FC0000003FE
7F80000003FE
7F80000003FE
FF80000003FE
FF80000003FE
FFFFFFFFFFFE
FFFFFFFFFFFE
FFFFFFFFFFFE
FFFFFFFFFFFE
FFFFFFFFFFFE
FFFFFFFFFFFE
FFFFFFFFFFFE
FF8000000000
FF8000000000
FF8000000000
FF8000000000
7F8000000000
7F8000000000
7FC000000000
7FC0000003FC
7FC0000007FC
3FE0000007FC
3FE000000FF8
1FF000000FF8
1FF800001FF8
0FFC00003FF0
0FFE00007FF0
07FF8000FFE0
07FFE007FFC0
03FFFFFFFF80
01FFFFFFFF80
00FFFFFFFF00
007FFFFFFC00
001FFFFFF800
0007FFFFE000
0001FFFF8000
00003FF80000
ENDCHAR
STARTCHAR 0066
ENCODING 102
SWIDTH 280 0
DWIDTH 28 0
BBX 24 73 2 0
BITMAP
0001FF
000FFF
001FFF
003FFF
007FFF
00FFFF
00FFFF
01FFE0
01FF80
01FF00
01FE00
01FE00
01FE00
01FE00
01FE00
01FE00
01FE00
01FE00
01FE00
01FE00
01FE00
FFFFFF
FFFFFF
FFFFFF
FFFFFF
FFFFFF
FFFFFF
FFFFFF
01FE00
01FE00
01FE00
01FE00
01FE00
01FE00
01FE00
01FE00
01FE00
01FE00
01FE00
01FE00
01FE00
01FE00
01FE00
01FE00
01FE00
01FE00
01FE00
01FE00
01FE00
01FE00
01FE00
01FE00
01FE00
01FE00
01FE00
01FE00
01FE00
01FE00
01FE00
01FE00
01FE00
01FE00
01FE00
01FE00
01FE00
01FE00
01FE00
01FE00
01FE00
01FE00
01FE00
01FE00
01FE00
ENDCHAR
STARTCHAR 0067
ENCODING 103
SWIDTH 560 0
DWIDTH 56 0
BBX 44 76 4 -22
BITMAP
00007F800000
0003FFF00000
000FFFFC0FF0
003FFFFE0FF0
007FFFFF0FF0
00FFFFFF8FF0
01FFFFFFCFF0
03FFFFFFEFF0
07FF803FFFF0
07FE000FFFF0
0FFC0003FFF0
1FF80001FFF0
1FF00000FFF0
3FF00000FFF0
3FE000007FF0
3FC000007FF0
7FC000003FF0
7FC000003FF0
7F8000003FF0
FF8000001FF0
FF8000001FF0
FF8000001FF0
FF8000001FF0
FF0000001FF0
FF0000001FF0
FF0000000FF0
FF0000000FF0
FF0000000FF0
FF0000000FF0
FF0000000FF0
FF0000000FF0
FF0000000FF0
FF0000001FF0
FF8000001FF0
FF8000001FF0
FF8000001FF0
FF8000001FF0
FF8000001FF0
7FC000003FF0
7FC000003FF0
7FC000007FF0
3FE000007FF0
3FF00000FFF0
1FF00000FFF0
1FF80001FFF0
0FFC0003FFF0
0FFE0007FFF0
07FF801FEFF0
03FFFFFFCFF0
01FFFFFF8FF0
00FFFFFF8FF0
007FFFFF0FF0
003FFFFC0FF0
001FFFF80FF0
0007FFE01FF0
0000FF801FF0
000000001FE0
000000001FE0
000000001FE0
000000001FE0
7FC000003FE0
7FC000003FC0
3FC000003FC0
3FE000007FC0
3FE00000FF80
1FF00000FF80
1FF80003FF00
0FFC0007FF00
0FFF803FFE00
07FFFFFFFC00
03FFFFFFFC00
01FFFFFFF000
00FFFFFFE000
003FFFFF8000
000FFFFE0000
0000FFE00000
ENDCHAR
STARTCHAR 0068
ENCODING 104
SWIDTH 560 0
DWIDTH 56 0
BBX 42 73 7 0
BITMAP
FF0000000000
FF0000000000
FF0000000000
FF0000000000
FF0000000000
FF0000000000
FF0000000000
FF0000000000
FF0000000000
FF0000000000
FF0000000000
FF0000000000
FF0000000000
FF0000000000
FF0000000000
FF0000000000
FF0000000000
FF0000000000
FF0000000000
FF000FFC0000
FF007FFF8000
FF01FFFFE000
FF07FFFFF800
FF0FFFFFFC00
FF1FFFFFFE00
FF3FFFFFFF00
FF7FF87FFF00
FFFF800FFF80
FFFE0003FF80
FFFC0001FF80
FFF80000FF80
FFF00000FFC0
FFE000007FC0
FFE000007FC0
FFC000007FC0
FFC000007FC0
FF8000007FC0
FF8000007FC0
FF8000007FC0
FF8000007FC0
FF8000007FC0
FF0000007FC0
FF0000007FC0
FF0000007FC0
FF0000007FC0
FF0000007FC0
FF0000007FC0
FF0000007FC0
FF0000007FC0
FF0000007FC0
FF0000007FC0
FF0000007FC0
FF0000007FC0
FF0000007FC0
FF0000007FC0
FF0000007FC0
FF0000007FC0
FF0000007FC0
FF0000007FC0
FF0000007FC0
FF0000007FC0
FF0000007FC0
FF0000007FC0
FF0000007FC0
FF0000007FC0
FF0000007FC0
FF0000007FC0
FF0000007FC0
FF0000007FC0
FF0000007FC0
FF0000007FC0
FF0000007FC0
FF0000007FC0
ENDCHAR
STARTCHAR 0069
ENCODING 105
SWIDTH 220 0
DWIDTH 22 0
BBX 8 73 7 0
BITMAP
FF
FF
FF
FF
FF
FF
FF
FF
FF
FF
FF
00
00
00
00
00
00
00
00
00
00
FF
FF
FF
FF
FF
FF
FF
FF
FF
FF
FF
FF
FF
FF
FF
FF
FF
FF
FF
FF
FF
FF
FF
FF
FF
FF
FF
FF
FF
FF
FF
FF
FF
FF
FF
FF
FF
FF
FF
FF
FF
FF
FF
FF
FF
FF
FF
FF
FF
FF
FF
FF
ENDCHAR
STARTCHAR 006A
ENCODING 106
SWIDTH 220 0
DWIDTH 22 0
BBX 17 95 -2 -22
BITMAP
007F80
007F80
007F80
007F80
007F80
007F80
007F80
007F80
007F80
007F80
007F80
000000
000000
000000
000000
000000
000000
000000
000000
000000
000000
007F80
007F80
007F80
007F80
007F80
007F80
007F80
007F80
007F80
007F80
007F80
007F80
007F80
007F80
007F80
007F80
007F80
007F80
007F80
007F80
007F80
007F80
007F80
007F80
007F80
007F80
007F80
007F80
007F80
007F80
007F80
007F80
007F80
007F80
007F80
007F80
007F80
007F80
007F80
007F80
007F80
007F80
007F80
007F80
007F80
007F80
007F80
007F80
007F80
007F80
007F80
007F80
007F80
007F80
007F80
007F80
007F80
007F80
007F80
007F80
007F80
007F80
007F80
007F80
00FF80
01FF80
0FFF80
FFFF80
FFFF00
FFFE00
FFFE00
FFF800
FFF000
FF0000
ENDCHAR
STARTCHAR 006B
ENCODING 107
SWIDTH 500 0
DWIDTH 50 0
BBX 44 73 6 0
BITMAP
FF0000000000
FF0000000000
FF0000000000
FF0000000000
FF0000000000
FF0000000000
FF0000000000
FF0000000000
FF0000000000
FF0000000000
FF0000000000
FF0000000000
FF0000000000
FF0000000000
FF0000000000
FF0000000000
FF0000000000
FF0000000000
FF0000000000
FF0000000000
FF0000000000
FF000003FF80
FF000007FE00
FF00000FFC00
FF00001FF800
FF00003FF000
FF00007FE000
FF0000FFC000
FF0001FF8000
FF0003FF0000
FF0007FE0000
FF000FFC0000
FF001FF80000
FF003FF00000
FF007FE00000
FF00FFC00000
FF01FF800000
FF03FF000000
FF07FE000000
FF0FFE000000
FF1FFF000000
FF3FFF000000
FF7FFF800000
FFFFFFC00000
FFFFFFC00000
FFFE7FE00000
FFFC7FF00000
FFF83FF00000
FFF03FF80000
FFE01FF80000
FFC00FFC0000
FF800FFE0000
FF0007FE0000
FF0003FF0000
FF0003FF8000
FF0001FF8000
FF0000FFC000
FF0000FFC000
FF00007FE000
FF00007FF000
FF00003FF000
FF00001FF800
FF00001FFC00
FF00000FFC00
FF000007FE00
FF000007FE00
FF000003FF00
FF000003FF80
FF000001FF80
FF000000FFC0
FF000000FFE0
FF0000007FE0
FF0000003FF0
ENDCHAR
STARTCHAR 006C
ENCODING 108
SWIDTH 220 0
DWIDTH 22 0
BBX 8 73 7 0
BITMAP
FF
FF
FF
FF
FF
FF
FF
FF
FF
FF
FF
FF
FF
FF
FF
FF
FF
FF
FF
FF
FF
FF
FF
FF
FF
FF
FF
FF
FF
FF
FF
FF
FF
FF
FF
FF
FF
FF
FF
FF
FF
FF
FF
FF
FF
FF
FF
FF
FF
FF
FF
FF
FF
FF
FF
FF
FF
FF
FF
FF
FF
FF
FF
FF
FF
FF
FF
FF
FF
FF
FF
FF
FF
ENDCHAR
STARTCHAR 006D
ENCODING 109
SWIDTH 830 0
DWIDTH 83 0
BBX 69 54 7 0
BITMAP
00000FF800007FE000
00007FFF0003FFFC00
FF01FFFF800FFFFF00
FF07FFFFE01FFFFF80
FF0FFFFFE07FFFFFC0
FF1FFFFFF0FFFFFFE0
FF3FFFFFF9FFFFFFE0
FF7FE1FFFFFF87FFF0
FFFF003FFFFC00FFF0
FFFC001FFFF0003FF8
FFF8000FFFE0001FF8
FFF00007FFC0001FF8
FFE00007FF80000FF8
FFC00003FF80000FF8
FFC00003FF00000FF8
FF800003FF000007F8
FF800003FE000007F8
FF800003FE000007F8
FF800003FE000007F8
FF800003FE000007F8
FF000003FE000007F8
FF000003FE000007F8
FF000003FE000007F8
FF000003FE000007F8
FF000003FE000007F8
FF000003FE000007F8
FF000003FE000007F8
FF000003FE000007F8
FF000003FE000007F8
FF000003FE000007F8
FF000003FE000007F8
FF000003FE000007F8
FF000003FE000007F8
FF000003FE000007F8
FF000003FE000007F8
FF000003FE000007F8
FF000003FE000007F8
FF000003FE000007F8
FF000003FE000007F8
FF000003FE000007F8
FF000003FE000007F8
FF000003FE000007F8
FF000003FE000007F8
FF000003FE000007F8
FF000003FE000007F8
FF000003FE000007F8
FF000003FE000007F8
FF000003FE000007F8
FF000003FE000007F8
FF000003FE000007F8
FF000003FE000007F8
FF000003FE000007F8
FF000003FE000007F8
FF000003FE000007F8
ENDCHAR
STARTCHAR 006E
ENCODING 110
SWIDTH 560 0
DWIDTH 56 0
BBX 42 54 7 0
BITMAP
000007FC0000
00003FFF8000
FF00FFFFE000
FF03FFFFF800
FF07FFFFFC00
FF0FFFFFFE00
FF1FFFFFFF00
FF3FF87FFF00
FF7F800FFF80
FF7E0003FF80
FFFC0001FF80
FFF80000FF80
FFF00000FFC0
FFE000007FC0
FFE000007FC0
FFC000007FC0
FFC000007FC0
FFC000007FC0
FF8000007FC0
FF8000007FC0
FF8000007FC0
FF8000007FC0
FF8000007FC0
FF0000007FC0
FF0000007FC0
FF0000007FC0
FF0000007FC0
FF0000007FC0
FF0000007FC0
FF0000007FC0
FF0000007FC0
FF0000007FC0
FF0000007FC0
FF0000007FC0
FF0000007FC0
FF0000007FC0
FF0000007FC0
FF0000007FC0
FF0000007FC0
FF0000007FC0
FF0000007FC0
FF0000007FC0
FF0000007FC0
FF0000007FC0
FF0000007FC0
FF0000007FC0
FF0000007FC0
FF0000007FC0
FF0000007FC0
FF0000007FC0
FF0000007FC0
FF0000007FC0
FF0000007FC0
FF0000007FC0
ENDCHAR
STARTCHAR 006F
ENCODING 111
SWIDTH 560 0
DWIDTH 56 0
BBX 47 56 4 -2
BITMAP
00003FF80000
0003FFFF0000
000FFFFFE000
003FFFFFF000
007FFFFFFC00
00FFFFFFFE00
01FFFFFFFF00
03FFFFFFFF80
07FFC00FFFC0
0FFF0003FFC0
0FFE0000FFE0
1FFC00007FF0
1FF800003FF0
3FF000001FF8
3FE000001FF8
3FE000000FF8
7FC000000FFC
7FC0000007FC
7FC0000007FC
FF80000007FC
FF80000007FC
FF80000003FE
FF80000003FE
FF80000003FE
FF00000003FE
FF00000003FE
FF00000003FE
FF00000003FE
FF00000003FE
FF00000003FE
FF00000003FE
FF80000003FE
FF80000003FE
FF80000003FE
FF80000003FE
FF80000003FC
FF80000007FC
7FC0000007FC
7FC0000007FC
7FC000000FFC
7FE000000FF8
3FE000001FF8
3FF000001FF0
1FF800003FF0
1FFC00007FE0
0FFE0000FFE0
0FFF0003FFC0
07FFE00FFFC0
03FFFFFFFF80
01FFFFFFFF00
00FFFFFFFE00
007FFFFFFC00
003FFFFFF000
000FFFFFC000
0003FFFF0000
00003FF80000
ENDCHAR
STARTCHAR 0070
ENCODING 112
SWIDTH 560 0
DWIDTH 56 0
BBX 47 76 5 -22
BITMAP
000007FC0000
00003FFF8000
FF00FFFFE000
FF03FFFFF800
FF07FFFFFC00
FF0FFFFFFE00
FF1FFFFFFF00
FF3FFFFFFF80
FF7FE00FFFC0
FFFF8003FFE0
FFFE0000FFE0
FFFC00007FF0
FFF800003FF0
FFF800001FF8
FFF000001FF8
FFE000000FF8
FFE000000FFC
FFE0000007FC
FFC0000007FC
FFC0000007FE
FFC0000003FE
FF80000003FE
FF80000003FE
FF80000003FE
FF80000003FE
FF80000003FE
FF80000001FE
FF80000001FE
FF80000001FE
FF80000001FE
FF80000001FE
FF80000003FE
FF80000003FE
FF80000003FE
FF80000003FE
FFC0000003FE
FFC0000007FE
FFC0000007FC
FFE0000007FC
FFE000000FFC
FFF000000FFC
FFF000001FF8
FFF800001FF8
FFF800003FF0
FFFC00007FF0
FFFF0000FFE0
FFFF8003FFE0
FFFFE00FFFC0
FFFFFFFFFF80
FFBFFFFFFF00
FF9FFFFFFE00
FF8FFFFFFC00
FF87FFFFF800
FF81FFFFE000
FF807FFF8000
FF800FFC0000
FF8000000000
FF8000000000
FF8000000000
FF8000000000
FF8000000000
FF8000000000
FF8000000000
FF8000000000
FF8000000000
FF8000000000
FF8000000000
FF8000000000
FF8000000000
FF8000000000
FF8000000000
FF8000000000
FF8000000000
FF8000000000
FF8000000000
FF8000000000
ENDCHAR
STARTCHAR 0071
ENCODING 113
SWIDTH 560 0
DWIDTH 56 0
BBX 47 76 3 -22
BITMAP
00003FE00000
0003FFFC0000
000FFFFF01FE
001FFFFFC1FE
007FFFFFE1FE
00FFFFFFF1FE
01FFFFFFF9FE
03FFFFFFFDFE
07FFE00FFFFE
07FF8003FFFE
0FFE0000FFFE
1FFC00007FFE
1FF800003FFE
1FF000003FFE
3FF000001FFE
3FE000000FFE
7FE000000FFE
7FC000000FFE
7FC0000007FE
7F80000007FE
FF80000007FE
FF80000003FE
FF80000003FE
FF80000003FE
FF80000003FE
FF00000003FE
FF00000003FE
FF00000003FE
FF00000003FE
FF00000003FE
FF00000003FE
FF80000003FE
FF80000003FE
FF80000003FE
FF80000003FE
FF80000007FE
FFC0000007FE
FFC0000007FE
7FC0000007FE
7FE000000FFE
7FE000000FFE
3FF000001FFE
3FF000003FFE
3FF800003FFE
1FFC00007FFE
1FFE0000FFFE
0FFF8003FFFE
07FFE00FFFFE
07FFFFFFFFFE
03FFFFFFFBFE
01FFFFFFF3FE
00FFFFFFE3FE
003FFFFFC3FE
001FFFFF03FE
0003FFFC03FE
00007FE003FE
0000000003FE
0000000003FE
0000000003FE
0000000003FE
0000000003FE
0000000003FE
0000000003FE
0000000003FE
0000000003FE
0000000003FE
0000000003FE
0000000003FE
0000000003FE
0000000003FE
0000000003FE
0000000003FE
0000000003FE
0000000003FE
0000000003FE
0000000003FE
ENDCHAR
STARTCHAR 0072
ENCODING 114
SWIDTH 330 0
DWIDTH 33 0
BBX 25 54 7 0
BITMAP
00001F00
0000FF80
FF01FF80
FF03FF80
FF0FFF80
FF0FFF80
FF1FFF80
FF3FFF80
FF7FFF80
FF7FF800
FFFF8000
FFFE0000
FFF80000
FFF00000
FFE00000
FFE00000
FFC00000
FFC00000
FFC00000
FF800000
FF800000
FF800000
FF800000
FF800000
FF000000
FF000000
FF000000
FF000000
FF000000
FF000000
FF000000
FF000000
FF000000
FF000000
FF000000
FF000000
FF000000
FF000000
FF000000
FF000000
FF000000
FF000000
FF000000
FF000000
FF000000
FF000000
FF000000
FF000000
FF000000
FF000000
FF000000
FF000000
FF000000
FF000000
ENDCHAR
STARTCHAR 0073
ENCODING 115
SWIDTH 500 0
DWIDTH 50 0
BBX 43 56 3 -2
BITMAP
0000FFF00000
0007FFFE0000
003FFFFF8000
00FFFFFFE000
01FFFFFFF000
03FFFFFFF800
07FFFFFFFC00
0FFFFFFFFE00
0FFF001FFE00
1FFC0007FF00
1FF80003FF00
3FF00001FF00
3FE00001FF80
3FE00000FF80
3FC00000FF80
3FC00000FF80
3FE000000000
3FE000000000
3FE000000000
3FF000000000
3FF800000000
1FFE00000000
1FFFC0000000
0FFFFC000000
0FFFFFC00000
07FFFFFC0000
01FFFFFF8000
00FFFFFFF000
003FFFFFF800
0007FFFFFE00
0000FFFFFF00
00000FFFFF80
000000FFFF80
0000000FFFC0
00000001FFC0
00000000FFC0
000000007FE0
000000003FE0
FF8000003FE0
FF8000003FE0
7FC000003FE0
7FC000003FE0
7FC000003FE0
7FE000007FC0
7FE000007FC0
3FF00000FFC0
3FFC0003FF80
1FFF000FFF80
1FFFFFFFFF00
0FFFFFFFFE00
07FFFFFFFC00
03FFFFFFF800
01FFFFFFF000
007FFFFFC000
001FFFFE0000
0001FFE00000
ENDCHAR
STARTCHAR 0074
ENCODING 116
SWIDTH 280 0
DWIDTH 28 0
BBX 24 68 1 -2
BITMAP
01FF00
01FF00
01FF00
01FF00
01FF00
01FF00
01FF00
01FF00
01FF00
01FF00
01FF00
01FF00
01FF00
01FF00
FFFFFF
FFFFFF
FFFFFF
FFFFFF
FFFFFF
FFFFFF
FFFFFF
01FF00
01FF00
01FF00
01FF00
01FF00
01FF00
01FF00
01FF00
01FF00
01FF00
01FF00
01FF00
01FF00
01FF00
01FF00
01FF00
01FF00
01FF00
01FF00
01FF00
01FF00
01FF00
01FF00
01FF00
01FF00
01FF00
01FF00
01FF00
01FF00
01FF00
01FF00
01FF00
01FF00
01FF00
01FF00
01FF00
01FF00
01FF00
01FF80
00FFC3
00FFFF
00FFFF
00FFFF
007FFF
003FFF
001FFF
0007FE
ENDCHAR
STARTCHAR 0075
ENCODING 117
SWIDTH 560 0
DWIDTH 56 0
BBX 41 54 7 -2
BITMAP
FF0000007F80
FF0000007F80
FF0000007F80
FF0000007F80
FF0000007F80
FF0000007F80
FF0000007F80
FF0000007F80
FF0000007F80
FF0000007F80
FF0000007F80
FF0000007F80
FF0000007F80
FF0000007F80
FF0000007F80
FF0000007F80
FF0000007F80
FF0000007F80
FF0000007F80
FF0000007F80
FF0000007F80
FF0000007F80
FF0000007F80
FF0000007F80
FF0000007F80
FF0000007F80
FF0000007F80
FF0000007F80
FF0000007F80
FF0000007F80
FF0000007F80
FF0000007F80
FF0000007F80
FF0000007F80
FF000000FF80
FF000000FF80
FF000000FF80
FF000000FF80
FF000001FF80
FF000001FF80
FF800003FF80
FF800007FF80
FFC00007FF80
FFC0000FFF80
FFE0003FFF80
7FF800FFBF80
7FFF07FF3F80
3FFFFFFE3F80
3FFFFFFE3F80
1FFFFFFC3F80
0FFFFFF03F80
03FFFFE03F80
00FFFF800000
001FFC000000
ENDCHAR
STARTCHAR 0076
ENCODING 118
SWIDTH 500 0
DWIDTH 50 0
BBX 47 52 1 0
BITMAP
FFC0000003FE
7FC0000003FE
7FC0000007FE
7FE0000007FC
3FE0000007FC
3FE000000FF8
3FF000000FF8
1FF000000FF8
1FF000001FF0
1FF800001FF0
0FF800001FF0
0FF800003FE0
0FFC00003FE0
07FC00007FC0
07FC00007FC0
07FE00007FC0
03FE0000FF80
03FE0000FF80
01FF0000FF00
01FF0001FF00
01FF0001FF00
00FF8001FE00
00FF8003FE00
00FF8003FE00
007FC003FC00
007FC007FC00
007FC007F800
003FE007F800
003FE00FF800
003FE00FF000
001FF01FF000
001FF01FE000
001FF01FE000
000FF83FE000
000FF83FC000
0007F83FC000
0007FC7F8000
0007FC7F8000
0003FC7F8000
0003FEFF0000
0003FEFF0000
0001FEFF0000
0001FFFE0000
0001FFFE0000
0000FFFC0000
0000FFFC0000
0000FFFC0000
00007FF80000
00007FF80000
00007FF00000
00003FF00000
00003FF00000
ENDCHAR
STARTCHAR 0077
ENCODING 119
SWIDTH 720 0
DWIDTH 72 0
BBX 70 52 1 0
BITMAP
FF800007FF00000FFC
FF800007FF00000FF8
FF800007FF00000FF8
7FC00007FF80001FF8
7FC0000FFF80001FF0
7FC0000FFF80001FF0
7FE0000FFF80001FF0
3FE0000FFFC0003FF0
3FE0001FFFC0003FE0
3FE0001FFFC0003FE0
1FF0001FFFC0003FE0
1FF0001FFFE0007FC0
1FF0003FDFE0007FC0
0FF0003FDFE0007FC0
0FF8003F9FE0007F80
0FF8003F9FF000FF80
0FF8007F8FF000FF80
07F8007F8FF000FF80
07FC007F0FF000FF00
07FC007F0FF801FF00
03FC00FF07F801FF00
03FC00FF07F801FE00
03FE00FF07F801FE00
03FE00FE07FC03FE00
01FE01FE03FC03FE00
01FF01FE03FC03FC00
01FF01FE03FC03FC00
00FF01FC01FE07FC00
00FF03FC01FE07F800
00FF83FC01FE07F800
00FF83FC01FE07F800
007F83F800FF0FF000
007F87F800FF0FF000
007FC7F800FF0FF000
003FC7F800FF0FF000
003FC7F0007F9FE000
003FCFF0007F9FE000
001FEFF0007F9FE000
001FEFF0007FDFC000
001FEFE0003FFFC000
001FFFE0003FFFC000
000FFFE0003FFF8000
000FFFE0003FFF8000
000FFFC0001FFF8000
0007FFC0001FFF8000
0007FFC0001FFF0000
0007FFC0001FFF0000
0007FF80000FFF0000
0003FF80000FFE0000
0003FF80000FFE0000
0003FF80000FFE0000
0001FF000007FE0000
ENDCHAR
STARTCHAR 0078
ENCODING 120
SWIDTH 500 0
DWIDTH 50 0
BBX 45 52 2 0
BITMAP
7FE000001FF0
3FE000003FF0
3FF000003FE0
1FF800007FC0
0FF80000FFC0
0FFC0000FF80
07FE0001FF00
03FE0003FF00
01FF0003FE00
01FF8007FC00
00FF800FF800
007FC00FF800
007FE01FF000
003FE03FE000
001FF03FE000
001FF87FC000
000FF8FF8000
0007FCFF8000
0007FFFF0000
0003FFFE0000
0001FFFC0000
0001FFFC0000
0000FFF80000
00007FF00000
00007FF00000
00003FE00000
00007FF00000
00007FF80000
0000FFF80000
0001FFFC0000
0001FFFE0000
0003FFFE0000
0007FDFF0000
0007FDFF8000
000FF8FFC000
001FF07FC000
001FF07FE000
003FE03FF000
007FC01FF000
00FFC01FF800
00FF800FFC00
01FF0007FC00
03FF0007FE00
03FE0003FF00
07FC0001FF00
0FFC0001FF80
0FF80000FFC0
1FF000007FC0
3FF000007FE0
7FE000003FF0
7FC000001FF0
FFC000001FF8
ENDCHAR
STARTCHAR 0079
ENCODING 121
SWIDTH 500 0
DWIDTH 50 0
BBX 46 74 2 -22
BITMAP
FF80000007FC
FF8000000FF8
7FC000000FF8
7FC000000FF8
3FC000001FF0
3FE000001FF0
3FE000003FE0
1FE000003FE0
1FF000003FE0
1FF000007FC0
0FF000007FC0
0FF800007FC0
0FF80000FF80
07F80000FF80
07FC0000FF00
07FC0001FF00
03FC0001FF00
03FE0001FE00
03FE0003FE00
01FE0003FE00
01FF0007FC00
01FF0007FC00
00FF0007FC00
00FF800FF800
00FF800FF800
007F800FF000
007FC01FF000
007FC01FF000
003FC01FE000
003FE03FE000
003FE03FE000
001FE03FC000
001FF07FC000
001FF07F8000
000FF07F8000
000FF8FF8000
000FF8FF0000
0007F9FF0000
0007FDFF0000
0007FDFE0000
0003FFFE0000
0003FFFE0000
0003FFFC0000
0001FFFC0000
0001FFF80000
0001FFF80000
0000FFF80000
0000FFF00000
0000FFF00000
00007FF00000
00007FE00000
00007FE00000
00003FC00000
00007FC00000
00007FC00000
00007F800000
0000FF800000
0000FF800000
0001FF000000
0001FF000000
0001FF000000
0003FE000000
0003FE000000
0007FC000000
000FFC000000
183FFC000000
1FFFF8000000
1FFFF8000000
1FFFF0000000
1FFFE0000000
1FFFC0000000
1FFF80000000
1FFE00000000
07F000000000
ENDCHAR
STARTCHAR 007A
ENCODING 122
SWIDTH 500 0
DWIDTH 50 0
BBX 43 52 3 0
BITMAP
3FFFFFFFFF80
3FFFFFFFFF80
3FFFFFFFFF80
3FFFFFFFFF80
3FFFFFFFFF80
3FFFFFFFFF80
3FFFFFFFFF80
00000001FF80
00000003FF00
00000003FF00
00000007FE00
0000000FFC00
0000001FF800
0000003FF000
0000007FE000
0000007FE000
000000FFC000
000001FF8000
000003FF0000
000007FE0000
00000FFC0000
00001FFC0000
00001FF80000
00003FF00000
00007FE00000
0000FFC00000
0001FF800000
0003FF800000
0003FF000000
0007FE000000
000FFC000000
001FF8000000
003FF0000000
007FF0000000
007FE0000000
00FFC0000000
01FF80000000
03FF00000000
07FE00000000
0FFE00000000
1FFC00000000
1FF800000000
3FF000000000
7FE000000000
FFC000000000
FFFFFFFFFFE0
FFFFFFFFFFE0
FFFFFFFFFFE0
FFFFFFFFFFE0
FFFFFFFFFFE0
FFFFFFFFFFE0
FFFFFFFFFFE0
ENDCHAR
STARTCHAR 007B
ENCODING 123
SWIDTH 330 0
DWIDTH 33 0
BBX 24 94 4 -21
BITMAP
0000FF
0007FF
000FFF
001FFF
003FFF
003FFF
007FFF
007FC0
007F80
00FF00
00FF00
00FF00
00FF00
00FF00
00FF00
00FF00
00FF00
00FF00
00FF00
00FF00
00FF00
00FF00
00FF00
00FF00
00FF00
00FF00
00FF00
00FF00
00FF00
00FF00
00FF00
00FF00
00FF00
00FF00
00FF00
00FF00
00FE00
01FE00
01FE00
03FE00
03FC00
07FC00
0FF800
7FF800
FFF000
FFE000
FF8000
FF8000
FFC000
FFE000
FFF000
1FF800
07FC00
03FC00
03FE00
01FE00
01FE00
00FE00
00FF00
00FF00
00FF00
00FF00
00FF00
00FF00
00FF00
00FF00
00FF00
00FF00
00FF00
00FF00
00FF00
00FF00
00FF00
00FF00
00FF00
00FF00
00FF00
00FF00
00FF00
00FF00
00FF00
00FF00
00FF00
00FF00
00FF00
007F80
007F80
007FF8
003FFF
003FFF
001FFF
000FFF
0007FF
0001FF
ENDCHAR
STARTCHAR 007C
ENCODING 124
SWIDTH 260 0
DWIDTH 26 0
BBX 6 94 10 -21
BITMAP
FC
FC
FC
FC
FC
FC
FC
FC
FC
FC
FC
FC
FC
FC
FC
FC
FC
FC
FC
FC
FC
FC
FC
FC
FC
FC
FC
FC
FC
FC
FC
FC
FC
FC
FC
FC
FC
FC
FC
FC
FC
FC
FC
FC
FC
FC
FC
FC
FC
FC
FC
FC
FC
FC
FC
FC
FC
FC
FC
FC
FC
FC
FC
FC
FC
FC
FC
FC
FC
FC
FC
FC
FC
FC
FC
FC
FC
FC
FC
FC
FC
FC
FC
FC
FC
FC
FC
FC
FC
FC
FC
FC
FC
FC
ENDCHAR
STARTCHAR 007D
ENCODING 125
SWIDTH 330 0
DWIDTH 33 0
BBX 23 94 3 -21
BITMAP
FF0000
FFC000
FFF000
FFF800
FFFC00
FFFC00
FFFE00
03FE00
01FE00
01FE00
00FF00
00FF00
00FF00
00FF00
00FF00
00FF00
00FF00
00FF00
00FF00
00FF00
00FF00
00FF00
00FF00
00FF00
00FF00
00FF00
00FF00
00FF00
00FF00
00FF00
00FF00
00FF00
00FF00
00FF00
00FF00
00FF00
00FF00
007F00
007F80
007F80
003FC0
003FE0
001FF0
001FFE
000FFE
0007FE
0001FE
0001FE
0003FE
000FFE
001FFE
001FF0
003FE0
003FC0
007F80
007F80
007F00
00FF00
00FF00
00FF00
00FF00
00FF00
00FF00
00FF00
00FF00
00FF00
00FF00
00FF00
00FF00
00FF00
00FF00
00FF00
00FF00
00FF00
00FF00
00FF00
00FF00
00FF00
00FF00
00FF00
00FF00
00FF00
00FF00
00FF00
00FE00
01FE00
03FE00
1FFE00
FFFC00
FFFC00
FFF800
FFF000
FFC000
FF0000
ENDCHAR
STARTCHAR 007E
ENCODING 126
SWIDTH 580 0
DWIDTH 58 0
BBX 43 17 8 27
BITMAP
00F000000000
03FE00000000
0FFF80000000
1FFFC00003E0
3FFFF00003E0
3FFFFC0007E0
7FFFFF0007E0
7F0FFF8007E0
FE01FFE00FC0
FC00FFF81FC0
FC003FFFFFC0
F8000FFFFF80
F80007FFFF80
F80001FFFF00
F80000FFFE00
0000003FFC00
00000007F000
ENDCHAR
STARTCHAR 00A0
ENCODING 160
SWIDTH 280 0
DWIDTH 28 0
BBX 0 0 0 0
BITMAP
ENDCHAR
STARTCHAR 00A1
ENCODING 161
SWIDTH 330 0
DWIDTH 33 0
BBX 9 73 12 -21
BITMAP
FF80
FF80
FF80
FF80
FF80
FF80
FF80
FF80
FF80
FF80
0000
0000
0000
0000
0000
0000
0000
3C00
3C00
3E00
3E00
3E00
3E00
3E00
3E00
3E00
7E00
7E00
7E00
7F00
7F00
7F00
7F00
7F00
7F00
7F00
FF00
FF00
FF00
FF80
FF80
FF80
FF80
FF80
FF80
FF80
FF80
FF80
FF80
FF80
FF80
FF80
FF80
FF80
FF80
FF80
FF80
FF80
FF80
FF80
FF80
FF80
FF80
FF80
FF80
FF80
FF80
FF80
FF80
FF80
FF80
FF80
FF80
ENDCHAR
STARTCHAR 00A2
ENCODING 162
SWIDTH 560 0
DWIDTH 56 0
BBX 46 75 5 -12
BITMAP
000003C00000
000003C00000
000003C00000
000003C00000
000003C00000
000003C00000
000003C00000
000003C00000
000003C00000
00000FF80000
0000FFFF8000
0003FFFFF000
000FFFFFF800
001FFFFFFE00
007FFFFFFF00
00FFFFFFFF80
01FFFFFFFFC0
03FFF3C7FFC0
03FF83C0FFE0
07FF03C07FE0
0FFE03C03FF0
0FFC03C01FF0
1FF803C01FF8
1FF003C00FF8
3FF003C00FF8
3FE003C007F8
3FE003C007F8
7FC003C007F8
7FC003C00000
7FC003C00000
7FC003C00000
7F8003C00000
7F8003C00000
FF8003C00000
FF8003C00000
FF8003C00000
FF8003C00000
FF8003C00000
FF8003C00000
FF8003C00000
FF8003C00000
FF8003C00000
FF8003C00000
7F8003C00000
7FC003C00000
7FC003C003FC
7FC003C007FC
7FC003C007FC
3FE003C007FC
3FE003C007F8
3FF003C00FF8
1FF003C00FF8
1FF803C01FF8
0FFC03C03FF0
0FFE03C07FF0
07FF83C0FFE0
03FFE3C1FFE0
03FFFFDFFFC0
01FFFFFFFF80
00FFFFFFFF00
003FFFFFFE00
001FFFFFFC00
0007FFFFF000
0001FFFFC000
00003FFE0000
000003C00000
000003C00000
000003C00000
000003C00000
000003C00000
000003C00000
000003C00000
000003C00000
000003C00000
000003C00000
ENDCHAR
STARTCHAR 00A3
ENCODING 163
SWIDTH 560 0
DWIDTH 56 0
BBX 50 75 3 -2
BITMAP
000007FF000000
00007FFFE00000
0001FFFFF80000
0007FFFFFE0000
001FFFFFFF8000
003FFFFFFFC000
007FFFFFFFE000
00FFFFFFFFF000
01FFF801FFF800
03FFC0007FF800
03FF80001FFC00
07FE00000FFC00
0FFC00000FFE00
0FFC000007FE00
0FF8000003FE00
1FF8000003FF00
1FF0000003FF00
1FF0000001FF00
1FF0000001FF00
1FF0000001FF00
3FF0000001FF00
3FF0000001FF00
3FF0000001FF00
3FF00000000000
1FF00000000000
1FF80000000000
1FF80000000000
0FF80000000000
0FFC0000000000
0FFE0000000000
07FE0000000000
03FF0000000000
03FF0000000000
01FF8000000000
01FF8000000000
FFFFFFFFC00000
FFFFFFFFC00000
FFFFFFFFC00000
FFFFFFFFC00000
FFFFFFFFC00000
FFFFFFFFC00000
001FF000000000
000FF800000000
000FF800000000
000FF800000000
0007F800000000
0007F800000000
0007FC00000000
0007F800000000
0007F800000000
0007F800000000
0007F800000000
0007F800000000
000FF000000000
000FF000000000
001FE000000000
001FE000000000
003FC000000000
003F8000000000
007F0000000000
00FF0000000000
01FE0000000000
03FC0000000000
07F83FE0000600
0FF3FFFE001E00
1FEFFFFFE07F00
3FFFFFFFFFFF80
7FFFFFFFFFFF80
7FFFFFFFFFFFC0
3FFFFFFFFFFFC0
3FFFFFFFFFFF80
1FE003FFFFFF00
0F80007FFFFE00
0600000FFFF800
00000000FFC000
ENDCHAR
STARTCHAR 00A4
ENCODING 164
SWIDTH 560 0
DWIDTH 56 0
BBX 42 41 7 13
BITMAP
040000000000
0E0000001800
1F0000003C00
3F80FF807E00
7FC7FFF0FF00
FFFFFFFDFF80
7FFFFFFFFFC0
3FFFFFFFFF80
1FFFFFFFFF00
0FFFFFFFFE00
07FFFFFFFC00
07FF007FF800
0FFC003FF800
0FF8000FF800
1FF00007FC00
1FE00007FC00
1FE00003FC00
3FC00003FE00
3FC00001FE00
3FC00001FE00
3FC00001FE00
3FC00001FE00
3FC00001FE00
3FC00001FE00
3FC00001FE00
1FE00003FC00
1FF00003FC00
1FF00007FC00
0FF8000FF800
0FFE001FF800
07FF007FF000
07FFFFFFF800
0FFFFFFFFC00
1FFFFFFFFE00
3FFFFFFFFF00
7FFFFFFFFF80
7FFFFFFDFF80
3FC7FFF0FF00
1F80FF807E00
0F0000003C00
060000001800
ENDCHAR
STARTCHAR 00A5
ENCODING 165
SWIDTH 560 0
DWIDTH 56 0
BBX 53 71 1 0
BITMAP
FF8000000007F8
7F800000000FF8
7FC00000000FF0
3FC00000001FF0
3FE00000001FE0
1FF00000003FE0
0FF00000003FC0
0FF80000007F80
07F80000007F80
07FC000000FF00
03FC000001FF00
03FE000001FE00
01FF000003FE00
00FF000003FC00
00FF800007FC00
007F800007F800
007FC0000FF000
003FC0000FF000
001FE0001FE000
001FF0003FE000
000FF0003FC000
000FF8007FC000
0007F8007F8000
0007FC00FF0000
0003FC00FF0000
0001FE01FE0000
0001FF03FE0000
0000FF03FC0000
0000FF87FC0000
00007F87F80000
00007FCFF00000
00003FCFF00000
00001FFFE00000
00001FFFE00000
00000FFFC00000
00000FFFC00000
07FFFFFFFFFF80
07FFFFFFFFFF80
07FFFFFFFFFF80
07FFFFFFFFFF80
07FFFFFFFFFF80
000001FF000000
000001FF000000
000001FF000000
000001FF000000
000001FF000000
000001FF000000
000001FF000000
07FFFFFFFFFF80
07FFFFFFFFFF80
07FFFFFFFFFF80
07FFFFFFFFFF80
07FFFFFFFFFF80
000001FF000000
000001FF000000
000001FF000000
000001FF000000
000001FF000000
000001FF000000
000001FF000000
000001FF000000
000001FF000000
000001FF000000
000001FF000000
000001FF000000
000001FF000000
000001FF000000
000001FF000000
000001FF000000
000001FF000000
000001FF000000
ENDCHAR
STARTCHAR 00A6
ENCODING 166
SWIDTH 260 0
DWIDTH 26 0
BBX 6 94 10 -21
BITMAP
FC
FC
FC
FC
FC
FC
FC
FC
FC
FC
FC
FC
FC
FC
FC
FC
FC
FC
FC
FC
FC
FC
FC
FC
FC
FC
FC
FC
FC
FC
FC
FC
FC
FC
FC
FC
FC
FC
FC
FC
00
00
00
00
00
00
00
00
00
00
00
00
00
00
FC
FC
FC
FC
FC
FC
FC
FC
FC
FC
FC
FC
FC
FC
FC
FC
FC
FC
FC
FC
FC
FC
FC
FC
FC
FC
FC
FC
FC
FC
FC
FC
FC
FC
FC
FC
FC
FC
FC
FC
ENDCHAR
STARTCHAR 00A7
ENCODING 167
SWIDTH 560 0
DWIDTH 56 0
BBX 47 94 4 -21
BITMAP
000007FC0000
00007FFF8000
0001FFFFE000
0003FFFFF000
000FFFFFF800
001FFFFFFC00
003FFFFFFE00
003FFFFFFF00
007FF80FFF00
00FFE003FF80
00FFC001FF80
01FF8000FF80
01FF00007FC0
01FF00007FC0
01FF00003FC0
01FF00003FC0
01FF00003FC0
01FF00003FC0
01FF00003FC0
01FF00003FC0
01FF80003FC0
01FFC0000000
00FFE0000000
00FFF0000000
007FF8000000
003FFE000000
003FFF800000
003FFFC00000
007FFFF00000
01FFFFF80000
03FFFFFE0000
07FC7FFF0000
0FF03FFFC000
1FE00FFFF000
3FC007FFF800
3FC001FFFE00
7F8000FFFF00
7F80003FFF80
7F80001FFFC0
7F000007FFE0
FF000003FFF0
FF000000FFF0
FF8000007FF8
FF8000003FF8
7F8000001FFC
7FC000000FFC
7FE0000007FC
7FF0000003FC
3FF8000003FE
3FFC000003FE
1FFE000001FE
1FFF800001FE
0FFFC00001FC
07FFE00001FC
03FFF80003FC
01FFFC0003FC
00FFFF0003FC
003FFF8007F8
001FFFC00FF8
000FFFF00FF0
0003FFF83FE0
0001FFFC7FC0
00007FFFFF80
00003FFFFF00
00000FFFFC00
000007FFF000
000001FFF800
000000FFF800
0000003FFC00
0000001FFE00
0000000FFE00
00000007FF00
00000003FF00
00000001FF80
0FF00001FF80
0FF00000FF80
0FF00000FF80
0FF80000FF80
0FF80000FF80
0FF80000FF80
0FF80000FF80
07FC0001FF00
07FC0001FF00
07FE0003FF00
03FF8007FE00
03FFC01FFE00
01FFFFFFFC00
00FFFFFFF800
00FFFFFFF000
007FFFFFE000
001FFFFFC000
000FFFFF8000
0003FFFC0000
00003FE00000
ENDCHAR
STARTCHAR 00A8
ENCODING 168
SWIDTH 330 0
DWIDTH 33 0
BBX 27 10 3 62
BITMAP
FFC0FFE0
FFC0FFE0
FFC0FFE0
FFC0FFE0
FFC0FFE0
FFC0FFE0
FFC0FFE0
FFC0FFE0
FFC0FFE0
FFC0FFE0
ENDCHAR
STARTCHAR 00A9
ENCODING 169
SWIDTH 740 0
DWIDTH 74 0
BBX 76 76 -1 -2
BITMAP
00000000FFF000000000
0000001FFFFF80000000
000000FFFFFFF0000000
000003FFFFFFFC000000
00000FFFFFFFFF000000
00003FFFFFFFFFC00000
00007FFFC03FFFE00000
0001FFF80001FFF80000
0003FFC000003FFC0000
0007FF0000000FFE0000
000FFC00000003FF0000
001FF800000001FF8000
003FE0000000007FC000
007FC0000000003FE000
00FF80000000001FF000
01FF00003FE0000FF800
03FE0001FFFC0007F800
03FC0007FFFF0003FC00
07F8000FFFFF8001FE00
07F0001FFFFFC001FE00
0FF0007FFFFFE000FF00
0FE000FFF07FF0007F00
1FE000FF800FF8007F80
1FC001FF0007F8003F80
3FC003FE0003FC003FC0
3F8003FC0003FC001FC0
3F8007F80001FC001FC0
7F0007F00001FE000FE0
7F0007F00000FE000FE0
7F000FE00000FE000FE0
FE000FE0000000000FE0
FE000FE00000000007F0
FE000FE00000000007F0
FE001FC00000000007F0
FE001FC00000000007F0
FE001FC00000000007F0
FE001FC00000000007F0
FE001FC00000000007F0
FE001FC00000000007F0
FE001FC00000000007F0
FE001FC00000000007F0
FE001FC00000000007F0
FE001FC00000000007F0
FE000FE000007F0007F0
FE000FE000007F0007F0
FE000FE000007F000FE0
7F000FE00000FE000FE0
7F000FF00000FE000FE0
7F0007F00000FE000FE0
3F8007F80001FC001FC0
3F8003FC0003FC001FC0
3FC003FE0003FC003FC0
1FC001FF0007F8003F80
1FE001FF800FF8007F80
0FE000FFF03FF0007F00
0FF0007FFFFFE000FF00
07F8003FFFFFC000FE00
07F8001FFFFF8001FE00
03FC0007FFFF0003FC00
01FE0001FFFC0007F800
01FF00007FF0000FF800
00FF80000000001FF000
007FC0000000003FE000
003FE0000000007FC000
001FF800000001FF8000
000FFC00000003FF0000
0007FF0000000FFE0000
0003FFC000003FFC0000
0001FFF80001FFF80000
00007FFFC03FFFE00000
00003FFFFFFFFFC00000
00000FFFFFFFFF000000
000003FFFFFFFC000000
000000FFFFFFE0000000
0000001FFFFF00000000
00000001FFF000000000
ENDCHAR
STARTCHAR 00AA
ENCODING 170
SWIDTH 370 0
DWIDTH 37 0
BBX 29 44 4 30
BITMAP
007FE000
03FFFC00
07FFFE00
0FFFFF00
1FFFFF80
3FE07F80
3F801FC0
7F000FC0
7E000FC0
7E000FC0
7E000FC0
00000FC0
00000FC0
00001FC0
000FFFC0
01FFFFC0
0FFFFFC0
1FFFFFC0
3FFE0FC0
7FC00FC0
7E000FC0
FC000FC0
FC000FC0
FC000FC0
FC000FC0
FC001FC0
FC003FC0
FE007FC0
FF01FFC0
7FFFFFF8
7FFFF7F8
3FFFE7F8
0FFF83F8
03FE01F8
00000000
00000000
00000000
00000000
00000000
FFFFFFF0
FFFFFFF0
FFFFFFF0
FFFFFFF0
FFFFFFF0
ENDCHAR
STARTCHAR 00AB
ENCODING 171
SWIDTH 560 0
DWIDTH 56 0
BBX 36 33 10 11
BITMAP
0000000010
0006000030
000E000070
001E0001F0
003E0003F0
00FE0007F0
01FE000FF0
03FE003FF0
07FE007FF0
1FFC00FFC0
3FF001FF80
7FE007FF00
FFC00FFC00
FF800FF800
FE000FF000
FC000FE000
F8000F8000
F8000FC000
FE000FE000
FF000FF000
FF800FFC00
FFC007FE00
7FF003FF00
1FF801FF80
0FFC00FFE0
07FE003FF0
03FE001FF0
00FE000FF0
007E0007F0
003E0001F0
001E0000F0
0006000070
0002000030
ENDCHAR
STARTCHAR 00AC
ENCODING 172
SWIDTH 580 0
DWIDTH 58 0
BBX 50 29 4 9
BITMAP
FFFFFFFFFFFFC0
FFFFFFFFFFFFC0
FFFFFFFFFFFFC0
FFFFFFFFFFFFC0
FFFFFFFFFFFFC0
FFFFFFFFFFFFC0
FFFFFFFFFFFFC0
00000000001FC0
00000000001FC0
00000000001FC0
00000000001FC0
00000000001FC0
00000000001FC0
00000000001FC0
00000000001FC0
00000000001FC0
00000000001FC0
00000000001FC0
00000000001FC0
00000000001FC0
00000000001FC0
00000000001FC0
00000000001FC0
00000000001FC0
00000000001FC0
00000000001FC0
00000000001FC0
00000000001FC0
00000000001FC0
ENDCHAR
STARTCHAR 00AD
ENCODING 173
SWIDTH 330 0
DWIDTH 33 0
BBX 23 7 5 24
BITMAP
FFFFFE
FFFFFE
FFFFFE
FFFFFE
FFFFFE
FFFFFE
FFFFFE
ENDCHAR
STARTCHAR 00AE
ENCODING 174
SWIDTH 740 0
DWIDTH 74 0
BBX 76 76 -1 -2
BITMAP
00000000FFF000000000
0000001FFFFF80000000
000000FFFFFFF0000000
000003FFFFFFFC000000
00000FFFFFFFFF000000
00003FFFFFFFFFC00000
00007FFFC03FFFE00000
0001FFF80001FFF80000
0003FFC000003FFC0000
0007FF0000000FFE0000
000FFC00000003FF0000
001FF800000001FF8000
003FE0000000007FC000
007FC0000000003FE000
00FF80000000001FF000
01FF00000000000FF800
03FE07FFFFFF0007F800
03FC07FFFFFFE003FC00
07F807FFFFFFF001FE00
07F007FFFFFFF801FE00
0FF007FFFFFFFC00FF00
0FE007FFFFFFFE007F00
1FC007F00007FE007F80
1FC007F00001FE003F80
3F8007F00000FF003FC0
3F8007F00000FF001FC0
7F8007F00000FF001FC0
7F0007F000007F000FE0
7F0007F000007F000FE0
7F0007F000007F000FE0
FE0007F00000FF000FE0
FE0007F00000FF0007F0
FE0007F00000FE0007F0
FE0007F00001FE0007F0
FE0007F00007FC0007F0
FE0007FFFFFFF80007F0
FE0007FFFFFFF00007F0
FE0007FFFFFFE00007F0
FE0007FFFFFFF00007F0
FE0007FFFFFFF80007F0
FE0007FFFFFFFC0007F0
FE0007F0001FFC0007F0
FE0007F00003FC0007F0
FE0007F00001FE0007F0
FE0007F00001FE0007F0
FF0007F00000FE000FE0
7F0007F00000FE000FE0
7F0007F00000FE000FE0
7F0007F00000FE000FE0
3F8007F00000FE001FC0
3F8007F00000FE001FC0
3FC007F00000FE003FC0
1FC007F00000FE003F80
1FE007F00000FE007F80
0FE007F00000FE007F00
0FF007F00000FF00FF00
07F807F00000FF01FE00
07F807F000007F81FE00
03FC07F000007F83FC00
01FE07F000007F87F800
01FF00000000000FF800
00FF80000000001FF000
007FC0000000003FE000
003FE0000000007FC000
001FF800000001FF8000
000FFC00000003FF0000
0007FF0000000FFE0000
0003FFC000003FFC0000
0001FFF80001FFF80000
00007FFFC03FFFE00000
00003FFFFFFFFFC00000
00000FFFFFFFFF000000
000003FFFFFFFC000000
000000FFFFFFE0000000
0000001FFFFF00000000
00000001FFF000000000
ENDCHAR
STARTCHAR 00AF
ENCODING 175
SWIDTH 330 0
DWIDTH 33 0
BBX 27 7 3 63
BITMAP
FFFFFFE0
FFFFFFE0
FFFFFFE0
FFFFFFE0
FFFFFFE0
FFFFFFE0
FFFFFFE0
ENDCHAR
STARTCHAR 00B0
ENCODING 176
SWIDTH 400 0
DWIDTH 40 0
BBX 30 31 5 38
BITMAP
00078000
007FF800
01FFFE00
03FFFF00
07FFFF80
0FFFFFC0
1FF03FE0
3FC00FF0
3F8007F0
7F0003F8
7E0001F8
FC0000FC
FC0000FC
FC0000FC
FC0000FC
FC0000FC
FC0000FC
FC0000FC
FC0000FC
FC0000FC
7E0001F8
7F0003F8
3F8007F0
3FC00FF0
1FF03FE0
0FFFFFC0
07FFFF80
03FFFF00
01FFFE00
007FF800
00078000
ENDCHAR
STARTCHAR 00B1
ENCODING 177
SWIDTH 580 0
DWIDTH 58 0
BBX 48 64 5 -1
BITMAP
000007F00000
000007F00000
000007F00000
000007F00000
000007F00000
000007F00000
000007F00000
000007F00000
000007F00000
000007F00000
000007F00000
000007F00000
000007F00000
000007F00000
000007F00000
000007F00000
000007F00000
000007F00000
000007F00000
000007F00000
000007F00000
FFFFFFFFFFFF
FFFFFFFFFFFF
FFFFFFFFFFFF
FFFFFFFFFFFF
FFFFFFFFFFFF
FFFFFFFFFFFF
FFFFFFFFFFFF
000007F00000
000007F00000
000007F00000
000007F00000
000007F00000
000007F00000
000007F00000
000007F00000
000007F00000
000007F00000
000007F00000
000007F00000
000007F00000
000007F00000
000007F00000
000007F00000
000007F00000
000007F00000
000007F00000
000007F00000
000007F00000
000000000000
000000000000
000000000000
000000000000
000000000000
000000000000
000000000000
000000000000
FFFFFFFFFFFF
FFFFFFFFFFFF
FFFFFFFFFFFF
FFFFFFFFFFFF
FFFFFFFFFFFF
FFFFFFFFFFFF
FFFFFFFFFFFF
ENDCHAR
STARTCHAR 00B2
ENCODING 178
SWIDTH 330 0
DWIDTH 33 0
BBX 31 43 1 28
BITMAP
001FF800
00FFFF00
01FFFF80
07FFFFE0
0FFFFFF0
0FFC3FF0
1FE007F8
1FC003FC
3F8001FC
3F0000FC
3F0000FE
7F0000FE
7E0000FE
7E0000FE
7E0000FE
000000FC
000001FC
000001FC
000003F8
000007F8
00001FF0
00007FE0
0001FFC0
0003FF80
000FFE00
003FF800
00FFF000
01FFC000
03FF0000
07FC0000
0FF00000
1FE00000
3FC00000
3F800000
7F800000
7F000000
7F000000
7FFFFFFC
FFFFFFFC
FFFFFFFC
FFFFFFFC
FFFFFFFC
FFFFFFFC
ENDCHAR
STARTCHAR 00B3
ENCODING 179
SWIDTH 330 0
DWIDTH 33 0
BBX 30 44 1 27
BITMAP
003FF000
01FFFE00
03FFFF00
0FFFFFC0
0FFFFFE0
1FF8FFE0
3FC00FF0
3F8007F0
3F0003F8
7E0003F8
7E0003F8
7E0001F8
7E0001F8
7E0001F8
000003F8
000003F0
000007F0
00001FE0
000FFFC0
000FFF80
000FFE00
000FFF80
000FFFE0
0000FFF0
000007F8
000003F8
000001FC
000001FC
000000FC
000000FC
FC0000FC
FC0000FC
FC0000FC
FE0000FC
FE0001FC
7F0001F8
7F0003F8
7FC00FF8
3FF87FF0
1FFFFFE0
0FFFFFC0
07FFFF00
01FFFE00
003FE000
ENDCHAR
STARTCHAR 00B4
ENCODING 180
SWIDTH 330 0
DWIDTH 33 0
BBX 21 15 9 59
BITMAP
007FF8
007FF0
00FFE0
00FFC0
01FF80
03FF00
03FE00
07FC00
0FF800
0FF000
1FE000
3FC000
3F8000
7F0000
FE0000
ENDCHAR
STARTCHAR 00B5
ENCODING 181
SWIDTH 560 0
DWIDTH 56 0
BBX 47 74 7 -22
BITMAP
FF0000007F80
FF0000007F80
FF0000007F80
FF0000007F80
FF0000007F80
FF0000007F80
FF0000007F80
FF0000007F80
FF0000007F80
FF0000007F80
FF0000007F80
FF0000007F80
FF0000007F80
FF0000007F80
FF0000007F80
FF0000007F80
FF0000007F80
FF0000007F80
FF0000007F80
FF0000007F80
FF0000007F80
FF0000007F80
FF0000007F80
FF0000007F80
FF0000007F80
FF0000007F80
FF0000007F80
FF0000007F80
FF0000007F80
FF0000007F80
FF0000007F80
FF0000007F80
FF0000007F80
FF0000007F80
FF000000FF80
FF000000FF80
FF000000FF80
FF000001FF80
FF000001FF80
FF000001FF80
FF800003FF80
FF800007FF80
FFC0000FFF80
FFC0001FFF80
FFE0003FFF80
FFF800FFFFC0
FFFF07FF7FE0
FFFFFFFF7FFE
FFFFFFFE7FFE
FFFFFFFC3FFE
FFFFFFF03FFE
FFFFFFE01FFE
FF3FFF800FFE
FF0FF80003FC
FF0000000000
FF0000000000
FF0000000000
FF0000000000
FF0000000000
FF0000000000
FF0000000000
FF0000000000
FF0000000000
FF0000000000
FF0000000000
FF0000000000
FF0000000000
FF0000000000
FF0000000000
FF0000000000
FF0000000000
FF0000000000
FF0000000000
FF0000000000
ENDCHAR
STARTCHAR 00B6
ENCODING 182
SWIDTH 540 0
DWIDTH 54 0
BBX 47 91 5 -18
BITMAP
00003FFFFFFE
0003FFFFFFFE
000FFFFFFFFE
003FFFFFFFFE
007FFFFFFFFE
00FFFFFFFFFE
01FFFFE01FC0
03FFFFE01FC0
07FFFFE01FC0
0FFFFFE01FC0
0FFFFFE01FC0
1FFFFFE01FC0
3FFFFFE01FC0
3FFFFFE01FC0
3FFFFFE01FC0
7FFFFFE01FC0
7FFFFFE01FC0
7FFFFFE01FC0
FFFFFFE01FC0
FFFFFFE01FC0
FFFFFFE01FC0
FFFFFFE01FC0
FFFFFFE01FC0
FFFFFFE01FC0
FFFFFFE01FC0
FFFFFFE01FC0
FFFFFFE01FC0
FFFFFFE01FC0
FFFFFFE01FC0
FFFFFFE01FC0
7FFFFFE01FC0
7FFFFFE01FC0
7FFFFFE01FC0
3FFFFFE01FC0
3FFFFFE01FC0
3FFFFFE01FC0
1FFFFFE01FC0
0FFFFFE01FC0
0FFFFFE01FC0
07FFFFE01FC0
03FFFFE01FC0
01FFFFE01FC0
00FFFFE01FC0
007FFFE01FC0
001FFFE01FC0
0007FFE01FC0
0000FFE01FC0
00000FE01FC0
00000FE01FC0
00000FE01FC0
00000FE01FC0
00000FE01FC0
00000FE01FC0
00000FE01FC0
00000FE01FC0
00000FE01FC0
00000FE01FC0
00000FE01FC0
00000FE01FC0
00000FE01FC0
00000FE01FC0
00000FE01FC0
00000FE01FC0
00000FE01FC0
00000FE01FC0
00000FE01FC0
00000FE01FC0
00000FE01FC0
00000FE01FC0
00000FE01FC0
00000FE01FC0
00000FE01FC0
00000FE01FC0
00000FE01FC0
00000FE01FC0
00000FE01FC0
00000FE01FC0
00000FE01FC0
00000FE01FC0
00000FE01FC0
00000FE01FC0
00000FE01FC0
00000FE01FC0
00000FE01FC0
00000FE01FC0
00000FE01FC0
00000FE01FC0
00000FE01FC0
00000FE01FC0
00000FE01FC0
00000FE01FC0
ENDCHAR
STARTCHAR 00B7
ENCODING 183
SWIDTH 280 0
DWIDTH 28 0
BBX 10 10 11 23
BITMAP
FFC0
FFC0
FFC0
FFC0
FFC0
FFC0
FFC0
FFC0
FFC0
FFC0
ENDCHAR
STARTCHAR 00B8
ENCODING 184
SWIDTH 330 0
DWIDTH 33 0
BBX 25 21 4 -21
BITMAP
000F0000
000F0000
001E0000
001E0000
003C0000
003D8000
003FFC00
007FFE00
007FFF00
0041FF00
0000FF80
00007F80
00007F80
00007F80
30007F00
7C00FF00
7F03FE00
FFFFFE00
3FFFFC00
0FFFF000
01FF8000
ENDCHAR
STARTCHAR 00B9
ENCODING 185
SWIDTH 330 0
DWIDTH 33 0
BBX 16 43 5 28
BITMAP
000F
000F
001F
001F
003F
003F
007F
01FF
FFFF
FFFF
FFFF
FFFF
FFFF
003F
003F
003F
003F
003F
003F
003F
003F
003F
003F
003F
003F
003F
003F
003F
003F
003F
003F
003F
003F
003F
003F
003F
003F
003F
003F
003F
003F
003F
003F
ENDCHAR
STARTCHAR 00BA
ENCODING 186
SWIDTH 370 0
DWIDTH 37 0
BBX 28 44 4 30
BITMAP
003FC000
01FFF800
03FFFE00
07FFFF00
0FFFFF80
1FF0FFC0
3FC01FC0
3F800FE0
7F000FE0
7E0007E0
7E0007F0
7E0003F0
FC0003F0
FC0003F0
FC0003F0
FC0001F0
FC0001F0
FC0001F0
FC0001F0
FC0001F0
FC0003F0
FC0003F0
7E0003F0
7E0003F0
7E0007E0
7F0007E0
3F800FE0
3FC01FC0
1FF07FC0
1FFFFF80
0FFFFF00
07FFFE00
01FFF800
007FE000
00000000
00000000
00000000
00000000
00000000
7FFFFFE0
7FFFFFE0
7FFFFFE0
7FFFFFE0
7FFFFFE0
ENDCHAR
STARTCHAR 00BB
ENCODING 187
SWIDTH 560 0
DWIDTH 56 0
BBX 35 32 10 12
BITMAP
8000080000
E0000E0000
F0000F0000
F8000F8000
FE000FC000
FF000FF000
FF800FF800
FFC00FFC00
7FF007FF00
3FF803FF80
0FFC00FFC0
07FE007FE0
03FE003FE0
00FE001FE0
007E0007E0
003E0003E0
003E0003E0
00FE000FE0
01FE001FE0
03FE003FE0
0FFE00FFE0
1FFC01FF80
3FF003FF00
7FE00FFE00
FFC00FFC00
FF800FF000
FE000FE000
FC000FC000
F8000F8000
E0000E0000
C0000C0000
8000080000
ENDCHAR
STARTCHAR 00BC
ENCODING 188
SWIDTH 830 0
DWIDTH 83 0
BBX 78 73 3 -2
BITMAP
001F00000000003E0000
001F00000000007E0000
001F0000000000FC0000
003F0000000000F80000
003F0000000001F80000
007F0000000003F00000
00FF0000000003F00000
03FF0000000007E00000
FFFF0000000007C00000
FFFF000000000FC00000
FFFF000000001F800000
FFFF000000001F800000
FFFF000000003F000000
007F000000007E000000
007F000000007E000000
007F00000000FC000000
007F00000000F8000000
007F00000001F8000000
007F00000003F0000000
007F00000003F0000000
007F00000007E0000000
007F00000007C0000000
007F0000000FC0000000
007F0000001F80000000
007F0000001F00000000
007F0000003F00000000
007F0000007E00000000
007F0000007E00000000
007F000000FC00001F00
007F000000F800003F00
007F000001F800003F00
007F000003F000007F00
007F000003F00000FF00
007F000007E00001FF00
007F00000FC00003FF00
007F00000FC00003FF00
007F00001F800007FF00
007F00001F00000FFF00
007F00003F00001FFF00
007F00007E00001FFF00
007F00007E00003F7F00
007F0000FC00007E7F00
007F0000F80000FE7F00
00000001F80000FC7F00
00000003F00001F87F00
00000003E00003F07F00
00000007E00007F07F00
0000000FC00007E07F00
0000000FC0000FC07F00
0000001F80001F807F00
0000001F00003F807F00
0000003F00007F007F00
0000007E00007E007F00
0000007C0000FC007F00
000000FC0001FC007F00
000001F80001F8007F00
000001F80001FFFFFFFC
000003F00001FFFFFFFC
000003E00001FFFFFFFC
000007E00001FFFFFFFC
00000FC00001FFFFFFFC
00000FC0000000007F00
00001F80000000007F00
00003F00000000007F00
00003F00000000007F00
00007E00000000007F00
00007C00000000007F00
0000FC00000000007F00
0001F800000000007F00
0001F800000000007F00
0003F000000000007F00
0003E000000000000000
0007E000000000000000
ENDCHAR
STARTCHAR 00BD
ENCODING 189
SWIDTH 830 0
DWIDTH 83 0
BBX 78 73 3 -2
BITMAP
001F0000000001F80000
001F0000000001F00000
001F0000000003F00000
003F0000000007E00000
003F0000000007C00000
007F000000000FC00000
00FF000000001F800000
01FF000000001F800000
7FFF000000003F000000
FFFF000000003E000000
FFFF000000007E000000
FFFF00000000FC000000
FFFF00000000FC000000
007F00000001F8000000
007F00000003F0000000
007F00000003F0000000
007F00000007E0000000
007F00000007C0000000
007F0000000FC0000000
007F0000001F80000000
007F0000001F80000000
007F0000003F00000000
007F0000003E00000000
007F0000007E00000000
007F000000FC00000000
007F000000F800000000
007F000001F800000000
007F000003F000000000
007F000003F000000000
007F000007E0007FF800
007F000007C001FFFE00
007F00000FC007FFFF80
007F00001F800FFFFFC0
007F00001F001FFFFFE0
007F00003F003FF03FF0
007F00007E003FC00FF0
007F00007E007F8007F8
007F0000FC007F0003F8
007F0000F8007E0001FC
007F0001F8007E0001FC
007F0003F000FE0001FC
007F0003E000FE0001FC
007F0007E000FC0001FC
0000000FC000FC0001FC
0000000FC000000001F8
0000001F8000000003F8
0000001F0000000007F8
0000003F000000000FF0
0000007E000000001FE0
0000007E000000007FC0
000000FC00000001FFC0
000001F800000007FF00
000001F80000000FFE00
000003F00000003FF800
000003E0000000FFE000
000007E0000001FF8000
00000FC0000007FE0000
00000FC000000FF80000
00001F8000001FF00000
00003F0000003FC00000
00003F0000003F800000
00007E0000007F000000
00007C0000007F000000
0000FC000000FE000000
0001F8000000FE000000
0001F8000000FFFFFFFC
0003F0000000FFFFFFFC
0003E0000001FFFFFFFC
0007E0000001FFFFFFFC
000FC0000001FFFFFFFC
000F80000001FFFFFFFC
001F8000000000000000
003F0000000000000000
ENDCHAR
STARTCHAR 00BE
ENCODING 190
SWIDTH 830 0
DWIDTH 83 0
BBX 78 73 3 -2
BITMAP
003FF0000000000FC000
01FFFC000000000F8000
03FFFF000000001F8000
0FFFFF800000003F0000
1FFFFFC00000003F0000
1FF8FFE00000007E0000
3FC00FF00000007C0000
3F8007F0000000FC0000
7F0003F0000001F80000
7E0003F8000001F80000
7E0003F8000003F00000
7E0003F8000007E00000
7E0003F8000007E00000
FE0003F800000FC00000
000003F000000F800000
000003F000001F800000
000007F000003F000000
00001FE000003F000000
001FFFC000007E000000
001FFF8000007C000000
001FFE000000FC000000
001FFF800001F8000000
001FFFE00001F0000000
0000FFF00003F0000000
00000FF80007E0000000
000003F80007E0000000
000001FC000FC0000000
000001FC000F80000000
000000FC001F80001F00
000000FC003F00003F00
FC0000FC003F00007F00
FC0000FC007E00007F00
FC0000FC00FC0000FF00
FC0001FC00FC0001FF00
FE0001FC01F80003FF00
FE0003F801F00003FF00
7F0003F803F00007FF00
7F800FF007E0000FFF00
3FF07FF007E0001FFF00
1FFFFFE00FC0003FFF00
0FFFFFC00F80003F7F00
07FFFF001F80007E7F00
01FFFC003F0000FC7F00
003FE0003E0001FC7F00
000000007E0001F87F00
00000000FC0003F07F00
00000000FC0007E07F00
00000001F8000FE07F00
00000001F0000FC07F00
00000003F0001F807F00
00000007E0003F007F00
00000007E0007F007F00
0000000FC000FE007F00
0000001F8000FC007F00
0000001F8001F8007F00
0000003F0003F8007F00
0000003E0003FFFFFFFC
0000007E0003FFFFFFFC
000000FC0003FFFFFFFC
000000FC0003FFFFFFFC
000001F80003FFFFFFFC
000001F0000000007F00
000003F0000000007F00
000007E0000000007F00
000007C0000000007F00
00000FC0000000007F00
00001F80000000007F00
00001F80000000007F00
00003F00000000007F00
00003E00000000007F00
00007E00000000007F00
0000FC00000000000000
0000FC00000000000000
ENDCHAR
STARTCHAR 00BF
ENCODING 191
SWIDTH 610 0
DWIDTH 61 0
BBX 43 74 10 -22
BITMAP
00007FE00000
00007FE00000
00007FE00000
00007FE00000
00007FE00000
00007FE00000
00007FE00000
00007FE00000
00007FE00000
00007FE00000
000000000000
000000000000
000000000000
000000000000
000000000000
000000000000
000000000000
000000000000
000000000000
000000000000
00007FE00000
00007FE00000
00007FE00000
00007FE00000
00007FE00000
00007FE00000
00007FC00000
00007FC00000
00007FC00000
0000FFC00000
0000FFC00000
0001FF800000
0003FF800000
0007FF000000
000FFE000000
001FFC000000
003FF8000000
007FF0000000
00FFE0000000
01FFC0000000
03FF80000000
07FF00000000
0FFE00000000
1FFC00000000
1FF800000000
3FF000000000
7FE000000000
7FE000000000
7FC000000000
FFC000000000
FF8000003FE0
FF8000003FE0
FF8000003FE0
FF8000003FE0
FF8000003FE0
FF8000003FE0
FF8000003FC0
FF8000003FC0
FF8000007FC0
FFC000007FC0
FFC00000FF80
7FE00000FF80
7FF00001FF80
7FF80003FF00
3FFE0007FF00
1FFF803FFE00
1FFFFFFFFC00
0FFFFFFFFC00
07FFFFFFF800
03FFFFFFF000
00FFFFFFC000
003FFFFF0000
000FFFFC0000
0000FF800000
ENDCHAR
STARTCHAR 00C0
ENCODING 192
SWIDTH 670 0
DWIDTH 67 0
BBX 63 94 2 0
BITMAP
00003FF800000000
00001FF800000000
00000FFC00000000
000007FE00000000
000003FE00000000
000001FF00000000
000000FF80000000
0000007F80000000
0000003FC0000000
0000001FE0000000
0000000FE0000000
00000007F0000000
00000003F8000000
00000001F8000000
00000000FC000000
0000000000000000
0000000000000000
0000000000000000
0000000000000000
0000000000000000
0000000000000000
0000003FFC000000
0000007FFC000000
0000007FFE000000
000000FFFE000000
000000FFFE000000
000000FFFF000000
000001FFFF000000
000001FFFF000000
000001FFFF800000
000003FFFF800000
000003FEFF800000
000003FEFFC00000
000007FEFFC00000
000007FC7FC00000
000007FC7FE00000
00000FFC7FE00000
00000FF83FE00000
00001FF83FF00000
00001FF83FF00000
00001FF01FF80000
00003FF01FF80000
00003FE01FF80000
00003FE00FFC0000
00007FE00FFC0000
00007FC00FFC0000
00007FC007FE0000
0000FFC007FE0000
0000FF8007FE0000
0000FF8003FF0000
0001FF8003FF0000
0001FF0003FF0000
0003FF0001FF8000
0003FE0001FF8000
0003FE0000FF8000
0007FE0000FFC000
0007FC0000FFC000
0007FC00007FE000
000FFC00007FE000
000FF800007FE000
000FF800003FF000
001FF800003FF000
001FF000003FF000
001FF000001FF800
003FFFFFFFFFF800
003FFFFFFFFFF800
007FFFFFFFFFFC00
007FFFFFFFFFFC00
007FFFFFFFFFFC00
00FFFFFFFFFFFE00
00FFFFFFFFFFFE00
00FFFFFFFFFFFE00
01FF80000003FF00
01FF80000003FF00
01FF00000003FF00
03FF00000001FF80
03FF00000001FF80
03FE00000001FFC0
07FE00000000FFC0
07FE00000000FFC0
07FC00000000FFE0
0FFC000000007FE0
0FFC000000007FE0
1FF8000000007FF0
1FF8000000003FF0
1FF8000000003FF0
3FF0000000003FF8
3FF0000000001FF8
3FF0000000001FF8
7FE0000000001FFC
7FE0000000000FFC
7FC0000000000FFC
FFC0000000000FFE
FFC00000000007FE
ENDCHAR
STARTCHAR 00C1
ENCODING 193
SWIDTH 670 0
DWIDTH 67 0
BBX 63 94 2 0
BITMAP
000000001FFC0000
000000003FF80000
000000007FF00000
000000007FE00000
00000000FFC00000
00000001FF800000
00000001FF000000
00000003FE000000
00000007FC000000
00000007F8000000
0000000FF0000000
0000000FE0000000
0000001FC0000000
0000003F80000000
0000003F00000000
0000000000000000
0000000000000000
0000000000000000
0000000000000000
0000000000000000
0000000000000000
0000003FFC000000
0000007FFC000000
0000007FFE000000
000000FFFE000000
000000FFFE000000
000000FFFF000000
000001FFFF000000
000001FFFF000000
000001FFFF800000
000003FFFF800000
000003FEFF800000
000003FEFFC00000
000007FEFFC00000
000007FC7FC00000
000007FC7FE00000
00000FFC7FE00000
00000FF83FE00000
00001FF83FF00000
00001FF83FF00000
00001FF01FF80000
00003FF01FF80000
00003FE01FF80000
00003FE00FFC0000
00007FE00FFC0000
00007FC00FFC0000
00007FC007FE0000
0000FFC007FE0000
0000FF8007FE0000
0000FF8003FF0000
0001FF8003FF0000
0001FF0003FF0000
0003FF0001FF8000
0003FE0001FF8000
0003FE0000FF8000
0007FE0000FFC000
0007FC0000FFC000
0007FC00007FE000
000FFC00007FE000
000FF800007FE000
000FF800003FF000
001FF800003FF000
001FF000003FF000
001FF000001FF800
003FFFFFFFFFF800
003FFFFFFFFFF800
007FFFFFFFFFFC00
007FFFFFFFFFFC00
007FFFFFFFFFFC00
00FFFFFFFFFFFE00
00FFFFFFFFFFFE00
00FFFFFFFFFFFE00
01FF80000003FF00
01FF80000003FF00
01FF00000003FF00
03FF00000001FF80
03FF00000001FF80
03FE00000001FFC0
07FE00000000FFC0
07FE00000000FFC0
07FC00000000FFE0
0FFC000000007FE0
0FFC000000007FE0
1FF8000000007FF0
1FF8000000003FF0
1FF8000000003FF0
3FF0000000003FF8
3FF0000000001FF8
3FF0000000001FF8
7FE0000000001FFC
7FE0000000000FFC
7FC0000000000FFC
FFC0000000000FFE
FFC00000000007FE
ENDCHAR
STARTCHAR 00C2
ENCODING 194
SWIDTH 670 0
DWIDTH 67 0
BBX 63 94 2 0
BITMAP
0000003FF8000000
0000003FF8000000
0000007FFC000000
000000FFFE000000
000000FFFE000000
000001FEFF000000
000001FEFF000000
000003FC7F800000
000007F83FC00000
000007F01FC00000
00000FE00FE00000
00001FC007F00000
00001FC007F00000
00003F8003F80000
00007F0001FC0000
0000000000000000
0000000000000000
0000000000000000
0000000000000000
0000000000000000
0000000000000000
0000003FFC000000
0000007FFC000000
0000007FFE000000
000000FFFE000000
000000FFFE000000
000000FFFF000000
000001FFFF000000
000001FFFF000000
000001FFFF800000
000003FFFF800000
000003FEFF800000
000003FEFFC00000
000007FEFFC00000
000007FC7FC00000
000007FC7FE00000
00000FFC7FE00000
00000FF83FE00000
00001FF83FF00000
00001FF83FF00000
00001FF01FF80000
00003FF01FF80000
00003FE01FF80000
00003FE00FFC0000
00007FE00FFC0000
00007FC00FFC0000
00007FC007FE0000
0000FFC007FE0000
0000FF8007FE0000
0000FF8003FF0000
0001FF8003FF0000
0001FF0003FF0000
0003FF0001FF8000
0003FE0001FF8000
0003FE0000FF8000
0007FE0000FFC000
0007FC0000FFC000
0007FC00007FE000
000FFC00007FE000
000FF800007FE000
000FF800003FF000
001FF800003FF000
001FF000003FF000
001FF000001FF800
003FFFFFFFFFF800
003FFFFFFFFFF800
007FFFFFFFFFFC00
007FFFFFFFFFFC00
007FFFFFFFFFFC00
00FFFFFFFFFFFE00
00FFFFFFFFFFFE00
00FFFFFFFFFFFE00
01FF80000003FF00
01FF80000003FF00
01FF00000003FF00
03FF00000001FF80
03FF00000001FF80
03FE00000001FFC0
07FE00000000FFC0
07FE00000000FFC0
07FC00000000FFE0
0FFC000000007FE0
0FFC000000007FE0
1FF8000000007FF0
1FF8000000003FF0
1FF8000000003FF0
3FF0000000003FF8
3FF0000000001FF8
3FF0000000001FF8
7FE0000000001FFC
7FE0000000000FFC
7FC0000000000FFC
FFC0000000000FFE
FFC00000000007FE
ENDCHAR
STARTCHAR 00C3
ENCODING 195
SWIDTH 670 0
DWIDTH 67 0
BBX 63 92 2 0
BITMAP
000001C0007E0000
000007FC007E0000
00001FFF00FE0000
00001FFFE0FE0000
00003FFFFFFC0000
00007FFFFFFC0000
00007FFFFFF80000
00007E0FFFF80000
0000FC03FFF00000
0000FC007FE00000
0000FC000F000000
0000000000000000
0000000000000000
0000000000000000
0000000000000000
0000000000000000
0000000000000000
0000000000000000
0000000000000000
0000003FFC000000
0000007FFC000000
0000007FFE000000
000000FFFE000000
000000FFFE000000
000000FFFF000000
000001FFFF000000
000001FFFF000000
000001FFFF800000
000003FFFF800000
000003FEFF800000
000003FEFFC00000
000007FEFFC00000
000007FC7FC00000
000007FC7FE00000
00000FFC7FE00000
00000FF83FE00000
00001FF83FF00000
00001FF83FF00000
00001FF01FF80000
00003FF01FF80000
00003FE01FF80000
00003FE00FFC0000
00007FE00FFC0000
00007FC00FFC0000
00007FC007FE0000
0000FFC007FE0000
0000FF8007FE0000
0000FF8003FF0000
0001FF8003FF0000
0001FF0003FF0000
0003FF0001FF8000
0003FE0001FF8000
0003FE0000FF8000
0007FE0000FFC000
0007FC0000FFC000
0007FC00007FE000
000FFC00007FE000
000FF800007FE000
000FF800003FF000
001FF800003FF000
001FF000003FF000
001FF000001FF800
003FFFFFFFFFF800
003FFFFFFFFFF800
007FFFFFFFFFFC00
007FFFFFFFFFFC00
007FFFFFFFFFFC00
00FFFFFFFFFFFE00
00FFFFFFFFFFFE00
00FFFFFFFFFFFE00
01FF80000003FF00
01FF80000003FF00
01FF00000003FF00
03FF00000001FF80
03FF00000001FF80
03FE00000001FFC0
07FE00000000FFC0
07FE00000000FFC0
07FC00000000FFE0
0FFC000000007FE0
0FFC000000007FE0
1FF8000000007FF0
1FF8000000003FF0
1FF8000000003FF0
3FF0000000003FF8
3FF0000000001FF8
3FF0000000001FF8
7FE0000000001FFC
7FE0000000000FFC
7FC0000000000FFC
FFC0000000000FFE
FFC00000000007FE
ENDCHAR
STARTCHAR 00C4
ENCODING 196
SWIDTH 670 0
DWIDTH 67 0
BBX 63 91 2 0
BITMAP
00003FF83FF80000
00003FF83FF80000
00003FF83FF80000
00003FF83FF80000
00003FF83FF80000
00003FF83FF80000
00003FF83FF80000
00003FF83FF80000
00003FF83FF80000
00003FF83FF80000
0000000000000000
0000000000000000
0000000000000000
0000000000000000
0000000000000000
0000000000000000
0000000000000000
0000000000000000
0000003FFC000000
0000007FFC000000
0000007FFE000000
000000FFFE000000
000000FFFE000000
000000FFFF000000
000001FFFF000000
000001FFFF000000
000001FFFF800000
000003FFFF800000
000003FEFF800000
000003FEFFC00000
000007FEFFC00000
000007FC7FC00000
000007FC7FE00000
00000FFC7FE00000
00000FF83FE00000
00001FF83FF00000
00001FF83FF00000
00001FF01FF80000
00003FF01FF80000
00003FE01FF80000
00003FE00FFC0000
00007FE00FFC0000
00007FC00FFC0000
00007FC007FE0000
0000FFC007FE0000
0000FF8007FE0000
0000FF8003FF0000
0001FF8003FF0000
0001FF0003FF0000
0003FF0001FF8000
0003FE0001FF8000
0003FE0000FF8000
0007FE0000FFC000
0007FC0000FFC000
0007FC00007FE000
000FFC00007FE000
000FF800007FE000
000FF800003FF000
001FF800003FF000
001FF000003FF000
001FF000001FF800
003FFFFFFFFFF800
003FFFFFFFFFF800
007FFFFFFFFFFC00
007FFFFFFFFFFC00
007FFFFFFFFFFC00
00FFFFFFFFFFFE00
00FFFFFFFFFFFE00
00FFFFFFFFFFFE00
01FF80000003FF00
01FF80000003FF00
01FF00000003FF00
03FF00000001FF80
03FF00000001FF80
03FE00000001FFC0
07FE00000000FFC0
07FE00000000FFC0
07FC00000000FFE0
0FFC000000007FE0
0FFC000000007FE0
1FF8000000007FF0
1FF8000000003FF0
1FF8000000003FF0
3FF0000000003FF8
3FF0000000001FF8
3FF0000000001FF8
7FE0000000001FFC
7FE0000000000FFC
7FC0000000000FFC
FFC0000000000FFE
FFC00000000007FE
ENDCHAR
STARTCHAR 00C5
ENCODING 197
SWIDTH 670 0
DWIDTH 67 0
BBX 63 95 2 0
BITMAP
0000000FE0000000
0000003FF8000000
0000007FFC000000
000000FFFE000000
000000F83E000000
000001F01F000000
000001F01F000000
000001E00F000000
000001E00F000000
000001E00F000000
000001F01F000000
000001F83F000000
000000FEFE000000
000000FFFE000000
0000007FFC000000
0000001FF0000000
00000007C0000000
0000000000000000
0000000000000000
0000000000000000
0000000000000000
0000000000000000
0000003FFC000000
0000007FFC000000
0000007FFE000000
000000FFFE000000
000000FFFE000000
000000FFFF000000
000001FFFF000000
000001FFFF000000
000001FFFF800000
000003FFFF800000
000003FEFF800000
000003FEFFC00000
000007FEFFC00000
000007FC7FC00000
000007FC7FE00000
00000FFC7FE00000
00000FF83FE00000
00001FF83FF00000
00001FF83FF00000
00001FF01FF80000
00003FF01FF80000
00003FE01FF80000
00003FE00FFC0000
00007FE00FFC0000
00007FC00FFC0000
00007FC007FE0000
0000FFC007FE0000
0000FF8007FE0000
0000FF8003FF0000
0001FF8003FF0000
0001FF0003FF0000
0003FF0001FF8000
0003FE0001FF8000
0003FE0000FF8000
0007FE0000FFC000
0007FC0000FFC000
0007FC00007FE000
000FFC00007FE000
000FF800007FE000
000FF800003FF000
001FF800003FF000
001FF000003FF000
001FF000001FF800
003FFFFFFFFFF800
003FFFFFFFFFF800
007FFFFFFFFFFC00
007FFFFFFFFFFC00
007FFFFFFFFFFC00
00FFFFFFFFFFFE00
00FFFFFFFFFFFE00
00FFFFFFFFFFFE00
01FF80000003FF00
01FF80000003FF00
01FF00000003FF00
03FF00000001FF80
03FF00000001FF80
03FE00000001FFC0
07FE00000000FFC0
07FE00000000FFC0
07FC00000000FFE0
0FFC000000007FE0
0FFC000000007FE0
1FF8000000007FF0
1FF8000000003FF0
1FF8000000003FF0
3FF0000000003FF8
3FF0000000001FF8
3FF0000000001FF8
7FE0000000001FFC
7FE0000000000FFC
7FC0000000000FFC
FFC0000000000FFE
FFC00000000007FE
ENDCHAR
STARTCHAR 00C6
ENCODING 198
SWIDTH 1000 0
DWIDTH 100 0
BBX 94 73 1 0
BITMAP
00000003FFFFFFFFFFFFFFF0
00000007FFFFFFFFFFFFFFF0
00000007FFFFFFFFFFFFFFF0
00000007FFFFFFFFFFFFFFF0
0000000FFFFFFFFFFFFFFFF0
0000000FFFFFFFFFFFFFFFF0
0000001FFFFFFFFFFFFFFFF0
0000001FFFFFFFFFFFFFFFF0
0000001FF003FE0000000000
0000003FE003FE0000000000
0000003FE003FE0000000000
0000007FC003FE0000000000
0000007FC003FE0000000000
000000FFC003FE0000000000
000000FF8003FE0000000000
000000FF8003FE0000000000
000001FF8003FE0000000000
000001FF0003FE0000000000
000003FF0003FE0000000000
000003FE0003FE0000000000
000003FE0003FE0000000000
000007FE0003FE0000000000
000007FC0003FE0000000000
00000FFC0003FE0000000000
00000FF80003FE0000000000
00000FF80003FE0000000000
00001FF80003FE0000000000
00001FF00003FE0000000000
00003FF00003FE0000000000
00003FE00003FE0000000000
00003FE00003FE0000000000
00007FE00003FE0000000000
00007FC00003FFFFFFFFFFC0
0000FFC00003FFFFFFFFFFC0
0000FF800003FFFFFFFFFFC0
0001FF800003FFFFFFFFFFC0
0001FF800003FFFFFFFFFFC0
0001FF000003FFFFFFFFFFC0
0003FF000003FFFFFFFFFFC0
0003FE000003FFFFFFFFFFC0
0007FE000003FE0000000000
0007FE000003FE0000000000
0007FC000003FE0000000000
000FFFFFFFFFFE0000000000
000FFFFFFFFFFE0000000000
001FFFFFFFFFFE0000000000
001FFFFFFFFFFE0000000000
001FFFFFFFFFFE0000000000
003FFFFFFFFFFE0000000000
003FFFFFFFFFFE0000000000
007FFFFFFFFFFE0000000000
007FE0000003FE0000000000
00FFC0000003FE0000000000
00FFC0000003FE0000000000
00FFC0000003FE0000000000
01FF80000003FE0000000000
01FF80000003FE0000000000
03FF00000003FE0000000000
03FF00000003FE0000000000
03FF00000003FE0000000000
07FE00000003FE0000000000
07FE00000003FE0000000000
0FFC00000003FE0000000000
0FFC00000003FE0000000000
0FFC00000003FE0000000000
1FF800000003FFFFFFFFFFFC
1FF800000003FFFFFFFFFFFC
3FF800000003FFFFFFFFFFFC
3FF000000003FFFFFFFFFFFC
3FF000000003FFFFFFFFFFFC
7FE000000003FFFFFFFFFFFC
7FE000000003FFFFFFFFFFFC
FFE000000003FFFFFFFFFFFC
ENDCHAR
STARTCHAR 00C7
ENCODING 199
SWIDTH 720 0
DWIDTH 72 0
BBX 63 95 5 -21
BITMAP
0000001FFF000000
000003FFFFF00000
00000FFFFFFE0000
00007FFFFFFF8000
0000FFFFFFFFC000
0003FFFFFFFFF000
0007FFFFFFFFF800
000FFFFFFFFFFC00
001FFFF00FFFFE00
003FFF0000FFFF00
007FFC00001FFF00
00FFF0000007FF80
01FFE0000003FF80
01FFC0000001FFC0
03FF80000000FFC0
07FF000000007FE0
07FE000000007FE0
0FFC000000003FF0
0FFC000000003FF0
1FF8000000001FF0
1FF8000000001FF8
1FF0000000001FF8
3FF0000000001FF8
3FE0000000000FF8
3FE0000000000000
7FE0000000000000
7FE0000000000000
7FC0000000000000
7FC0000000000000
7FC0000000000000
FFC0000000000000
FFC0000000000000
FF80000000000000
FF80000000000000
FF80000000000000
FF80000000000000
FF80000000000000
FF80000000000000
FF80000000000000
FF80000000000000
FF80000000000000
FF80000000000000
FF80000000000000
FF80000000000000
FFC0000000000000
FFC0000000000000
FFC0000000000000
7FC00000000007FE
7FC00000000007FE
7FE00000000007FC
7FE00000000007FC
7FE0000000000FFC
3FE0000000000FFC
3FF0000000000FFC
3FF0000000000FF8
1FF8000000001FF8
1FF8000000001FF8
0FFC000000003FF8
0FFC000000003FF0
07FE000000007FF0
07FF000000007FE0
03FF80000000FFE0
03FFC0000001FFC0
01FFE0000003FFC0
00FFF0000007FF80
00FFFC00001FFF80
007FFF00007FFF00
003FFFE003FFFE00
001FFFFFFFFFFC00
000FFFFFFFFFF800
0007FFFFFFFFF000
0001FFFFFFFFC000
0000FFFFFFFF8000
00003FFFFFFE0000
000007FFFFF00000
0000007FFF000000
0000000780000000
0000000700000000
0000000F00000000
0000000FF0000000
0000001FFE000000
0000001FFF800000
0000003FFFC00000
000000107FC00000
000000003FC00000
000000001FC00000
000000001FC00000
000000001FC00000
000018003FC00000
00001E003FC00000
00003FC0FF800000
00003FFFFF000000
00001FFFFE000000
000003FFFC000000
0000007FE0000000
ENDCHAR
STARTCHAR 00C8
ENCODING 200
SWIDTH 670 0
DWIDTH 67 0
BBX 52 94 9 0
BITMAP
000FFE00000000
0007FF00000000
0003FF80000000
0001FF80000000
0000FFC0000000
00007FE0000000
00003FE0000000
00001FF0000000
00000FF8000000
000007F8000000
000003FC000000
000001FC000000
000000FE000000
0000007F000000
0000003F000000
00000000000000
00000000000000
00000000000000
00000000000000
00000000000000
00000000000000
FFFFFFFFFFFFE0
FFFFFFFFFFFFE0
FFFFFFFFFFFFE0
FFFFFFFFFFFFE0
FFFFFFFFFFFFE0
FFFFFFFFFFFFE0
FFFFFFFFFFFFE0
FFFFFFFFFFFFE0
FF800000000000
FF800000000000
FF800000000000
FF800000000000
FF800000000000
FF800000000000
FF800000000000
FF800000000000
FF800000000000
FF800000000000
FF800000000000
FF800000000000
FF800000000000
FF800000000000
FF800000000000
FF800000000000
FF800000000000
FF800000000000
FF800000000000
FF800000000000
FF800000000000
FF800000000000
FF800000000000
FF800000000000
FFFFFFFFFFFF80
FFFFFFFFFFFF80
FFFFFFFFFFFF80
FFFFFFFFFFFF80
FFFFFFFFFFFF80
FFFFFFFFFFFF80
FFFFFFFFFFFF80
FFFFFFFFFFFF80
FF800000000000
FF800000000000
FF800000000000
FF800000000000
FF800000000000
FF800000000000
FF800000000000
FF800000000000
FF800000000000
FF800000000000
FF800000000000
FF800000000000
FF800000000000
FF800000000000
FF800000000000
FF800000000000
FF800000000000
FF800000000000
FF800000000000
FF800000000000
FF800000000000
FF800000000000
FF800000000000
FF800000000000
FF800000000000
FFFFFFFFFFFFF0
FFFFFFFFFFFFF0
FFFFFFFFFFFFF0
FFFFFFFFFFFFF0
FFFFFFFFFFFFF0
FFFFFFFFFFFFF0
FFFFFFFFFFFFF0
FFFFFFFFFFFFF0
ENDCHAR
STARTCHAR 00C9
ENCODING 201
SWIDTH 670 0
DWIDTH 67 0
BBX 52 94 9 0
BITMAP
0000001FFC0000
0000001FF80000
0000003FF00000
0000007FE00000
0000007FC00000
000000FF800000
000001FF000000
000001FE000000
000003FC000000
000007F8000000
000007F0000000
00000FE0000000
00000FC0000000
00001F80000000
00003F00000000
00000000000000
00000000000000
00000000000000
00000000000000
00000000000000
00000000000000
FFFFFFFFFFFFE0
FFFFFFFFFFFFE0
FFFFFFFFFFFFE0
FFFFFFFFFFFFE0
FFFFFFFFFFFFE0
FFFFFFFFFFFFE0
FFFFFFFFFFFFE0
FFFFFFFFFFFFE0
FF800000000000
FF800000000000
FF800000000000
FF800000000000
FF800000000000
FF800000000000
FF800000000000
FF800000000000
FF800000000000
FF800000000000
FF800000000000
FF800000000000
FF800000000000
FF800000000000
FF800000000000
FF800000000000
FF800000000000
FF800000000000
FF800000000000
FF800000000000
FF800000000000
FF800000000000
FF800000000000
FF800000000000
FFFFFFFFFFFF80
FFFFFFFFFFFF80
FFFFFFFFFFFF80
FFFFFFFFFFFF80
FFFFFFFFFFFF80
FFFFFFFFFFFF80
FFFFFFFFFFFF80
FFFFFFFFFFFF80
FF800000000000
FF800000000000
FF800000000000
FF800000000000
FF800000000000
FF800000000000
FF800000000000
FF800000000000
FF800000000000
FF800000000000
FF800000000000
FF800000000000
FF800000000000
FF800000000000
FF800000000000
FF800000000000
FF800000000000
FF800000000000
FF800000000000
FF800000000000
FF800000000000
FF800000000000
FF800000000000
FF800000000000
FF800000000000
FFFFFFFFFFFFF0
FFFFFFFFFFFFF0
FFFFFFFFFFFFF0
FFFFFFFFFFFFF0
FFFFFFFFFFFFF0
FFFFFFFFFFFFF0
FFFFFFFFFFFFF0
FFFFFFFFFFFFF0
ENDCHAR
STARTCHAR 00CA
ENCODING 202
SWIDTH 670 0
DWIDTH 67 0
BBX 52 94 9 0
BITMAP
00000FFE000000
00000FFE000000
00001FFF000000
00003FFF000000
00003FFF800000
00007FBFC00000
0000FFBFC00000
0000FF1FE00000
0001FE0FF00000
0001FC07F00000
0003F803F80000
0007F001FC0000
0007F001FC0000
000FE000FE0000
001FC0007F0000
00000000000000
00000000000000
00000000000000
00000000000000
00000000000000
00000000000000
FFFFFFFFFFFFE0
FFFFFFFFFFFFE0
FFFFFFFFFFFFE0
FFFFFFFFFFFFE0
FFFFFFFFFFFFE0
FFFFFFFFFFFFE0
FFFFFFFFFFFFE0
FFFFFFFFFFFFE0
FF800000000000
FF800000000000
FF800000000000
FF800000000000
FF800000000000
FF800000000000
FF800000000000
FF800000000000
FF800000000000
FF800000000000
FF800000000000
FF800000000000
FF800000000000
FF800000000000
FF800000000000
FF800000000000
FF800000000000
FF800000000000
FF800000000000
FF800000000000
FF800000000000
FF800000000000
FF800000000000
FF800000000000
FFFFFFFFFFFF80
FFFFFFFFFFFF80
FFFFFFFFFFFF80
FFFFFFFFFFFF80
FFFFFFFFFFFF80
FFFFFFFFFFFF80
FFFFFFFFFFFF80
FFFFFFFFFFFF80
FF800000000000
FF800000000000
FF800000000000
FF800000000000
FF800000000000
FF800000000000
FF800000000000
FF800000000000
FF800000000000
FF800000000000
FF800000000000
FF800000000000
FF800000000000
FF800000000000
FF800000000000
FF800000000000
FF800000000000
FF800000000000
FF800000000000
FF800000000000
FF800000000000
FF800000000000
FF800000000000
FF800000000000
FF800000000000
FFFFFFFFFFFFF0
FFFFFFFFFFFFF0
FFFFFFFFFFFFF0
FFFFFFFFFFFFF0
FFFFFFFFFFFFF0
FFFFFFFFFFFFF0
FFFFFFFFFFFFF0
FFFFFFFFFFFFF0
ENDCHAR
STARTCHAR 00CB
ENCODING 203
SWIDTH 670 0
DWIDTH 67 0
BBX 52 91 9 0
BITMAP
000FFE0FFE0000
000FFE0FFE0000
000FFE0FFE0000
000FFE0FFE0000
000FFE0FFE0000
000FFE0FFE0000
000FFE0FFE0000
000FFE0FFE0000
000FFE0FFE0000
000FFE0FFE0000
00000000000000
00000000000000
00000000000000
00000000000000
00000000000000
00000000000000
00000000000000
00000000000000
FFFFFFFFFFFFE0
FFFFFFFFFFFFE0
FFFFFFFFFFFFE0
FFFFFFFFFFFFE0
FFFFFFFFFFFFE0
FFFFFFFFFFFFE0
FFFFFFFFFFFFE0
FFFFFFFFFFFFE0
FF800000000000
FF800000000000
FF800000000000
FF800000000000
FF800000000000
FF800000000000
FF800000000000
FF800000000000
FF800000000000
FF800000000000
FF800000000000
FF800000000000
FF800000000000
FF800000000000
FF800000000000
FF800000000000
FF800000000000
FF800000000000
FF800000000000
FF800000000000
FF800000000000
FF800000000000
FF800000000000
FF800000000000
FFFFFFFFFFFF80
FFFFFFFFFFFF80
FFFFFFFFFFFF80
FFFFFFFFFFFF80
FFFFFFFFFFFF80
FFFFFFFFFFFF80
FFFFFFFFFFFF80
FFFFFFFFFFFF80
FF800000000000
FF800000000000
FF800000000000
FF800000000000
FF800000000000
FF800000000000
FF800000000000
FF800000000000
FF800000000000
FF800000000000
FF800000000000
FF800000000000
FF800000000000
FF800000000000
FF800000000000
FF800000000000
FF800000000000
FF800000000000
FF800000000000
FF800000000000
FF800000000000
FF800000000000
FF800000000000
FF800000000000
FF800000000000
FFFFFFFFFFFFF0
FFFFFFFFFFFFF0
FFFFFFFFFFFFF0
FFFFFFFFFFFFF0
FFFFFFFFFFFFF0
FFFFFFFFFFFFF0
FFFFFFFFFFFFF0
FFFFFFFFFFFFF0
ENDCHAR
STARTCHAR 00CC
ENCODING 204
SWIDTH 280 0
DWIDTH 28 0
BBX 20 94 1 0
BITMAP
FFE000
7FE000
3FF000
1FF800
0FF800
07FC00
03FE00
01FE00
00FF00
007F80
003F80
001FC0
000FE0
0007E0
0003F0
000000
000000
000000
000000
000000
000000
007FC0
007FC0
007FC0
007FC0
007FC0
007FC0
007FC0
007FC0
007FC0
007FC0
007FC0
007FC0
007FC0
007FC0
007FC0
007FC0
007FC0
007FC0
007FC0
007FC0
007FC0
007FC0
007FC0
007FC0
007FC0
007FC0
007FC0
007FC0
007FC0
007FC0
007FC0
007FC0
007FC0
007FC0
007FC0
007FC0
007FC0
007FC0
007FC0
007FC0
007FC0
007FC0
007FC0
007FC0
007FC0
007FC0
007FC0
007FC0
007FC0
007FC0
007FC0
007FC0
007FC0
007FC0
007FC0
007FC0
007FC0
007FC0
007FC0
007FC0
007FC0
007FC0
007FC0
007FC0
007FC0
007FC0
007FC0
007FC0
007FC0
007FC0
007FC0
007FC0
007FC0
ENDCHAR
STARTCHAR 00CD
ENCODING 205
SWIDTH 280 0
DWIDTH 28 0
BBX 21 94 7 0
BITMAP
007FF8
007FE0
00FFC0
01FF80
01FF00
03FE00
07FC00
07F800
0FF000
0FE000
1FC000
3F8000
3F0000
7E0000
FC0000
000000
000000
000000
000000
000000
000000
1FF000
1FF000
1FF000
1FF000
1FF000
1FF000
1FF000
1FF000
1FF000
1FF000
1FF000
1FF000
1FF000
1FF000
1FF000
1FF000
1FF000
1FF000
1FF000
1FF000
1FF000
1FF000
1FF000
1FF000
1FF000
1FF000
1FF000
1FF000
1FF000
1FF000
1FF000
1FF000
1FF000
1FF000
1FF000
1FF000
1FF000
1FF000
1FF000
1FF000
1FF000
1FF000
1FF000
1FF000
1FF000
1FF000
1FF000
1FF000
1FF000
1FF000
1FF000
1FF000
1FF000
1FF000
1FF000
1FF000
1FF000
1FF000
1FF000
1FF000
1FF000
1FF000
1FF000
1FF000
1FF000
1FF000
1FF000
1FF000
1FF000
1FF000
1FF000
1FF000
1FF000
ENDCHAR
STARTCHAR 00CE
ENCODING 206
SWIDTH 280 0
DWIDTH 28 0
BBX 28 94 0 0
BITMAP
007FE000
00FFF000
00FFF800
01FFF800
01FFFC00
03FFFE00
07F9FE00
07F0FF00
0FF07F80
1FE03F80
1FC01FC0
3F801FC0
7F000FE0
7E0007F0
FE0003F0
00000000
00000000
00000000
00000000
00000000
00000000
003FE000
003FE000
003FE000
003FE000
003FE000
003FE000
003FE000
003FE000
003FE000
003FE000
003FE000
003FE000
003FE000
003FE000
003FE000
003FE000
003FE000
003FE000
003FE000
003FE000
003FE000
003FE000
003FE000
003FE000
003FE000
003FE000
003FE000
003FE000
003FE000
003FE000
003FE000
003FE000
003FE000
003FE000
003FE000
003FE000
003FE000
003FE000
003FE000
003FE000
003FE000
003FE000
003FE000
003FE000
003FE000
003FE000
003FE000
003FE000
003FE000
003FE000
003FE000
003FE000
003FE000
003FE000
003FE000
003FE000
003FE000
003FE000
003FE000
003FE000
003FE000
003FE000
003FE000
003FE000
003FE000
003FE000
003FE000
003FE000
003FE000
003FE000
003FE000
003FE000
003FE000
ENDCHAR
STARTCHAR 00CF
ENCODING 207
SWIDTH 280 0
DWIDTH 28 0
BBX 27 91 1 0
BITMAP
FFC0FFE0
FFC0FFE0
FFC0FFE0
FFC0FFE0
FFC0FFE0
FFC0FFE0
FFC0FFE0
FFC0FFE0
FFC0FFE0
FFC0FFE0
00000000
00000000
00000000
00000000
00000000
00000000
00000000
00000000
007FC000
007FC000
007FC000
007FC000
007FC000
007FC000
007FC000
007FC000
007FC000
007FC000
007FC000
007FC000
007FC000
007FC000
007FC000
007FC000
007FC000
007FC000
007FC000
007FC000
007FC000
007FC000
007FC000
007FC000
007FC000
007FC000
007FC000
007FC000
007FC000
007FC000
007FC000
007FC000
007FC000
007FC000
007FC000
007FC000
007FC000
007FC000
007FC000
007FC000
007FC000
007FC000
007FC000
007FC000
007FC000
007FC000
007FC000
007FC000
007FC000
007FC000
007FC000
007FC000
007FC000
007FC000
007FC000
007FC000
007FC000
007FC000
007FC000
007FC000
007FC000
007FC000
007FC000
007FC000
007FC000
007FC000
007FC000
007FC000
007FC000
007FC000
007FC000
007FC000
007FC000
ENDCHAR
STARTCHAR 00D0
ENCODING 208
SWIDTH 720 0
DWIDTH 72 0
BBX 65 73 2 0
BITMAP
01FFFFFFFF80000000
01FFFFFFFFF8000000
01FFFFFFFFFF000000
01FFFFFFFFFFC00000
01FFFFFFFFFFE00000
01FFFFFFFFFFF80000
01FFFFFFFFFFFC0000
01FFFFFFFFFFFE0000
01FF000007FFFF0000
01FF0000007FFF8000
01FF0000000FFF8000
01FF00000003FFC000
01FF00000001FFE000
01FF00000000FFE000
01FF000000007FF000
01FF000000003FF800
01FF000000001FF800
01FF000000001FF800
01FF000000000FFC00
01FF000000000FFC00
01FF0000000007FE00
01FF0000000007FE00
01FF0000000003FE00
01FF0000000003FE00
01FF0000000003FF00
01FF0000000003FF00
01FF0000000001FF00
01FF0000000001FF00
01FF0000000001FF00
01FF0000000001FF00
01FF0000000001FF00
01FF0000000001FF80
FFFFFFFF800001FF80
FFFFFFFF800001FF80
FFFFFFFF800001FF80
FFFFFFFF800001FF80
FFFFFFFF800001FF80
FFFFFFFF800001FF80
FFFFFFFF800001FF80
01FF0000000001FF80
01FF0000000001FF80
01FF0000000001FF80
01FF0000000001FF00
01FF0000000001FF00
01FF0000000001FF00
01FF0000000001FF00
01FF0000000001FF00
01FF0000000003FF00
01FF0000000003FF00
01FF0000000003FE00
01FF0000000003FE00
01FF0000000007FE00
01FF0000000007FC00
01FF000000000FFC00
01FF000000000FFC00
01FF000000001FF800
01FF000000001FF800
01FF000000003FF000
01FF000000007FF000
01FF00000000FFE000
01FF00000001FFE000
01FF00000003FFC000
01FF0000000FFF8000
01FF0000003FFF8000
01FF000007FFFF0000
01FFFFFFFFFFFE0000
01FFFFFFFFFFFC0000
01FFFFFFFFFFF00000
01FFFFFFFFFFE00000
01FFFFFFFFFF800000
01FFFFFFFFFE000000
01FFFFFFFFF8000000
01FFFFFFFF80000000
ENDCHAR
STARTCHAR 00D1
ENCODING 209
SWIDTH 720 0
DWIDTH 72 0
BBX 57 92 8 0
BITMAP
00000E0001F00000
00003FE003F00000
00007FF803F00000
0000FFFF07F00000
0001FFFFFFE00000
0001FFFFFFE00000
0003FFFFFFE00000
0003F87FFFC00000
0003F01FFF800000
0007E003FF000000
0007E0007C000000
0000000000000000
0000000000000000
0000000000000000
0000000000000000
0000000000000000
0000000000000000
0000000000000000
0000000000000000
FFC000000000FF80
FFE000000000FF80
FFE000000000FF80
FFF000000000FF80
FFF800000000FF80
FFF800000000FF80
FFFC00000000FF80
FFFC00000000FF80
FFFE00000000FF80
FFFF00000000FF80
FFFF00000000FF80
FFFF80000000FF80
FFFFC0000000FF80
FFFFC0000000FF80
FF7FE0000000FF80
FF7FF0000000FF80
FF3FF0000000FF80
FF1FF8000000FF80
FF1FFC000000FF80
FF0FFC000000FF80
FF07FE000000FF80
FF07FE000000FF80
FF03FF000000FF80
FF01FF800000FF80
FF01FF800000FF80
FF00FFC00000FF80
FF00FFE00000FF80
FF007FE00000FF80
FF003FF00000FF80
FF003FF80000FF80
FF001FF80000FF80
FF000FFC0000FF80
FF000FFC0000FF80
FF0007FE0000FF80
FF0003FF0000FF80
FF0003FF0000FF80
FF0001FF8000FF80
FF0001FFC000FF80
FF0000FFC000FF80
FF00007FE000FF80
FF00007FF000FF80
FF00003FF000FF80
FF00001FF800FF80
FF00001FF800FF80
FF00000FFC00FF80
FF000007FE00FF80
FF000007FE00FF80
FF000003FF00FF80
FF000003FF80FF80
FF000001FF80FF80
FF000000FFC0FF80
FF000000FFE0FF80
FF0000007FE0FF80
FF0000003FF0FF80
FF0000003FF0FF80
FF0000001FF8FF80
FF0000001FFCFF80
FF0000000FFCFF80
FF00000007FEFF80
FF00000007FFFF80
FF00000003FFFF80
FF00000001FFFF80
FF00000001FFFF80
FF00000000FFFF80
FF000000007FFF80
FF000000007FFF80
FF000000003FFF80
FF000000003FFF80
FF000000001FFF80
FF000000000FFF80
FF000000000FFF80
FF0000000007FF80
FF0000000003FF80
ENDCHAR
STARTCHAR 00D2
ENCODING 210
SWIDTH 780 0
DWIDTH 78 0
BBX 70 96 4 -2
BITMAP
000007FF0000000000
000003FF8000000000
000001FF8000000000
000000FFC000000000
0000007FE000000000
0000003FE000000000
0000001FF000000000
0000000FF800000000
00000007F800000000
00000003FC00000000
00000001FE00000000
00000000FE00000000
000000007F00000000
000000003F80000000
000000001F80000000
000000000000000000
000000000000000000
000000000000000000
000000000000000000
000000000000000000
00000007FFC0000000
000000FFFFFC000000
000007FFFFFF800000
00001FFFFFFFE00000
00007FFFFFFFF80000
0000FFFFFFFFFE0000
0003FFFFFFFFFF0000
0007FFFFFFFFFF8000
000FFFFE01FFFFE000
001FFFC0001FFFF000
003FFF000003FFF800
007FFC000000FFF800
00FFF80000007FFC00
01FFE00000001FFE00
03FFC00000000FFF00
03FF8000000007FF00
07FF0000000003FF80
07FE0000000001FFC0
0FFE0000000001FFC0
0FFC0000000000FFC0
1FF800000000007FE0
1FF800000000007FE0
3FF000000000003FF0
3FF000000000003FF0
3FE000000000001FF0
7FE000000000001FF8
7FE000000000001FF8
7FC000000000000FF8
7FC000000000000FF8
7FC000000000000FFC
FFC000000000000FFC
FFC000000000000FFC
FF80000000000007FC
FF80000000000007FC
FF80000000000007FC
FF80000000000007FC
FF80000000000007FC
FF80000000000007FC
FF80000000000007FC
FF80000000000007FC
FF80000000000007FC
FF80000000000007FC
FF80000000000007FC
FF80000000000007FC
FFC000000000000FFC
FFC000000000000FFC
7FC000000000000FFC
7FC000000000000FF8
7FE000000000000FF8
7FE000000000001FF8
7FE000000000001FF8
3FE000000000001FF0
3FF000000000003FF0
3FF000000000003FF0
1FF800000000007FE0
1FF800000000007FE0
0FFC0000000000FFC0
0FFE0000000001FFC0
07FE0000000001FF80
07FF0000000003FF80
03FF8000000007FF00
03FFC00000000FFF00
01FFE00000001FFE00
00FFF80000007FFC00
007FFC000000FFF800
007FFF000003FFF800
003FFFE0000FFFF000
001FFFFE01FFFFE000
0007FFFFFFFFFF8000
0003FFFFFFFFFF0000
0001FFFFFFFFFE0000
00007FFFFFFFF80000
00001FFFFFFFE00000
000007FFFFFF800000
000000FFFFFC000000
0000000FFF80000000
ENDCHAR
STARTCHAR 00D3
ENCODING 211
SWIDTH 780 0
DWIDTH 78 0
BBX 70 96 4 -2
BITMAP
0000000003FF800000
0000000007FF000000
000000000FFE000000
000000000FFC000000
000000001FF8000000
000000003FF0000000
000000003FE0000000
000000007FC0000000
00000000FF80000000
00000000FF00000000
00000001FE00000000
00000003FC00000000
00000003F800000000
00000007F000000000
00000007E000000000
000000000000000000
000000000000000000
000000000000000000
000000000000000000
000000000000000000
00000007FFC0000000
000000FFFFFC000000
000007FFFFFF800000
00001FFFFFFFE00000
00007FFFFFFFF80000
0000FFFFFFFFFE0000
0003FFFFFFFFFF0000
0007FFFFFFFFFF8000
000FFFFE01FFFFE000
001FFFC0001FFFF000
003FFF000003FFF800
007FFC000000FFF800
00FFF80000007FFC00
01FFE00000001FFE00
03FFC00000000FFF00
03FF8000000007FF00
07FF0000000003FF80
07FE0000000001FFC0
0FFE0000000001FFC0
0FFC0000000000FFC0
1FF800000000007FE0
1FF800000000007FE0
3FF000000000003FF0
3FF000000000003FF0
3FE000000000001FF0
7FE000000000001FF8
7FE000000000001FF8
7FC000000000000FF8
7FC000000000000FF8
7FC000000000000FFC
FFC000000000000FFC
FFC000000000000FFC
FF80000000000007FC
FF80000000000007FC
FF80000000000007FC
FF80000000000007FC
FF80000000000007FC
FF80000000000007FC
FF80000000000007FC
FF80000000000007FC
FF80000000000007FC
FF80000000000007FC
FF80000000000007FC
FF80000000000007FC
FFC000000000000FFC
FFC000000000000FFC
7FC000000000000FFC
7FC000000000000FF8
7FE000000000000FF8
7FE000000000001FF8
7FE000000000001FF8
3FE000000000001FF0
3FF000000000003FF0
3FF000000000003FF0
1FF800000000007FE0
1FF800000000007FE0
0FFC0000000000FFC0
0FFE0000000001FFC0
07FE0000000001FF80
07FF0000000003FF80
03FF8000000007FF00
03FFC00000000FFF00
01FFE00000001FFE00
00FFF80000007FFC00
007FFC000000FFF800
007FFF000003FFF800
003FFFE0000FFFF000
001FFFFE01FFFFE000
0007FFFFFFFFFF8000
0003FFFFFFFFFF0000
0001FFFFFFFFFE0000
00007FFFFFFFF80000
00001FFFFFFFE00000
000007FFFFFF800000
000000FFFFFC000000
0000000FFF80000000
ENDCHAR
STARTCHAR 00D4
ENCODING 212
SWIDTH 780 0
DWIDTH 78 0
BBX 70 96 4 -2
BITMAP
00000003FF00000000
00000007FF80000000
00000007FF80000000
0000000FFFC0000000
0000001FFFE0000000
0000001FFFE0000000
0000003FCFF0000000
0000003F87F0000000
0000007F87F8000000
000000FF03FC000000
000000FE01FC000000
000001FC00FE000000
000003F8007F000000
000003F0003F000000
000007F0003F800000
000000000000000000
000000000000000000
000000000000000000
000000000000000000
000000000000000000
00000007FFC0000000
000000FFFFFC000000
000007FFFFFF800000
00001FFFFFFFE00000
00007FFFFFFFF80000
0000FFFFFFFFFE0000
0003FFFFFFFFFF0000
0007FFFFFFFFFF8000
000FFFFE01FFFFE000
001FFFC0001FFFF000
003FFF000003FFF800
007FFC000000FFF800
00FFF80000007FFC00
01FFE00000001FFE00
03FFC00000000FFF00
03FF8000000007FF00
07FF0000000003FF80
07FE0000000001FFC0
0FFE0000000001FFC0
0FFC0000000000FFC0
1FF800000000007FE0
1FF800000000007FE0
3FF000000000003FF0
3FF000000000003FF0
3FE000000000001FF0
7FE000000000001FF8
7FE000000000001FF8
7FC000000000000FF8
7FC000000000000FF8
7FC000000000000FFC
FFC000000000000FFC
FFC000000000000FFC
FF80000000000007FC
FF80000000000007FC
FF80000000000007FC
FF80000000000007FC
FF80000000000007FC
FF80000000000007FC
FF80000000000007FC
FF80000000000007FC
FF80000000000007FC
FF80000000000007FC
FF80000000000007FC
FF80000000000007FC
FFC000000000000FFC
FFC000000000000FFC
7FC000000000000FFC
7FC000000000000FF8
7FE000000000000FF8
7FE000000000001FF8
7FE000000000001FF8
3FE000000000001FF0
3FF000000000003FF0
3FF000000000003FF0
1FF800000000007FE0
1FF800000000007FE0
0FFC0000000000FFC0
0FFE0000000001FFC0
07FE0000000001FF80
07FF0000000003FF80
03FF8000000007FF00
03FFC00000000FFF00
01FFE00000001FFE00
00FFF80000007FFC00
007FFC000000FFF800
007FFF000003FFF800
003FFFE0000FFFF000
001FFFFE01FFFFE000
0007FFFFFFFFFF8000
0003FFFFFFFFFF0000
0001FFFFFFFFFE0000
00007FFFFFFFF80000
00001FFFFFFFE00000
000007FFFFFF800000
000000FFFFFC000000
0000000FFF80000000
ENDCHAR
STARTCHAR 00D5
ENCODING 213
SWIDTH 780 0
DWIDTH 78 0
BBX 70 94 4 -2
BITMAP
0000001C0007E00000
000000FF8007E00000
000001FFF00FE00000
000003FFFE1FC00000
000003FFFFFFC00000
000007FFFFFFC00000
000007FFFFFF800000
00000FE1FFFF800000
00000FC03FFF000000
00000FC007FC000000
00000F8000F0000000
000000000000000000
000000000000000000
000000000000000000
000000000000000000
000000000000000000
000000000000000000
000000000000000000
00000007FFC0000000
000000FFFFFC000000
000007FFFFFF800000
00001FFFFFFFE00000
00007FFFFFFFF80000
0000FFFFFFFFFE0000
0003FFFFFFFFFF0000
0007FFFFFFFFFF8000
000FFFFE01FFFFE000
001FFFC0001FFFF000
003FFF000003FFF800
007FFC000000FFF800
00FFF80000007FFC00
01FFE00000001FFE00
03FFC00000000FFF00
03FF8000000007FF00
07FF0000000003FF80
07FE0000000001FFC0
0FFE0000000001FFC0
0FFC0000000000FFC0
1FF800000000007FE0
1FF800000000007FE0
3FF000000000003FF0
3FF000000000003FF0
3FE000000000001FF0
7FE000000000001FF8
7FE000000000001FF8
7FC000000000000FF8
7FC000000000000FF8
7FC000000000000FFC
FFC000000000000FFC
FFC000000000000FFC
FF80000000000007FC
FF80000000000007FC
FF80000000000007FC
FF80000000000007FC
FF80000000000007FC
FF80000000000007FC
FF80000000000007FC
FF80000000000007FC
FF80000000000007FC
FF80000000000007FC
FF80000000000007FC
FF80000000000007FC
FFC000000000000FFC
FFC000000000000FFC
7FC000000000000FFC
7FC000000000000FF8
7FE000000000000FF8
7FE000000000001FF8
7FE000000000001FF8
3FE000000000001FF0
3FF000000000003FF0
3FF000000000003FF0
1FF800000000007FE0
1FF800000000007FE0
0FFC0000000000FFC0
0FFE0000000001FFC0
07FE0000000001FF80
07FF0000000003FF80
03FF8000000007FF00
03FFC00000000FFF00
01FFE00000001FFE00
00FFF80000007FFC00
007FFC000000FFF800
007FFF000003FFF800
003FFFE0000FFFF000
001FFFFE01FFFFE000
0007FFFFFFFFFF8000
0003FFFFFFFFFF0000
0001FFFFFFFFFE0000
00007FFFFFFFF80000
00001FFFFFFFE00000
000007FFFFFF800000
000000FFFFFC000000
0000000FFF80000000
ENDCHAR
STARTCHAR 00D6
ENCODING 214
SWIDTH 780 0
DWIDTH 78 0
BBX 70 93 4 -2
BITMAP
000003FF03FF000000
000003FF03FF000000
000003FF03FF000000
000003FF03FF000000
000003FF03FF000000
000003FF03FF000000
000003FF03FF000000
000003FF03FF000000
000003FF03FF000000
000003FF03FF000000
000000000000000000
000000000000000000
000000000000000000
000000000000000000
000000000000000000
000000000000000000
000000000000000000
00000007FFC0000000
000000FFFFFC000000
000007FFFFFF800000
00001FFFFFFFE00000
00007FFFFFFFF80000
0000FFFFFFFFFE0000
0003FFFFFFFFFF0000
0007FFFFFFFFFF8000
000FFFFE01FFFFE000
001FFFC0001FFFF000
003FFF000003FFF800
007FFC000000FFF800
00FFF80000007FFC00
01FFE00000001FFE00
03FFC00000000FFF00
03FF8000000007FF00
07FF0000000003FF80
07FE0000000001FFC0
0FFE0000000001FFC0
0FFC0000000000FFC0
1FF800000000007FE0
1FF800000000007FE0
3FF000000000003FF0
3FF000000000003FF0
3FE000000000001FF0
7FE000000000001FF8
7FE000000000001FF8
7FC000000000000FF8
7FC000000000000FF8
7FC000000000000FFC
FFC000000000000FFC
FFC000000000000FFC
FF80000000000007FC
FF80000000000007FC
FF80000000000007FC
FF80000000000007FC
FF80000000000007FC
FF80000000000007FC
FF80000000000007FC
FF80000000000007FC
FF80000000000007FC
FF80000000000007FC
FF80000000000007FC
FF80000000000007FC
FFC000000000000FFC
FFC000000000000FFC
7FC000000000000FFC
7FC000000000000FF8
7FE000000000000FF8
7FE000000000001FF8
7FE000000000001FF8
3FE000000000001FF0
3FF000000000003FF0
3FF000000000003FF0
1FF800000000007FE0
1FF800000000007FE0
0FFC0000000000FFC0
0FFE0000000001FFC0
07FE0000000001FF80
07FF0000000003FF80
03FF8000000007FF00
03FFC00000000FFF00
01FFE00000001FFE00
00FFF80000007FFC00
007FFC000000FFF800
007FFF000003FFF800
003FFFE0000FFFF000
001FFFFE01FFFFE000
0007FFFFFFFFFF8000
0003FFFFFFFFFF0000
0001FFFFFFFFFE0000
00007FFFFFFFF80000
00001FFFFFFFE00000
000007FFFFFF800000
000000FFFFFC000000
0000000FFF80000000
ENDCHAR
STARTCHAR 00D7
ENCODING 215
SWIDTH 580 0
DWIDTH 58 0
BBX 39 40 10 3
BITMAP
0800000000
1C00000060
3E000000F0
7F000001F8
FF800003FC
FFC00007FE
7FE0000FFC
3FF0001FF8
1FF8003FF0
0FFC007FE0
07FE00FFC0
03FF01FF80
01FF83FF00
00FFC7FE00
007FEFFC00
003FFFF800
001FFFF000
000FFFE000
0007FFC000
0003FF8000
0003FF8000
0007FFC000
000FFFE000
001FFFF000
003FFFF800
007FEFFC00
00FFC7FE00
01FF83FF00
03FF01FF80
07FE00FFC0
0FFC007FE0
1FF8003FF0
3FF0001FF8
7FE0000FFC
FFC00007FE
FF800003FC
7F000001F8
3E000000F0
1C00000060
0800000000
ENDCHAR
STARTCHAR 00D8
ENCODING 216
SWIDTH 780 0
DWIDTH 78 0
BBX 71 77 3 -2
BITMAP
000000000000000010
00000003FFC000003C
0000007FFFFE00007E
000003FFFFFFC000FE
00000FFFFFFFF001FC
00003FFFFFFFFC03F8
0000FFFFFFFFFE07F0
0001FFFFFFFFFF8FE0
0007FFFFFFFFFFDFE0
000FFFFF01FFFFFFC0
001FFFE0000FFFFF80
003FFF800001FFFF00
007FFE0000007FFE00
007FF80000003FFE00
00FFF00000001FFF00
01FFE000000007FF00
03FFC00000000FFF80
03FF800000001FFFC0
07FF000000003FFFC0
07FE000000007FFFE0
0FFE00000000FE7FE0
0FFC00000001FE7FF0
1FFC00000003FC3FF0
1FF800000007F83FF0
1FF800000007F01FF8
3FF00000000FE01FF8
3FF00000001FC00FF8
3FE00000003F800FFC
3FE00000007F000FFC
7FE0000000FE0007FC
7FE0000001FC0007FC
7FC0000003F80007FC
7FC0000007F00007FC
7FC000000FE00007FE
7FC000001FE00007FE
7FC000003FC00007FE
7FC000007F800003FE
7FC000007F000003FE
7FC00000FE000003FE
7FC00001FC000003FE
7FC00003F8000003FE
7FC00007F0000003FE
7FC0000FE0000007FE
7FC0001FC0000007FE
7FC0003F80000007FE
7FC0007F00000007FE
7FE000FE00000007FC
7FE001FE00000007FC
7FE003FC00000007FC
3FE007F80000000FFC
3FF007F00000000FFC
3FF00FE00000000FF8
3FF01FC00000001FF8
1FF83F800000001FF8
1FF87F000000003FF0
1FFCFE000000003FF0
0FFDFC000000007FF0
0FFFF8000000007FE0
07FFF000000000FFE0
07FFE000000001FFC0
03FFC000000001FFC0
03FFC000000003FF80
01FFE000000007FF00
00FFF00000000FFF00
00FFF80000003FFE00
01FFFE0000007FFC00
03FFFF800001FFF800
07FFFFE0000FFFF000
0FEFFFFF00FFFFE000
1FC7FFFFFFFFFFC000
3F81FFFFFFFFFF8000
7F00FFFFFFFFFE0000
FE003FFFFFFFFC0000
7E001FFFFFFFF00000
3C0003FFFFFF800000
1800007FFFFC000000
00000007FFC0000000
ENDCHAR
STARTCHAR 00D9
ENCODING 217
SWIDTH 720 0
DWIDTH 72 0
BBX 56 96 9 -2
BITMAP
0003FF80000000
0001FF80000000
0000FFC0000000
00007FE0000000
00003FE0000000
00001FF0000000
00000FF8000000
000007F8000000
000003FC000000
000001FE000000
000000FE000000
0000007F000000
0000003F800000
0000001F800000
0000000FC00000
00000000000000
00000000000000
00000000000000
00000000000000
00000000000000
00000000000000
FF8000000003FF
FF8000000003FF
FF8000000003FF
FF8000000003FF
FF8000000003FF
FF8000000003FF
FF8000000003FF
FF8000000003FF
FF8000000003FF
FF8000000003FF
FF8000000003FF
FF8000000003FF
FF8000000003FF
FF8000000003FF
FF8000000003FF
FF8000000003FF
FF8000000003FF
FF8000000003FF
FF8000000003FF
FF8000000003FF
FF8000000003FF
FF8000000003FF
FF8000000003FF
FF8000000003FF
FF8000000003FF
FF8000000003FF
FF8000000003FF
FF8000000003FF
FF8000000003FF
FF8000000003FF
FF8000000003FF
FF8000000003FF
FF8000000003FF
FF8000000003FF
FF8000000003FF
FF8000000003FF
FF8000000003FF
FF8000000003FF
FF8000000003FF
FF8000000003FF
FF8000000003FF
FF8000000003FF
FF8000000003FF
FF8000000003FF
FF8000000003FF
FF8000000003FF
FF8000000003FF
FF8000000003FF
FF8000000003FF
FF8000000003FF
FF8000000003FF
FF8000000003FF
FF8000000003FE
FF8000000003FE
FF8000000003FE
FF8000000003FE
FFC000000007FE
FFC000000007FE
7FE000000007FC
7FE00000000FFC
7FF00000001FFC
3FF80000003FF8
3FFC0000007FF8
1FFE000000FFF0
1FFF800003FFE0
0FFFE0000FFFE0
07FFFE00FFFFC0
03FFFFFFFFFF80
01FFFFFFFFFF00
00FFFFFFFFFE00
003FFFFFFFF800
000FFFFFFFE000
0003FFFFFF8000
00007FFFFC0000
000007FFC00000
ENDCHAR
STARTCHAR 00DA
ENCODING 218
SWIDTH 720 0
DWIDTH 72 0
BBX 56 96 9 -2
BITMAP
00000007FF8000
00000007FE0000
0000000FFC0000
0000001FF80000
0000001FF00000
0000003FE00000
0000007FC00000
0000007F800000
000000FF000000
000000FE000000
000001FC000000
000003F8000000
000003F0000000
000007E0000000
00000FC0000000
00000000000000
00000000000000
00000000000000
00000000000000
00000000000000
00000000000000
FF8000000003FE
FF8000000003FE
FF8000000003FE
FF8000000003FE
FF8000000003FE
FF8000000003FE
FF8000000003FE
FF8000000003FE
FF8000000003FE
FF8000000003FE
FF8000000003FE
FF8000000003FE
FF8000000003FE
FF8000000003FE
FF8000000003FE
FF8000000003FE
FF8000000003FE
FF8000000003FE
FF8000000003FE
FF8000000003FE
FF8000000003FE
FF8000000003FE
FF8000000003FE
FF8000000003FE
FF8000000003FE
FF8000000003FE
FF8000000003FE
FF8000000003FE
FF8000000003FE
FF8000000003FE
FF8000000003FE
FF8000000003FE
FF8000000003FE
FF8000000003FE
FF8000000003FE
FF8000000003FE
FF8000000003FE
FF8000000003FE
FF8000000003FE
FF8000000003FE
FF8000000003FE
FF8000000003FE
FF8000000003FE
FF8000000003FF
FF8000000003FF
FF8000000003FF
FF8000000003FF
FF8000000003FF
FF8000000003FF
FF8000000003FF
FF8000000003FF
FF8000000003FF
FF8000000003FE
FF8000000003FE
FF8000000003FE
FF8000000003FE
FFC000000007FE
FFC000000007FE
7FE000000007FC
7FE00000000FFC
7FF00000001FFC
3FF80000003FF8
3FFC0000007FF8
1FFE000000FFF0
1FFF800003FFE0
0FFFE0000FFFE0
07FFFE00FFFFC0
03FFFFFFFFFF80
01FFFFFFFFFF00
00FFFFFFFFFE00
003FFFFFFFF800
000FFFFFFFE000
0003FFFFFF8000
00007FFFFC0000
000007FFC00000
ENDCHAR
STARTCHAR 00DB
ENCODING 219
SWIDTH 720 0
DWIDTH 72 0
BBX 56 96 9 -2
BITMAP
000003FF800000
000003FF800000
000007FFC00000
00000FFFE00000
00000FFFE00000
00001FEFF00000
00001FEFF00000
00003FC7F80000
00007F83FC0000
00007F01FC0000
0000FE00FE0000
0001FC007F0000
0001FC007F0000
0003F8003F8000
0007F0001FC000
00000000000000
00000000000000
00000000000000
00000000000000
00000000000000
00000000000000
FF8000000003FF
FF8000000003FF
FF8000000003FF
FF8000000003FF
FF8000000003FF
FF8000000003FF
FF8000000003FF
FF8000000003FF
FF8000000003FF
FF8000000003FF
FF8000000003FF
FF8000000003FF
FF8000000003FF
FF8000000003FF
FF8000000003FF
FF8000000003FF
FF8000000003FF
FF8000000003FF
FF8000000003FF
FF8000000003FF
FF8000000003FF
FF8000000003FF
FF8000000003FF
FF8000000003FF
FF8000000003FF
FF8000000003FF
FF8000000003FF
FF8000000003FF
FF8000000003FF
FF8000000003FF
FF8000000003FF
FF8000000003FF
FF8000000003FF
FF8000000003FF
FF8000000003FF
FF8000000003FF
FF8000000003FF
FF8000000003FF
FF8000000003FF
FF8000000003FF
FF8000000003FF
FF8000000003FF
FF8000000003FF
FF8000000003FF
FF8000000003FF
FF8000000003FF
FF8000000003FF
FF8000000003FF
FF8000000003FF
FF8000000003FF
FF8000000003FF
FF8000000003FF
FF8000000003FE
FF8000000003FE
FF8000000003FE
FF8000000003FE
FFC000000007FE
FFC000000007FE
7FE000000007FC
7FE00000000FFC
7FF00000001FFC
3FF80000003FF8
3FFC0000007FF8
1FFE000000FFF0
1FFF800003FFE0
0FFFE0000FFFE0
07FFFE00FFFFC0
03FFFFFFFFFF80
01FFFFFFFFFF00
00FFFFFFFFFE00
003FFFFFFFF800
000FFFFFFFE000
0003FFFFFF8000
00007FFFFC0000
000007FFC00000
ENDCHAR
STARTCHAR 00DC
ENCODING 220
SWIDTH 720 0
DWIDTH 72 0
BBX 56 93 9 -2
BITMAP
0003FF83FF8000
0003FF83FF8000
0003FF83FF8000
0003FF83FF8000
0003FF83FF8000
0003FF83FF8000
0003FF83FF8000
0003FF83FF8000
0003FF83FF8000
0003FF83FF8000
00000000000000
00000000000000
00000000000000
00000000000000
00000000000000
00000000000000
00000000000000
00000000000000
FF8000000003FF
FF8000000003FF
FF8000000003FF
FF8000000003FF
FF8000000003FF
FF8000000003FF
FF8000000003FF
FF8000000003FF
FF8000000003FF
FF8000000003FF
FF8000000003FF
FF8000000003FF
FF8000000003FF
FF8000000003FF
FF8000000003FF
FF8000000003FF
FF8000000003FF
FF8000000003FF
FF8000000003FF
FF8000000003FF
FF8000000003FF
FF8000000003FF
FF8000000003FF
FF8000000003FF
FF8000000003FF
FF8000000003FF
FF8000000003FF
FF8000000003FF
FF8000000003FF
FF8000000003FF
FF8000000003FF
FF8000000003FF
FF8000000003FF
FF8000000003FF
FF8000000003FF
FF8000000003FF
FF8000000003FF
FF8000000003FF
FF8000000003FF
FF8000000003FF
FF8000000003FF
FF8000000003FF
FF8000000003FF
FF8000000003FF
FF8000000003FF
FF8000000003FF
FF8000000003FF
FF8000000003FF
FF8000000003FF
FF8000000003FF
FF8000000003FF
FF8000000003FF
FF8000000003FE
FF8000000003FE
FF8000000003FE
FF8000000003FE
FFC000000007FE
FFC000000007FE
7FE000000007FC
7FE00000000FFC
7FF00000001FFC
3FF80000003FF8
3FFC0000007FF8
1FFE000000FFF0
1FFF800003FFE0
0FFFE0000FFFE0
07FFFE00FFFFC0
03FFFFFFFFFF80
01FFFFFFFFFF00
00FFFFFFFFFE00
003FFFFFFFF800
000FFFFFFFE000
0003FFFFFF8000
00007FFFFC0000
000007FFC00000
ENDCHAR
STARTCHAR 00DD
ENCODING 221
SWIDTH 670 0
DWIDTH 67 0
BBX 64 94 2 0
BITMAP
000000003FF80000
000000003FF00000
000000007FE00000
00000000FFC00000
00000000FF800000
00000001FF000000
00000003FE000000
00000003FC000000
00000007F8000000
0000000FF0000000
0000000FE0000000
0000001FC0000000
0000003F80000000
0000003F00000000
0000007E00000000
0000000000000000
0000000000000000
0000000000000000
0000000000000000
0000000000000000
0000000000000000
FFE00000000007FF
FFF0000000000FFE
7FF0000000001FFC
7FF8000000001FFC
3FFC000000003FF8
1FFC000000003FF8
1FFE000000007FF0
0FFE000000007FE0
07FF00000000FFE0
07FF80000001FFC0
03FF80000001FFC0
01FFC0000003FF80
01FFC0000003FF00
00FFE0000007FF00
00FFF000000FFE00
007FF000000FFC00
003FF800001FFC00
003FF800001FF800
001FFC00003FF800
000FFC00007FF000
000FFE00007FE000
0007FF0000FFE000
0007FF0000FFC000
0003FF8001FF8000
0001FF8001FF8000
0001FFC003FF0000
0000FFE007FF0000
00007FE007FE0000
00007FF00FFC0000
00003FF00FFC0000
00001FF81FF80000
00001FFC3FF80000
00000FFC3FF00000
00000FFE7FE00000
000007FE7FE00000
000003FFFFC00000
000003FFFF800000
000001FFFF800000
000000FFFF000000
000000FFFF000000
0000007FFE000000
0000007FFC000000
0000003FFC000000
0000001FF8000000
0000001FF8000000
0000001FF8000000
0000001FF8000000
0000001FF8000000
0000001FF8000000
0000001FF8000000
0000001FF8000000
0000001FF8000000
0000001FF8000000
0000001FF8000000
0000001FF8000000
0000001FF8000000
0000001FF8000000
0000001FF8000000
0000001FF8000000
0000001FF8000000
0000001FF8000000
0000001FF8000000
0000001FF8000000
0000001FF8000000
0000001FF8000000
0000001FF8000000
0000001FF8000000
0000001FF8000000
0000001FF8000000
0000001FF8000000
0000001FF8000000
0000001FF8000000
0000001FF8000000
ENDCHAR
STARTCHAR 00DE
ENCODING 222
SWIDTH 670 0
DWIDTH 67 0
BBX 53 73 9 0
BITMAP
FF800000000000
FF800000000000
FF800000000000
FF800000000000
FF800000000000
FF800000000000
FF800000000000
FF800000000000
FF800000000000
FF800000000000
FF800000000000
FF800000000000
FFFFFFFFF00000
FFFFFFFFFF0000
FFFFFFFFFFC000
FFFFFFFFFFF000
FFFFFFFFFFF800
FFFFFFFFFFFC00
FFFFFFFFFFFF00
FFFFFFFFFFFF00
FF800000FFFF80
FF8000000FFFC0
FF80000003FFC0
FF80000001FFE0
FF80000000FFE0
FF800000007FF0
FF800000007FF0
FF800000003FF0
FF800000003FF0
FF800000003FF0
FF800000003FF8
FF800000001FF8
FF800000001FF8
FF800000001FF8
FF800000001FF8
FF800000003FF8
FF800000003FF0
FF800000003FF0
FF800000003FF0
FF800000007FF0
FF800000007FF0
FF80000000FFE0
FF80000001FFE0
FF80000003FFC0
FF8000000FFFC0
FF8000007FFF80
FFFFFFFFFFFF00
FFFFFFFFFFFF00
FFFFFFFFFFFE00
FFFFFFFFFFF800
FFFFFFFFFFF000
FFFFFFFFFFC000
FFFFFFFFFF0000
FFFFFFFFF80000
FF800000000000
FF800000000000
FF800000000000
FF800000000000
FF800000000000
FF800000000000
FF800000000000
FF800000000000
FF800000000000
FF800000000000
FF800000000000
FF800000000000
FF800000000000
FF800000000000
FF800000000000
FF800000000000
FF800000000000
FF800000000000
FF800000000000
ENDCHAR
STARTCHAR 00DF
ENCODING 223
SWIDTH 610 0
DWIDTH 61 0
BBX 49 75 7 -2
BITMAP
00003FF8000000
0003FFFF800000
001FFFFFE00000
007FFFFFF80000
01FFFFFFFC0000
03FFFFFFFF0000
07FFFFFFFF8000
0FFFFFFFFF8000
1FFF800FFFC000
3FFC0003FFE000
3FF80000FFE000
7FE000007FF000
7FE000003FF000
7FC000001FF000
FF8000001FF800
FF8000000FF800
FF8000000FF800
FF0000000FF800
FF0000000FF800
FF0000000FF800
FF0000000FF800
FF0000000FF800
FF0000000FF800
FF0000001FF000
FF0000003FF000
FF0000003FE000
FF000000FFE000
FF000001FFC000
FF000007FF8000
FF00007FFE0000
FF000FFFFC0000
FF000FFFF00000
FF000FFF800000
FF000FFFE00000
FF000FFFF80000
FF000FFFFE0000
FF000FFFFF8000
FF000FFFFFC000
FF000007FFE000
FF000000FFF000
FF0000003FF800
FF0000000FFC00
FF00000007FE00
FF00000007FE00
FF00000003FF00
FF00000001FF00
FF00000001FF00
FF00000001FF00
FF00000000FF00
FF00000000FF00
FF00000000FF80
FF00000000FF80
FF00000000FF00
FF00000000FF00
FF00000000FF00
FF00000001FF00
FF00000001FF00
FF00000001FF00
FF00000003FF00
FF00000003FE00
FF00000007FE00
FF0000000FFE00
FF0000001FFC00
FF0000003FFC00
FF0000007FF800
FF000001FFF000
FF00001FFFF000
FF001FFFFFE000
FF001FFFFFC000
FF001FFFFF8000
FF001FFFFE0000
FF001FFFFC0000
FF001FFFF00000
00001FFF800000
00001FF8000000
ENDCHAR
STARTCHAR 00E0
ENCODING 224
SWIDTH 560 0
DWIDTH 56 0
BBX 50 76 4 -2
BITMAP
003FF800000000
001FFC00000000
000FFE00000000
0007FE00000000
0003FF00000000
0001FF80000000
0000FF80000000
00007FC0000000
00003FE0000000
00001FE0000000
00000FF0000000
000007F0000000
000003F8000000
000001FC000000
000000FC000000
00000000000000
00000000000000
00000000000000
00000000000000
00000000000000
00003FFC000000
0003FFFFC00000
001FFFFFF00000
007FFFFFFC0000
00FFFFFFFE0000
01FFFFFFFF0000
03FFFFFFFF8000
07FFFFFFFFC000
0FFF8007FFC000
0FFE0000FFE000
0FFC00007FE000
1FF800003FE000
1FF000003FE000
1FF000001FE000
1FE000001FE000
1FE000001FE000
1FE000001FE000
000000001FE000
000000001FE000
000000001FE000
000000003FE000
000000007FE000
00000001FFE000
0000003FFFE000
00003FFFFFE000
0007FFFFFFE000
003FFFFFFFE000
00FFFFFFFFE000
03FFFFFF9FE000
07FFFFFC1FE000
0FFFFF001FE000
1FFFC0001FE000
3FFE00001FE000
3FF800001FE000
7FE000001FE000
7FC000001FE000
7FC000001FE000
FF8000001FE000
FF8000001FE000
FF8000001FE000
FF8000003FE000
FF8000003FE000
FF8000007FE000
FFC00000FFE000
7FC00001FFE000
7FE00003FFE000
7FF0000FFFE000
3FF8003FFFF000
3FFF83FFFFF800
1FFFFFFFDFFFC0
0FFFFFFF8FFFC0
0FFFFFFE0FFFC0
03FFFFFC0FFFC0
01FFFFF007FFC0
007FFFC003FFC0
000FFC0000FF00
ENDCHAR
STARTCHAR 00E1
ENCODING 225
SWIDTH 560 0
DWIDTH 56 0
BBX 50 76 4 -2
BITMAP
0000003FF80000
0000007FF00000
0000007FE00000
000000FFC00000
000001FF800000
000001FF000000
000003FE000000
000007FC000000
000007F8000000
00000FF0000000
00001FE0000000
00001FC0000000
00003F80000000
00003F00000000
00007E00000000
00000000000000
00000000000000
00000000000000
00000000000000
00000000000000
00003FFC000000
0003FFFFC00000
001FFFFFF00000
007FFFFFFC0000
00FFFFFFFE0000
01FFFFFFFF0000
03FFFFFFFF8000
07FFFFFFFFC000
0FFF8007FFC000
0FFE0000FFE000
0FFC00007FE000
1FF800003FE000
1FF000003FE000
1FF000001FE000
1FE000001FE000
1FE000001FE000
1FE000001FE000
000000001FE000
000000001FE000
000000001FE000
000000003FE000
000000007FE000
00000001FFE000
0000003FFFE000
00003FFFFFE000
0007FFFFFFE000
003FFFFFFFE000
00FFFFFFFFE000
03FFFFFF9FE000
07FFFFFC1FE000
0FFFFF001FE000
1FFFC0001FE000
3FFE00001FE000
3FF800001FE000
7FE000001FE000
7FC000001FE000
7FC000001FE000
FF8000001FE000
FF8000001FE000
FF8000001FE000
FF8000003FE000
FF8000003FE000
FF8000007FE000
FFC00000FFE000
7FC00001FFE000
7FE00003FFE000
7FF0000FFFE000
3FF8003FFFF000
3FFF83FFFFF800
1FFFFFFFDFFFC0
0FFFFFFF8FFFC0
0FFFFFFE0FFFC0
03FFFFFC0FFFC0
01FFFFF007FFC0
007FFFC003FFC0
000FFC0000FF00
ENDCHAR
STARTCHAR 00E2
ENCODING 226
SWIDTH 560 0
DWIDTH 56 0
BBX 50 76 4 -2
BITMAP
00003FF8000000
00003FF8000000
00007FFC000000
00007FFC000000
0000FFFE000000
0001FEFF000000
0001FEFF000000
0003FC7F800000
0007F83FC00000
0007F01FC00000
000FE00FE00000
001FC007F00000
001FC007F00000
003F8003F80000
007F0001FC0000
00000000000000
00000000000000
00000000000000
00000000000000
00000000000000
00003FFC000000
0003FFFFC00000
001FFFFFF00000
007FFFFFFC0000
00FFFFFFFE0000
01FFFFFFFF0000
03FFFFFFFF8000
07FFFFFFFFC000
0FFF8007FFC000
0FFE0000FFE000
0FFC00007FE000
1FF800003FE000
1FF000003FE000
1FF000001FE000
1FE000001FE000
1FE000001FE000
1FE000001FE000
000000001FE000
000000001FE000
000000001FE000
000000003FE000
000000007FE000
00000001FFE000
0000003FFFE000
00003FFFFFE000
0007FFFFFFE000
003FFFFFFFE000
00FFFFFFFFE000
03FFFFFF9FE000
07FFFFFC1FE000
0FFFFF001FE000
1FFFC0001FE000
3FFE00001FE000
3FF800001FE000
7FE000001FE000
7FC000001FE000
7FC000001FE000
FF8000001FE000
FF8000001FE000
FF8000001FE000
FF8000003FE000
FF8000003FE000
FF8000007FE000
FFC00000FFE000
7FC00001FFE000
7FE00003FFE000
7FF0000FFFE000
3FF8003FFFF000
3FFF83FFFFF800
1FFFFFFFDFFFC0
0FFFFFFF8FFFC0
0FFFFFFE0FFFC0
03FFFFFC0FFFC0
01FFFFF007FFC0
007FFFC003FFC0
000FFC0000FF00
ENDCHAR
STARTCHAR 00E3
ENCODING 227
SWIDTH 560 0
DWIDTH 56 0
BBX 50 74 4 -2
BITMAP
0003F0007E0000
000FFC007E0000
001FFF00FE0000
003FFFE0FC0000
003FFFFFFC0000
007FFFFFFC0000
007FFFFFF80000
00FE0FFFF00000
00FC01FFF00000
00FC007FC00000
0000000F000000
00000000000000
00000000000000
00000000000000
00000000000000
00000000000000
00000000000000
00000000000000
00003FFC000000
0003FFFFC00000
001FFFFFF00000
007FFFFFFC0000
00FFFFFFFE0000
01FFFFFFFF0000
03FFFFFFFF8000
07FFFFFFFFC000
0FFF8007FFC000
0FFE0000FFE000
0FFC00007FE000
1FF800003FE000
1FF000003FE000
1FF000001FE000
1FE000001FE000
1FE000001FE000
1FE000001FE000
000000001FE000
000000001FE000
000000001FE000
000000003FE000
000000007FE000
00000001FFE000
0000003FFFE000
00003FFFFFE000
0007FFFFFFE000
003FFFFFFFE000
00FFFFFFFFE000
03FFFFFF9FE000
07FFFFFC1FE000
0FFFFF001FE000
1FFFC0001FE000
3FFE00001FE000
3FF800001FE000
7FE000001FE000
7FC000001FE000
7FC000001FE000
FF8000001FE000
FF8000001FE000
FF8000001FE000
FF8000003FE000
FF8000003FE000
FF8000007FE000
FFC00000FFE000
7FC00001FFE000
7FE00003FFE000
7FF0000FFFE000
3FF8003FFFF000
3FFF83FFFFF800
1FFFFFFFDFFFC0
0FFFFFFF8FFFC0
0FFFFFFE0FFFC0
03FFFFFC0FFFC0
01FFFFF007FFC0
007FFFC003FFC0
000FFC0000FF00
ENDCHAR
STARTCHAR 00E4
ENCODING 228
SWIDTH 560 0
DWIDTH 56 0
BBX 50 74 4 -2
BITMAP
003FF03FF80000
003FF03FF80000
003FF03FF80000
003FF03FF80000
003FF03FF80000
003FF03FF80000
003FF03FF80000
003FF03FF80000
003FF03FF80000
003FF03FF80000
00000000000000
00000000000000
00000000000000
00000000000000
00000000000000
00000000000000
00000000000000
00000000000000
00003FFC000000
0003FFFFC00000
001FFFFFF00000
007FFFFFFC0000
00FFFFFFFE0000
01FFFFFFFF0000
03FFFFFFFF8000
07FFFFFFFFC000
0FFF8007FFC000
0FFE0000FFE000
0FFC00007FE000
1FF800003FE000
1FF000003FE000
1FF000001FE000
1FE000001FE000
1FE000001FE000
1FE000001FE000
000000001FE000
000000001FE000
000000001FE000
000000003FE000
000000007FE000
00000001FFE000
0000003FFFE000
00003FFFFFE000
0007FFFFFFE000
003FFFFFFFE000
00FFFFFFFFE000
03FFFFFF9FE000
07FFFFFC1FE000
0FFFFF001FE000
1FFFC0001FE000
3FFE00001FE000
3FF800001FE000
7FE000001FE000
7FC000001FE000
7FC000001FE000
FF8000001FE000
FF8000001FE000
FF8000001FE000
FF8000003FE000
FF8000003FE000
FF8000007FE000
FFC00000FFE000
7FC00001FFE000
7FE00003FFE000
7FF0000FFFE000
3FF8003FFFF000
3FFF83FFFFF800
1FFFFFFFDFFFC0
0FFFFFFF8FFFC0
0FFFFFFE0FFFC0
03FFFFFC0FFFC0
01FFFFF007FFC0
007FFFC003FFC0
000FFC0000FF00
ENDCHAR
STARTCHAR 00E5
ENCODING 229
SWIDTH 560 0
DWIDTH 56 0
BBX 50 77 4 -2
BITMAP
00000FE0000000
00003FF8000000
00007FFC000000
0000FFFE000000
0000F83E000000
0001F01F000000
0001F01F000000
0001E00F000000
0001E00F000000
0001E00F000000
0001F01F000000
0001F83F000000
0000FEFE000000
0000FFFE000000
00007FFC000000
00001FF0000000
000007C0000000
00000000000000
00000000000000
00000000000000
00000000000000
00003FFC000000
0003FFFFC00000
001FFFFFF00000
007FFFFFFC0000
00FFFFFFFE0000
01FFFFFFFF0000
03FFFFFFFF8000
07FFFFFFFFC000
0FFF8007FFC000
0FFE0000FFE000
0FFC00007FE000
1FF800003FE000
1FF000003FE000
1FF000001FE000
1FE000001FE000
1FE000001FE000
1FE000001FE000
000000001FE000
000000001FE000
000000001FE000
000000003FE000
000000007FE000
00000001FFE000
0000003FFFE000
00003FFFFFE000
0007FFFFFFE000
003FFFFFFFE000
00FFFFFFFFE000
03FFFFFF9FE000
07FFFFFC1FE000
0FFFFF001FE000
1FFFC0001FE000
3FFE00001FE000
3FF800001FE000
7FE000001FE000
7FC000001FE000
7FC000001FE000
FF8000001FE000
FF8000001FE000
FF8000001FE000
FF8000003FE000
FF8000003FE000
FF8000007FE000
FFC00000FFE000
7FC00001FFE000
7FE00003FFE000
7FF0000FFFE000
3FF8003FFFF000
3FFF83FFFFF800
1FFFFFFFDFFFC0
0FFFFFFF8FFFC0
0FFFFFFE0FFFC0
03FFFFFC0FFFC0
01FFFFF007FFC0
007FFFC003FFC0
000FFC0000FF00
ENDCHAR
STARTCHAR 00E6
ENCODING 230
SWIDTH 890 0
DWIDTH 89 0
BBX 82 56 3 -2
BITMAP
00003FFC000003FE000000
0003FFFF80003FFFE00000
001FFFFFE000FFFFF80000
007FFFFFF803FFFFFE0000
00FFFFFFFC07FFFFFF0000
01FFFFFFFE1FFFFFFFC000
03FFFFFFFF3FFFFFFFE000
07FFFFFFFFBFFFFFFFF000
07FF8007FFFFF801FFF000
0FFE0000FFFFE0007FF800
0FFC00007FFFC0001FFC00
1FF800003FFF00000FFC00
1FF000003FFE000007FE00
1FF000001FFE000007FE00
1FF000001FFC000003FF00
1FE000001FF8000001FF00
1FE000001FF8000001FF00
000000001FF8000001FF00
000000001FF0000000FF80
000000001FF0000000FF80
000000001FF0000000FF80
000000003FE0000000FF80
000000007FE0000000FF80
00000003FFE0000000FF80
000007FFFFFFFFFFFFFF80
0001FFFFFFFFFFFFFFFF80
001FFFFFFFFFFFFFFFFF80
007FFFFFFFFFFFFFFFFF80
01FFFFFFFFFFFFFFFFFFC0
07FFFFFF1FFFFFFFFFFFC0
0FFFFFE01FFFFFFFFFFFC0
1FFFF0001FE00000000000
1FFF00001FE00000000000
3FF800001FE00000000000
3FF000001FE00000000000
7FE000001FE00000000000
7FC000001FF00000000000
7FC000001FF00000000000
7F8000001FF0000000FF00
FF8000001FF0000000FF00
FF8000003FF8000001FF00
FF8000003FFC000001FF00
FF8000007FFC000003FE00
7FC00000FFFE000007FE00
7FC00001FFFF00000FFC00
7FE00003FDFF80001FFC00
7FF0000FF8FFE0003FF800
3FF8003FF0FFF801FFF000
3FFF83FFE07FFFFFFFF000
1FFFFFFFC03FFFFFFFE000
0FFFFFFF801FFFFFFFC000
07FFFFFE000FFFFFFF8000
03FFFFFC0007FFFFFE0000
01FFFFF00001FFFFF80000
007FFFC000007FFFE00000
000FFC00000007FE000000
ENDCHAR
STARTCHAR 00E7
ENCODING 231
SWIDTH 500 0
DWIDTH 50 0
BBX 45 75 3 -21
BITMAP
00001FF80000
0001FFFF0000
0007FFFFC000
001FFFFFF000
003FFFFFF800
007FFFFFFE00
00FFFFFFFF00
01FFFFFFFF00
03FFE00FFF80
07FF8003FFC0
07FE0000FFC0
0FFC00007FE0
1FF800007FE0
1FF000003FE0
1FF000003FE0
3FE000001FF0
3FE000001FF0
3FE000001FF0
7FC000000FF0
7FC000000000
7FC000000000
7F8000000000
7F8000000000
FF8000000000
FF8000000000
FF8000000000
FF8000000000
FF8000000000
FF8000000000
FF8000000000
FF8000000000
FF8000000000
FF8000000000
FF8000000000
FF8000000000
7FC000000000
7FC000000FF8
7FC000000FF8
7FC000000FF0
3FE000001FF0
3FE000001FF0
3FF000001FF0
1FF000003FF0
1FF800003FE0
0FFC00007FE0
0FFE0000FFC0
07FF0001FFC0
07FFC007FF80
03FFFE7FFF00
01FFFFFFFF00
00FFFFFFFE00
007FFFFFFC00
003FFFFFF000
000FFFFFE000
0003FFFF0000
00007FF80000
00001E000000
00001E000000
00003C000000
00003FC00000
00003FFC0000
00007FFE0000
00007FFF0000
000041FF0000
0000007F8000
0000007F8000
0000007F8000
0000007F8000
0030007F0000
007C00FF0000
007F81FE0000
00FFFFFE0000
003FFFFC0000
000FFFF00000
0001FF800000
ENDCHAR
STARTCHAR 00E8
ENCODING 232
SWIDTH 560 0
DWIDTH 56 0
BBX 47 76 4 -2
BITMAP
003FF8000000
001FFC000000
000FFE000000
0007FE000000
0003FF000000
0001FF800000
0000FF800000
00007FC00000
00003FE00000
00001FE00000
00000FF00000
000003F80000
000001F80000
000000FC0000
0000007E0000
000000000000
000000000000
000000000000
000000000000
000000000000
00001FF80000
0001FFFF8000
0007FFFFE000
001FFFFFF800
003FFFFFFC00
007FFFFFFE00
00FFFFFFFF80
01FFFFFFFF80
03FFE007FFC0
07FF8001FFE0
07FE0000FFF0
0FFC00003FF0
0FF800003FF8
1FF000001FF8
1FF000000FF8
3FE000000FFC
3FE0000007FC
3FC0000007FC
7FC0000003FC
7FC0000003FE
7F80000003FE
7F80000003FE
FF80000003FE
FF80000003FE
FFFFFFFFFFFE
FFFFFFFFFFFE
FFFFFFFFFFFE
FFFFFFFFFFFE
FFFFFFFFFFFE
FFFFFFFFFFFE
FFFFFFFFFFFE
FF8000000000
FF8000000000
FF8000000000
FF8000000000
7F8000000000
7F8000000000
7FC000000000
7FC0000003FC
7FC0000007FC
3FE0000007FC
3FE000000FF8
1FF000000FF8
1FF800001FF8
0FFC00003FF0
0FFE00007FF0
07FF8000FFE0
07FFE007FFC0
03FFFFFFFF80
01FFFFFFFF80
00FFFFFFFF00
007FFFFFFC00
001FFFFFF800
0007FFFFE000
0001FFFF8000
00003FF80000
ENDCHAR
STARTCHAR 00E9
ENCODING 233
SWIDTH 560 0
DWIDTH 56 0
BBX 47 76 4 -2
BITMAP
0000003FFC00
0000003FF800
0000007FF000
0000007FE000
000000FFC000
000001FF8000
000001FF0000
000003FE0000
000007F80000
000007F00000
00000FE00000
00001FC00000
00001F800000
00003F000000
00007E000000
000000000000
000000000000
000000000000
000000000000
000000000000
00001FF80000
0001FFFF8000
0007FFFFE000
001FFFFFF800
003FFFFFFC00
007FFFFFFE00
00FFFFFFFF80
01FFFFFFFF80
03FFE007FFC0
07FF8001FFE0
07FE0000FFF0
0FFC00003FF0
0FF800003FF8
1FF000001FF8
1FF000000FF8
3FE000000FFC
3FE0000007FC
3FC0000007FC
7FC0000003FC
7FC0000003FE
7F80000003FE
7F80000003FE
FF80000003FE
FF80000003FE
FFFFFFFFFFFE
FFFFFFFFFFFE
FFFFFFFFFFFE
FFFFFFFFFFFE
FFFFFFFFFFFE
FFFFFFFFFFFE
FFFFFFFFFFFE
FF8000000000
FF8000000000
FF8000000000
FF8000000000
7F8000000000
7F8000000000
7FC000000000
7FC0000003FC
7FC0000007FC
3FE0000007FC
3FE000000FF8
1FF000000FF8
1FF800001FF8
0FFC00003FF0
0FFE00007FF0
07FF8000FFE0
07FFE007FFC0
03FFFFFFFF80
01FFFFFFFF80
00FFFFFFFF00
007FFFFFFC00
001FFFFFF800
0007FFFFE000
0001FFFF8000
00003FF80000
ENDCHAR
STARTCHAR 00EA
ENCODING 234
SWIDTH 560 0
DWIDTH 56 0
BBX 47 76 4 -2
BITMAP
00000FFC0000
00001FFC0000
00003FFE0000
00003FFF0000
00007FFF0000
0000FF7F8000
0000FF3FC000
0001FE3FC000
0003FC1FE000
0003F80FF000
0007F007F000
000FE003F800
000FE001F800
001FC000FC00
001F8000FE00
000000000000
000000000000
000000000000
000000000000
000000000000
00001FF80000
0001FFFF8000
0007FFFFE000
001FFFFFF800
003FFFFFFC00
007FFFFFFE00
00FFFFFFFF80
01FFFFFFFF80
03FFE007FFC0
07FF8001FFE0
07FE0000FFF0
0FFC00003FF0
0FF800003FF8
1FF000001FF8
1FF000000FF8
3FE000000FFC
3FE0000007FC
3FC0000007FC
7FC0000003FC
7FC0000003FE
7F80000003FE
7F80000003FE
FF80000003FE
FF80000003FE
FFFFFFFFFFFE
FFFFFFFFFFFE
FFFFFFFFFFFE
FFFFFFFFFFFE
FFFFFFFFFFFE
FFFFFFFFFFFE
FFFFFFFFFFFE
FF8000000000
FF8000000000
FF8000000000
FF8000000000
7F8000000000
7F8000000000
7FC000000000
7FC0000003FC
7FC0000007FC
3FE0000007FC
3FE000000FF8
1FF000000FF8
1FF800001FF8
0FFC00003FF0
0FFE00007FF0
07FF8000FFE0
07FFE007FFC0
03FFFFFFFF80
01FFFFFFFF80
00FFFFFFFF00
007FFFFFFC00
001FFFFFF800
0007FFFFE000
0001FFFF8000
00003FF80000
ENDCHAR
STARTCHAR 00EB
ENCODING 235
SWIDTH 560 0
DWIDTH 56 0
BBX 47 74 4 -2
BITMAP
001FFC1FFC00
001FFC1FFC00
001FFC1FFC00
001FFC1FFC00
001FFC1FFC00
001FFC1FFC00
001FFC1FFC00
001FFC1FFC00
001FFC1FFC00
001FFC1FFC00
000000000000
000000000000
000000000000
000000000000
000000000000
000000000000
000000000000
000000000000
00001FF80000
0001FFFF8000
0007FFFFE000
001FFFFFF800
003FFFFFFC00
007FFFFFFE00
00FFFFFFFF80
01FFFFFFFF80
03FFE007FFC0
07FF8001FFE0
07FE0000FFF0
0FFC00003FF0
0FF800003FF8
1FF000001FF8
1FF000000FF8
3FE000000FFC
3FE0000007FC
3FC0000007FC
7FC0000003FC
7FC0000003FE
7F80000003FE
7F80000003FE
FF80000003FE
FF80000003FE
FFFFFFFFFFFE
FFFFFFFFFFFE
FFFFFFFFFFFE
FFFFFFFFFFFE
FFFFFFFFFFFE
FFFFFFFFFFFE
FFFFFFFFFFFE
FF8000000000
FF8000000000
FF8000000000
FF8000000000
7F8000000000
7F8000000000
7FC000000000
7FC0000003FC
7FC0000007FC
3FE0000007FC
3FE000000FF8
1FF000000FF8
1FF800001FF8
0FFC00003FF0
0FFE00007FF0
07FF8000FFE0
07FFE007FFC0
03FFFFFFFF80
01FFFFFFFF80
00FFFFFFFF00
007FFFFFFC00
001FFFFFF800
0007FFFFE000
0001FFFF8000
00003FF80000
ENDCHAR
STARTCHAR 00EC
ENCODING 236
SWIDTH 280 0
DWIDTH 28 0
BBX 20 74 0 0
BITMAP
FFE000
7FF000
3FF000
1FF800
0FFC00
07FC00
03FE00
01FF00
00FF00
007F80
003F80
001FC0
000FE0
0007E0
0003F0
000000
000000
000000
000000
000000
000000
000000
007FC0
007FC0
007FC0
007FC0
007FC0
007FC0
007FC0
007FC0
007FC0
007FC0
007FC0
007FC0
007FC0
007FC0
007FC0
007FC0
007FC0
007FC0
007FC0
007FC0
007FC0
007FC0
007FC0
007FC0
007FC0
007FC0
007FC0
007FC0
007FC0
007FC0
007FC0
007FC0
007FC0
007FC0
007FC0
007FC0
007FC0
007FC0
007FC0
007FC0
007FC0
007FC0
007FC0
007FC0
007FC0
007FC0
007FC0
007FC0
007FC0
007FC0
007FC0
007FC0
ENDCHAR
STARTCHAR 00ED
ENCODING 237
SWIDTH 280 0
DWIDTH 28 0
BBX 20 74 7 0
BITMAP
007FF0
00FFE0
00FFC0
01FF80
03FF00
03FE00
07FC00
0FF800
0FF000
1FE000
3FC000
3F8000
7F0000
7E0000
FC0000
000000
000000
000000
000000
000000
000000
000000
3FE000
3FE000
3FE000
3FE000
3FE000
3FE000
3FE000
3FE000
3FE000
3FE000
3FE000
3FE000
3FE000
3FE000
3FE000
3FE000
3FE000
3FE000
3FE000
3FE000
3FE000
3FE000
3FE000
3FE000
3FE000
3FE000
3FE000
3FE000
3FE000
3FE000
3FE000
3FE000
3FE000
3FE000
3FE000
3FE000
3FE000
3FE000
3FE000
3FE000
3FE000
3FE000
3FE000
3FE000
3FE000
3FE000
3FE000
3FE000
3FE000
3FE000
3FE000
3FE000
ENDCHAR
STARTCHAR 00EE
ENCODING 238
SWIDTH 280 0
DWIDTH 28 0
BBX 28 74 0 0
BITMAP
007FE000
00FFE000
01FFF000
01FFF800
03FFF800
07FFFC00
07FBFE00
0FF1FE00
0FE0FF00
1FC07F00
3F803F80
3F801FC0
7F001FC0
FE000FE0
FC0007F0
00000000
00000000
00000000
00000000
00000000
00000000
00000000
007FC000
007FC000
007FC000
007FC000
007FC000
007FC000
007FC000
007FC000
007FC000
007FC000
007FC000
007FC000
007FC000
007FC000
007FC000
007FC000
007FC000
007FC000
007FC000
007FC000
007FC000
007FC000
007FC000
007FC000
007FC000
007FC000
007FC000
007FC000
007FC000
007FC000
007FC000
007FC000
007FC000
007FC000
007FC000
007FC000
007FC000
007FC000
007FC000
007FC000
007FC000
007FC000
007FC000
007FC000
007FC000
007FC000
007FC000
007FC000
007FC000
007FC000
007FC000
007FC000
ENDCHAR
STARTCHAR 00EF
ENCODING 239
SWIDTH 280 0
DWIDTH 28 0
BBX 27 71 0 0
BITMAP
FFE0FFE0
FFE0FFE0
FFE0FFE0
FFE0FFE0
FFE0FFE0
FFE0FFE0
FFE0FFE0
FFE0FFE0
FFE0FFE0
FFE0FFE0
00000000
00000000
00000000
00000000
00000000
00000000
00000000
00000000
00000000
007FC000
007FC000
007FC000
007FC000
007FC000
007FC000
007FC000
007FC000
007FC000
007FC000
007FC000
007FC000
007FC000
007FC000
007FC000
007FC000
007FC000
007FC000
007FC000
007FC000
007FC000
007FC000
007FC000
007FC000
007FC000
007FC000
007FC000
007FC000
007FC000
007FC000
007FC000
007FC000
007FC000
007FC000
007FC000
007FC000
007FC000
007FC000
007FC000
007FC000
007FC000
007FC000
007FC000
007FC000
007FC000
007FC000
007FC000
007FC000
007FC000
007FC000
007FC000
007FC000
ENDCHAR
STARTCHAR 00F0
ENCODING 240
SWIDTH 560 0
DWIDTH 56 0
BBX 47 77 4 -2
BITMAP
006000000000
00F800000000
01FC00060000
03FF001F0000
07FFC0FF8000
01FFE3FFC000
00FFFFFF0000
003FFFFC0000
001FFFF00000
0007FFC00000
000FFFC00000
007FFFE00000
01FFFFF80000
07FFBFFC0000
07FE1FFE0000
03F80FFF0000
01E003FF8000
008001FFC000
000000FFE000
0000007FF000
0000003FF800
00007F9FF800
0003FFFFFC00
000FFFFFFE00
003FFFFFFF00
007FFFFFFF00
01FFFFFFFF80
03FFFFFFFF80
07FFFFFFFFC0
07FFC007FFE0
0FFF0001FFE0
1FFE0000FFF0
1FFC00007FF0
3FF800003FF0
3FF000001FF8
3FE000001FF8
7FE000000FF8
7FC000000FFC
7FC0000007FC
7FC0000007FC
FF80000007FC
FF80000003FE
FF80000003FE
FF80000003FE
FF80000003FE
FF00000003FE
FF00000003FE
FF00000003FE
FF00000003FE
FF00000003FE
FF00000003FE
FF00000003FE
FF80000003FE
FF80000003FE
FF80000003FE
FF80000003FE
FF80000003FC
FF80000007FC
7FC0000007FC
7FC0000007FC
7FC000000FFC
7FE000000FF8
3FE000001FF8
3FF000001FF8
1FF800003FF0
1FFC00007FF0
0FFE0000FFE0
0FFF0003FFC0
07FFE00FFFC0
03FFFFFFFF80
01FFFFFFFF00
00FFFFFFFE00
007FFFFFFC00
003FFFFFF800
000FFFFFE000
0003FFFF0000
00003FF80000
ENDCHAR
STARTCHAR 00F1
ENCODING 241
SWIDTH 560 0
DWIDTH 56 0
BBX 42 72 7 0
BITMAP
001F8001F800
007FE003F000
00FFF803F000
00FFFF07F000
01FFFFFFE000
01FFFFFFE000
03FFFFFFE000
03F03FFFC000
03F00FFF8000
07E003FF0000
000000380000
000000000000
000000000000
000000000000
000000000000
000000000000
000000000000
000000000000
000007FC0000
00003FFF8000
FF00FFFFE000
FF03FFFFF800
FF07FFFFFC00
FF0FFFFFFE00
FF1FFFFFFF00
FF3FF87FFF00
FF7F800FFF80
FF7E0003FF80
FFFC0001FF80
FFF80000FF80
FFF00000FFC0
FFE000007FC0
FFE000007FC0
FFC000007FC0
FFC000007FC0
FFC000007FC0
FF8000007FC0
FF8000007FC0
FF8000007FC0
FF8000007FC0
FF8000007FC0
FF0000007FC0
FF0000007FC0
FF0000007FC0
FF0000007FC0
FF0000007FC0
FF0000007FC0
FF0000007FC0
FF0000007FC0
FF0000007FC0
FF0000007FC0
FF0000007FC0
FF0000007FC0
FF0000007FC0
FF0000007FC0
FF0000007FC0
FF0000007FC0
FF0000007FC0
FF0000007FC0
FF0000007FC0
FF0000007FC0
FF0000007FC0
FF0000007FC0
FF0000007FC0
FF0000007FC0
FF0000007FC0
FF0000007FC0
FF0000007FC0
FF0000007FC0
FF0000007FC0
FF0000007FC0
FF0000007FC0
ENDCHAR
STARTCHAR 00F2
ENCODING 242
SWIDTH 560 0
DWIDTH 56 0
BBX 47 76 4 -2
BITMAP
003FF8000000
001FF8000000
000FFC000000
0007FE000000
0003FE000000
0001FF000000
0000FF800000
00007F800000
00003FC00000
00001FE00000
00000FE00000
000007F00000
000003F80000
000001F80000
000000FC0000
000000000000
000000000000
000000000000
000000000000
000000000000
00003FF80000
0003FFFF0000
000FFFFFE000
003FFFFFF000
007FFFFFFC00
00FFFFFFFE00
01FFFFFFFF00
03FFFFFFFF80
07FFC00FFFC0
0FFF0003FFC0
0FFE0000FFE0
1FFC00007FF0
1FF800003FF0
3FF000001FF8
3FE000001FF8
3FE000000FF8
7FC000000FFC
7FC0000007FC
7FC0000007FC
FF80000007FC
FF80000007FC
FF80000003FE
FF80000003FE
FF80000003FE
FF00000003FE
FF00000003FE
FF00000003FE
FF00000003FE
FF00000003FE
FF00000003FE
FF00000003FE
FF80000003FE
FF80000003FE
FF80000003FE
FF80000003FE
FF80000003FC
FF80000007FC
7FC0000007FC
7FC0000007FC
7FC000000FFC
7FE000000FF8
3FE000001FF8
3FF000001FF0
1FF800003FF0
1FFC00007FE0
0FFE0000FFE0
0FFF0003FFC0
07FFE00FFFC0
03FFFFFFFF80
01FFFFFFFF00
00FFFFFFFE00
007FFFFFFC00
003FFFFFF000
000FFFFFC000
0003FFFF0000
00003FF80000
ENDCHAR
STARTCHAR 00F3
ENCODING 243
SWIDTH 560 0
DWIDTH 56 0
BBX 47 76 4 -2
BITMAP
0000007FF800
0000007FF000
000000FFE000
000000FFC000
000001FF8000
000003FF0000
000003FE0000
000007FC0000
00000FF00000
00000FE00000
00001FC00000
00003F800000
00003F000000
00007E000000
0000FC000000
000000000000
000000000000
000000000000
000000000000
000000000000
00003FF80000
0003FFFF0000
000FFFFFE000
003FFFFFF000
007FFFFFFC00
00FFFFFFFE00
01FFFFFFFF00
03FFFFFFFF80
07FFC00FFFC0
0FFF0003FFC0
0FFE0000FFE0
1FFC00007FF0
1FF800003FF0
3FF000001FF8
3FE000001FF8
3FE000000FF8
7FC000000FFC
7FC0000007FC
7FC0000007FC
FF80000007FC
FF80000007FC
FF80000003FE
FF80000003FE
FF80000003FE
FF00000003FE
FF00000003FE
FF00000003FE
FF00000003FE
FF00000003FE
FF00000003FE
FF00000003FE
FF80000003FE
FF80000003FE
FF80000003FE
FF80000003FE
FF80000003FC
FF80000007FC
7FC0000007FC
7FC0000007FC
7FC000000FFC
7FE000000FF8
3FE000001FF8
3FF000001FF0
1FF800003FF0
1FFC00007FE0
0FFE0000FFE0
0FFF0003FFC0
07FFE00FFFC0
03FFFFFFFF80
01FFFFFFFF00
00FFFFFFFE00
007FFFFFFC00
003FFFFFF000
000FFFFFC000
0003FFFF0000
00003FF80000
ENDCHAR
STARTCHAR 00F4
ENCODING 244
SWIDTH 560 0
DWIDTH 56 0
BBX 47 76 4 -2
BITMAP
00003FF00000
00003FF80000
00007FFC0000
0000FFFC0000
0000FFFE0000
0001FFFF0000
0003FCFF0000
0003FC7F8000
0007F83FC000
000FF01FC000
000FE00FE000
001FC00FF000
001F8007F000
003F8003F800
007F0001F800
000000000000
000000000000
000000000000
000000000000
000000000000
00003FF80000
0003FFFF0000
000FFFFFE000
003FFFFFF000
007FFFFFFC00
00FFFFFFFE00
01FFFFFFFF00
03FFFFFFFF80
07FFC00FFFC0
0FFF0003FFC0
0FFE0000FFE0
1FFC00007FF0
1FF800003FF0
3FF000001FF8
3FE000001FF8
3FE000000FF8
7FC000000FFC
7FC0000007FC
7FC0000007FC
FF80000007FC
FF80000007FC
FF80000003FE
FF80000003FE
FF80000003FE
FF00000003FE
FF00000003FE
FF00000003FE
FF00000003FE
FF00000003FE
FF00000003FE
FF00000003FE
FF80000003FE
FF80000003FE
FF80000003FE
FF80000003FE
FF80000003FC
FF80000007FC
7FC0000007FC
7FC0000007FC
7FC000000FFC
7FE000000FF8
3FE000001FF8
3FF000001FF0
1FF800003FF0
1FFC00007FE0
0FFE0000FFE0
0FFF0003FFC0
07FFE00FFFC0
03FFFFFFFF80
01FFFFFFFF00
00FFFFFFFE00
007FFFFFFC00
003FFFFFF000
000FFFFFC000
0003FFFF0000
00003FF80000
ENDCHAR
STARTCHAR 00F5
ENCODING 245
SWIDTH 560 0
DWIDTH 56 0
BBX 47 74 4 -2
BITMAP
0003F0007E00
000FFC007E00
001FFF007E00
003FFFE0FE00
003FFFFFFC00
007FFFFFFC00
007FFFFFF800
007E07FFF800
00FC01FFF000
00FC007FC000
0000000F0000
000000000000
000000000000
000000000000
000000000000
000000000000
000000000000
000000000000
00003FF80000
0003FFFF0000
000FFFFFE000
003FFFFFF000
007FFFFFFC00
00FFFFFFFE00
01FFFFFFFF00
03FFFFFFFF80
07FFC00FFFC0
0FFF0003FFC0
0FFE0000FFE0
1FFC00007FF0
1FF800003FF0
3FF000001FF8
3FE000001FF8
3FE000000FF8
7FC000000FFC
7FC0000007FC
7FC0000007FC
FF80000007FC
FF80000007FC
FF80000003FE
FF80000003FE
FF80000003FE
FF00000003FE
FF00000003FE
FF00000003FE
FF00000003FE
FF00000003FE
FF00000003FE
FF00000003FE
FF80000003FE
FF80000003FE
FF80000003FE
FF80000003FE
FF80000003FC
FF80000007FC
7FC0000007FC
7FC0000007FC
7FC000000FFC
7FE000000FF8
3FE000001FF8
3FF000001FF0
1FF800003FF0
1FFC00007FE0
0FFE0000FFE0
0FFF0003FFC0
07FFE00FFFC0
03FFFFFFFF80
01FFFFFFFF00
00FFFFFFFE00
007FFFFFFC00
003FFFFFF000
000FFFFFC000
0003FFFF0000
00003FF80000
ENDCHAR
STARTCHAR 00F6
ENCODING 246
SWIDTH 560 0
DWIDTH 56 0
BBX 47 74 4 -2
BITMAP
003FF03FF800
003FF03FF800
003FF03FF800
003FF03FF800
003FF03FF800
003FF03FF800
003FF03FF800
003FF03FF800
003FF03FF800
003FF03FF800
000000000000
000000000000
000000000000
000000000000
000000000000
000000000000
000000000000
000000000000
00003FF80000
0003FFFF0000
000FFFFFE000
003FFFFFF000
007FFFFFFC00
00FFFFFFFE00
01FFFFFFFF00
03FFFFFFFF80
07FFC00FFFC0
0FFF0003FFC0
0FFE0000FFE0
1FFC00007FF0
1FF800003FF0
3FF000001FF8
3FE000001FF8
3FE000000FF8
7FC000000FFC
7FC0000007FC
7FC0000007FC
FF80000007FC
FF80000007FC
FF80000003FE
FF80000003FE
FF80000003FE
FF00000003FE
FF00000003FE
FF00000003FE
FF00000003FE
FF00000003FE
FF00000003FE
FF00000003FE
FF80000003FE
FF80000003FE
FF80000003FE
FF80000003FE
FF80000003FC
FF80000007FC
7FC0000007FC
7FC0000007FC
7FC000000FFC
7FE000000FF8
3FE000001FF8
3FF000001FF0
1FF800003FF0
1FFC00007FE0
0FFE0000FFE0
0FFF0003FFC0
07FFE00FFFC0
03FFFFFFFF80
01FFFFFFFF00
00FFFFFFFE00
007FFFFFFC00
003FFFFFF000
000FFFFFC000
0003FFFF0000
00003FF80000
ENDCHAR
STARTCHAR 00F7
ENCODING 247
SWIDTH 580 0
DWIDTH 58 0
BBX 48 47 5 0
BITMAP
00001FF80000
00001FF80000
00001FF80000
00001FF80000
00001FF80000
00001FF80000
00001FF80000
00001FF80000
00001FF80000
00001FF80000
000000000000
000000000000
000000000000
000000000000
000000000000
000000000000
000000000000
000000000000
000000000000
000000000000
FFFFFFFFFFFF
FFFFFFFFFFFF
FFFFFFFFFFFF
FFFFFFFFFFFF
FFFFFFFFFFFF
FFFFFFFFFFFF
FFFFFFFFFFFF
000000000000
000000000000
000000000000
000000000000
000000000000
000000000000
000000000000
000000000000
000000000000
000000000000
00001FF80000
00001FF80000
00001FF80000
00001FF80000
00001FF80000
00001FF80000
00001FF80000
00001FF80000
00001FF80000
00001FF80000
ENDCHAR
STARTCHAR 00F8
ENCODING 248
SWIDTH 610 0
DWIDTH 61 0
BBX 51 56 2 -3
BITMAP
00000FFE000100
0000FFFFC00380
0003FFFFF807E0
000FFFFFFC07C0
001FFFFFFF0F80
003FFFFFFF9F80
007FFFFFFFFF00
00FFFFFFFFFE00
01FFF003FFFC00
03FFC000FFF800
03FF80003FF800
07FF00001FFC00
07FE00000FFC00
0FFC00000FFC00
0FF800001FFE00
1FF800003FFE00
1FF000007FFF00
1FF00000FDFF00
1FF00001F9FF00
3FE00003F1FF00
3FE00007E0FF00
3FE00007C0FF80
3FE0000F80FF80
3FE0001F80FF80
3FC0003F00FF80
3FC0007E00FF80
3FC000FC00FF80
3FC001F800FF80
3FC003F000FF80
3FC007E000FF80
3FC007C000FF80
3FC00F8000FF80
3FE01F8000FF80
3FE03F0000FF80
3FE07E0000FF80
3FE0FC0000FF00
3FE1F80001FF00
1FF3F00001FF00
1FF7E00001FF00
1FF7C00003FE00
1FFF800003FE00
0FFF000007FE00
0FFF000007FC00
07FE00000FFC00
07FF00001FF800
03FF80003FF800
03FFC000FFF000
03FFF803FFF000
07FFFFFFFFE000
0FFFFFFFFFC000
1F3FFFFFFF8000
3F1FFFFFFF0000
7E0FFFFFFC0000
FC03FFFFF80000
F800FFFFC00000
30000FFE000000
ENDCHAR
STARTCHAR 00F9
ENCODING 249
SWIDTH 560 0
DWIDTH 56 0
BBX 41 76 7 -2
BITMAP
03FFC0000000
01FFC0000000
00FFE0000000
003FF0000000
001FF0000000
000FF8000000
0007FC000000
0003FC000000
0001FE000000
0000FE000000
00007F000000
00003F800000
00001F800000
00000FC00000
000007E00000
000000000000
000000000000
000000000000
000000000000
000000000000
000000000000
000000000000
FF0000007F80
FF0000007F80
FF0000007F80
FF0000007F80
FF0000007F80
FF0000007F80
FF0000007F80
FF0000007F80
FF0000007F80
FF0000007F80
FF0000007F80
FF0000007F80
FF0000007F80
FF0000007F80
FF0000007F80
FF0000007F80
FF0000007F80
FF0000007F80
FF0000007F80
FF0000007F80
FF0000007F80
FF0000007F80
FF0000007F80
FF0000007F80
FF0000007F80
FF0000007F80
FF0000007F80
FF0000007F80
FF0000007F80
FF0000007F80
FF0000007F80
FF0000007F80
FF0000007F80
FF0000007F80
FF000000FF80
FF000000FF80
FF000000FF80
FF000000FF80
FF000001FF80
FF000001FF80
FF800003FF80
FF800007FF80
FFC00007FF80
FFC0000FFF80
FFE0003FFF80
7FF800FFBF80
7FFF07FF3F80
3FFFFFFE3F80
3FFFFFFE3F80
1FFFFFFC3F80
0FFFFFF03F80
03FFFFE03F80
00FFFF800000
001FFC000000
ENDCHAR
STARTCHAR 00FA
ENCODING 250
SWIDTH 560 0
DWIDTH 56 0
BBX 41 76 7 -2
BITMAP
000003FF8000
000003FF0000
000007FE0000
00000FFC0000
00000FF80000
00001FF00000
00003FE00000
00003FC00000
00007F800000
0000FF000000
0000FE000000
0001FC000000
0003F8000000
0003F0000000
0007E0000000
000000000000
000000000000
000000000000
000000000000
000000000000
000000000000
000000000000
FF0000007F80
FF0000007F80
FF0000007F80
FF0000007F80
FF0000007F80
FF0000007F80
FF0000007F80
FF0000007F80
FF0000007F80
FF0000007F80
FF0000007F80
FF0000007F80
FF0000007F80
FF0000007F80
FF0000007F80
FF0000007F80
FF0000007F80
FF0000007F80
FF0000007F80
FF0000007F80
FF0000007F80
FF0000007F80
FF0000007F80
FF0000007F80
FF0000007F80
FF0000007F80
FF0000007F80
FF0000007F80
FF0000007F80
FF0000007F80
FF0000007F80
FF0000007F80
FF0000007F80
FF0000007F80
FF000000FF80
FF000000FF80
FF000000FF80
FF000000FF80
FF000001FF80
FF000001FF80
FF800003FF80
FF800007FF80
FFC00007FF80
FFC0000FFF80
FFE0003FFF80
7FF800FFBF80
7FFF07FF3F80
3FFFFFFE3F80
3FFFFFFE3F80
1FFFFFFC3F80
0FFFFFF03F80
03FFFFE03F80
00FFFF800000
001FFC000000
ENDCHAR
STARTCHAR 00FB
ENCODING 251
SWIDTH 560 0
DWIDTH 56 0
BBX 41 76 7 -2
BITMAP
0001FFC00000
0001FFC00000
0003FFE00000
0007FFE00000
0007FFF00000
000FFFF80000
000FE7F80000
001FE3FC0000
003FC1FE0000
003F80FE0000
007F007F0000
00FE003F8000
00FE003F8000
01FC001FC000
03F8000FC000
000000000000
000000000000
000000000000
000000000000
000000000000
000000000000
000000000000
FF0000007F80
FF0000007F80
FF0000007F80
FF0000007F80
FF0000007F80
FF0000007F80
FF0000007F80
FF0000007F80
FF0000007F80
FF0000007F80
FF0000007F80
FF0000007F80
FF0000007F80
FF0000007F80
FF0000007F80
FF0000007F80
FF0000007F80
FF0000007F80
FF0000007F80
FF0000007F80
FF0000007F80
FF0000007F80
FF0000007F80
FF0000007F80
FF0000007F80
FF0000007F80
FF0000007F80
FF0000007F80
FF0000007F80
FF0000007F80
FF0000007F80
FF0000007F80
FF0000007F80
FF0000007F80
FF000000FF80
FF000000FF80
FF000000FF80
FF000000FF80
FF000001FF80
FF000001FF80
FF800003FF80
FF800007FF80
FFC00007FF80
FFC0000FFF80
FFE0003FFF80
7FF800FFBF80
7FFF07FF3F80
3FFFFFFE3F80
3FFFFFFE3F80
1FFFFFFC3F80
0FFFFFF03F80
03FFFFE03F80
00FFFF800000
001FFC000000
ENDCHAR
STARTCHAR 00FC
ENCODING 252
SWIDTH 560 0
DWIDTH 56 0
BBX 41 74 7 -2
BITMAP
01FFC1FFC000
01FFC1FFC000
01FFC1FFC000
01FFC1FFC000
01FFC1FFC000
01FFC1FFC000
01FFC1FFC000
01FFC1FFC000
01FFC1FFC000
01FFC1FFC000
000000000000
000000000000
000000000000
000000000000
000000000000
000000000000
000000000000
000000000000
000000000000
000000000000
FF0000007F80
FF0000007F80
FF0000007F80
FF0000007F80
FF0000007F80
FF0000007F80
FF0000007F80
FF0000007F80
FF0000007F80
FF0000007F80
FF0000007F80
FF0000007F80
FF0000007F80
FF0000007F80
FF0000007F80
FF0000007F80
FF0000007F80
FF0000007F80
FF0000007F80
FF0000007F80
FF0000007F80
FF0000007F80
FF0000007F80
FF0000007F80
FF0000007F80
FF0000007F80
FF0000007F80
FF0000007F80
FF0000007F80
FF0000007F80
FF0000007F80
FF0000007F80
FF0000007F80
FF0000007F80
FF000000FF80
FF000000FF80
FF000000FF80
FF000000FF80
FF000001FF80
FF000001FF80
FF800003FF80
FF800007FF80
FFC00007FF80
FFC0000FFF80
FFE0003FFF80
7FF800FFBF80
7FFF07FF3F80
3FFFFFFE3F80
3FFFFFFE3F80
1FFFFFFC3F80
0FFFFFF03F80
03FFFFE03F80
00FFFF800000
001FFC000000
ENDCHAR
STARTCHAR 00FD
ENCODING 253
SWIDTH 500 0
DWIDTH 50 0
BBX 46 96 2 -22
BITMAP
0000007FF000
000000FFE000
000000FFC000
000001FF8000
000003FF0000
000003FE0000
000007FC0000
00000FF80000
00000FF00000
00001FE00000
00003FC00000
00003F800000
00007F000000
00007E000000
0000FC000000
000000000000
000000000000
000000000000
000000000000
000000000000
000000000000
000000000000
FF80000007FC
FF8000000FF8
7FC000000FF8
7FC000000FF8
3FC000001FF0
3FE000001FF0
3FE000003FE0
1FE000003FE0
1FF000003FE0
1FF000007FC0
0FF000007FC0
0FF800007FC0
0FF80000FF80
07F80000FF80
07FC0000FF00
07FC0001FF00
03FC0001FF00
03FE0001FE00
03FE0003FE00
01FE0003FE00
01FF0007FC00
01FF0007FC00
00FF0007FC00
00FF800FF800
00FF800FF800
007F800FF000
007FC01FF000
007FC01FF000
003FC01FE000
003FE03FE000
003FE03FE000
001FE03FC000
001FF07FC000
001FF07F8000
000FF07F8000
000FF8FF8000
000FF8FF0000
0007F9FF0000
0007FDFF0000
0007FDFE0000
0003FFFE0000
0003FFFE0000
0003FFFC0000
0001FFFC0000
0001FFF80000
0001FFF80000
0000FFF80000
0000FFF00000
0000FFF00000
00007FF00000
00007FE00000
00007FE00000
00003FC00000
00007FC00000
00007FC00000
00007F800000
0000FF800000
0000FF800000
0001FF000000
0001FF000000
0001FF000000
0003FE000000
0003FE000000
0007FC000000
000FFC000000
183FFC000000
1FFFF8000000
1FFFF8000000
1FFFF0000000
1FFFE0000000
1FFFC0000000
1FFF80000000
1FFE00000000
07F000000000
ENDCHAR
STARTCHAR 00FE
ENCODING 254
SWIDTH 560 0
DWIDTH 56 0
BBX 47 94 5 -22
BITMAP
FF8000000000
FF8000000000
FF8000000000
FF8000000000
FF8000000000
FF8000000000
FF8000000000
FF8000000000
FF8000000000
FF8000000000
FF8000000000
FF8000000000
FF8000000000
FF8000000000
FF8000000000
FF8000000000
FF8000000000
FF8000000000
FF800FFC0000
FF807FFF8000
FF81FFFFE000
FF87FFFFF800
FF8FFFFFFC00
FF9FFFFFFE00
FFBFFFFFFF00
FFFFFFFFFF80
FFFFE00FFFC0
FFFF8003FFC0
FFFE0001FFE0
FFFC00007FF0
FFF800003FF0
FFF800003FF8
FFF000001FF8
FFE000000FF8
FFE000000FFC
FFC0000007FC
FFC0000007FC
FFC0000007FC
FFC0000003FE
FF80000003FE
FF80000003FE
FF80000003FE
FF80000003FE
FF80000003FE
FF80000003FE
FF80000003FE
FF80000003FE
FF80000003FE
FF80000003FE
FF80000003FE
FF80000003FE
FF80000003FE
FF80000003FE
FFC0000003FE
FFC0000007FC
FFC0000007FC
FFE0000007FC
FFE000000FFC
FFE000000FF8
FFF000001FF8
FFF800003FF8
FFF800003FF0
FFFC00007FF0
FFFE0000FFE0
FFFF8003FFE0
FFFFE00FFFC0
FFFFFFFFFF80
FFBFFFFFFF00
FF9FFFFFFE00
FF8FFFFFFC00
FF87FFFFF800
FF81FFFFE000
FF807FFF8000
FF800FFC0000
FF8000000000
FF8000000000
FF8000000000
FF8000000000
FF8000000000
FF8000000000
FF8000000000
FF8000000000
FF8000000000
FF8000000000
FF8000000000
FF8000000000
FF8000000000
FF8000000000
FF8000000000
FF8000000000
FF8000000000
FF8000000000
FF8000000000
FF8000000000
ENDCHAR
STARTCHAR 00FF
ENCODING 255
SWIDTH 500 0
DWIDTH 50 0
BBX 46 94 2 -22
BITMAP
007FF07FF000
007FF07FF000
007FF07FF000
007FF07FF000
007FF07FF000
007FF07FF000
007FF07FF000
007FF07FF000
007FF07FF000
007FF07FF000
000000000000
000000000000
000000000000
000000000000
000000000000
000000000000
000000000000
000000000000
000000000000
000000000000
FF80000007FC
FF8000000FF8
7FC000000FF8
7FC000000FF8
3FC000001FF0
3FE000001FF0
3FE000003FE0
1FE000003FE0
1FF000003FE0
1FF000007FC0
0FF000007FC0
0FF800007FC0
0FF80000FF80
07F80000FF80
07FC0000FF00
07FC0001FF00
03FC0001FF00
03FE0001FE00
03FE0003FE00
01FE0003FE00
01FF0007FC00
01FF0007FC00
00FF0007FC00
00FF800FF800
00FF800FF800
007F800FF000
007FC01FF000
007FC01FF000
003FC01FE000
003FE03FE000
003FE03FE000
001FE03FC000
001FF07FC000
001FF07F8000
000FF07F8000
000FF8FF8000
000FF8FF0000
0007F9FF0000
0007FDFF0000
0007FDFE0000
0003FFFE0000
0003FFFE0000
0003FFFC0000
0001FFFC0000
0001FFF80000
0001FFF80000
0000FFF80000
0000FFF00000
0000FFF00000
00007FF00000
00007FE00000
00007FE00000
00003FC00000
00007FC00000
00007FC00000
00007F800000
0000FF800000
0000FF800000
0001FF000000
0001FF000000
0001FF000000
0003FE000000
0003FE000000
0007FC000000
000FFC000000
183FFC000000
1FFFF8000000
1FFFF8000000
1FFFF0000000
1FFFE0000000
1FFFC0000000
1FFF80000000
1FFE00000000
07F000000000
ENDCHAR
STARTCHAR 0100
ENCODING 256
SWIDTH 670 0
DWIDTH 67 0
BBX 63 90 2 0
BITMAP
00003FFFFFF80000
00003FFFFFF80000
00003FFFFFF80000
00003FFFFFF80000
00003FFFFFF80000
00003FFFFFF80000
00003FFFFFF80000
0000000000000000
0000000000000000
0000000000000000
0000000000000000
0000000000000000
0000000000000000
0000000000000000
0000000000000000
0000000000000000
0000000000000000
0000003FFC000000
0000007FFC000000
0000007FFE000000
000000FFFE000000
000000FFFE000000
000000FFFF000000
000001FFFF000000
000001FFFF000000
000001FFFF800000
000003FFFF800000
000003FEFF800000
000003FEFFC00000
000007FEFFC00000
000007FC7FC00000
000007FC7FE00000
00000FFC7FE00000
00000FF83FE00000
00001FF83FF00000
00001FF83FF00000
00001FF01FF80000
00003FF01FF80000
00003FE01FF80000
00003FE00FFC0000
00007FE00FFC0000
00007FC00FFC0000
00007FC007FE0000
0000FFC007FE0000
0000FF8007FE0000
0000FF8003FF0000
0001FF8003FF0000
0001FF0003FF0000
0003FF0001FF8000
0003FE0001FF8000
0003FE0000FF8000
0007FE0000FFC000
0007FC0000FFC000
0007FC00007FE000
000FFC00007FE000
000FF800007FE000
000FF800003FF000
001FF800003FF000
001FF000003FF000
001FF000001FF800
003FFFFFFFFFF800
003FFFFFFFFFF800
007FFFFFFFFFFC00
007FFFFFFFFFFC00
007FFFFFFFFFFC00
00FFFFFFFFFFFE00
00FFFFFFFFFFFE00
00FFFFFFFFFFFE00
01FF80000003FF00
01FF80000003FF00
01FF00000003FF00
03FF00000001FF80
03FF00000001FF80
03FE00000001FFC0
07FE00000000FFC0
07FE00000000FFC0
07FC00000000FFE0
0FFC000000007FE0
0FFC000000007FE0
1FF8000000007FF0
1FF8000000003FF0
1FF8000000003FF0
3FF0000000003FF8
3FF0000000001FF8
3FF0000000001FF8
7FE0000000001FFC
7FE0000000000FFC
7FC0000000000FFC
FFC0000000000FFE
FFC00000000007FE
ENDCHAR
STARTCHAR 0101
ENCODING 257
SWIDTH 560 0
DWIDTH 56 0
BBX 50 72 4 -2
BITMAP
003FFFFFF80000
003FFFFFF80000
003FFFFFF80000
003FFFFFF80000
003FFFFFF80000
003FFFFFF80000
003FFFFFF80000
00000000000000
00000000000000
00000000000000
00000000000000
00000000000000
00000000000000
00000000000000
00000000000000
00000000000000
00003FFC000000
0003FFFFC00000
001FFFFFF00000
007FFFFFFC0000
00FFFFFFFE0000
01FFFFFFFF0000
03FFFFFFFF8000
07FFFFFFFFC000
0FFF8007FFC000
0FFE0000FFE000
0FFC00007FE000
1FF800003FE000
1FF000003FE000
1FF000001FE000
1FE000001FE000
1FE000001FE000
1FE000001FE000
000000001FE000
000000001FE000
000000001FE000
000000003FE000
000000007FE000
00000001FFE000
0000003FFFE000
00003FFFFFE000
0007FFFFFFE000
003FFFFFFFE000
00FFFFFFFFE000
03FFFFFF9FE000
07FFFFFC1FE000
0FFFFF001FE000
1FFFC0001FE000
3FFE00001FE000
3FF800001FE000
7FE000001FE000
7FC000001FE000
7FC000001FE000
FF8000001FE000
FF8000001FE000
FF8000001FE000
FF8000003FE000
FF8000003FE000
FF8000007FE000
FFC00000FFE000
7FC00001FFE000
7FE00003FFE000
7FF0000FFFE000
3FF8003FFFF000
3FFF83FFFFF800
1FFFFFFFDFFFC0
0FFFFFFF8FFFC0
0FFFFFFE0FFFC0
03FFFFFC0FFFC0
01FFFFF007FFC0
007FFFC003FFC0
000FFC0000FF00
ENDCHAR
STARTCHAR 0102
ENCODING 258
SWIDTH 670 0
DWIDTH 67 0
BBX 63 94 2 0
BITMAP
0000FC00007E0000
00007E00007E0000
00007E0000FC0000
00007E0000FC0000
00007F0001FC0000
00007F8003FC0000
00003FE00FF80000
00003FFFFFF80000
00001FFFFFF00000
00000FFFFFE00000
000007FFFFC00000
000003FFFF800000
000000FFFE000000
0000001FF0000000
0000000000000000
0000000000000000
0000000000000000
0000000000000000
0000000000000000
0000000000000000
0000000000000000
0000003FFC000000
0000007FFC000000
0000007FFE000000
000000FFFE000000
000000FFFE000000
000000FFFF000000
000001FFFF000000
000001FFFF000000
000001FFFF800000
000003FFFF800000
000003FEFF800000
000003FEFFC00000
000007FEFFC00000
000007FC7FC00000
000007FC7FE00000
00000FFC7FE00000
00000FF83FE00000
00001FF83FF00000
00001FF83FF00000
00001FF01FF80000
00003FF01FF80000
00003FE01FF80000
00003FE00FFC0000
00007FE00FFC0000
00007FC00FFC0000
00007FC007FE0000
0000FFC007FE0000
0000FF8007FE0000
0000FF8003FF0000
0001FF8003FF0000
0001FF0003FF0000
0003FF0001FF8000
0003FE0001FF8000
0003FE0000FF8000
0007FE0000FFC000
0007FC0000FFC000
0007FC00007FE000
000FFC00007FE000
000FF800007FE000
000FF800003FF000
001FF800003FF000
001FF000003FF000
001FF000001FF800
003FFFFFFFFFF800
003FFFFFFFFFF800
007FFFFFFFFFFC00
007FFFFFFFFFFC00
007FFFFFFFFFFC00
00FFFFFFFFFFFE00
00FFFFFFFFFFFE00
00FFFFFFFFFFFE00
01FF80000003FF00
01FF80000003FF00
01FF00000003FF00
03FF00000001FF80
03FF00000001FF80
03FE00000001FFC0
07FE00000000FFC0
07FE00000000FFC0
07FC00000000FFE0
0FFC000000007FE0
0FFC000000007FE0
1FF8000000007FF0
1FF8000000003FF0
1FF8000000003FF0
3FF0000000003FF8
3FF0000000001FF8
3FF0000000001FF8
7FE0000000001FFC
7FE0000000000FFC
7FC0000000000FFC
FFC0000000000FFE
FFC00000000007FE
ENDCHAR
STARTCHAR 0103
ENCODING 259
SWIDTH 560 0
DWIDTH 56 0
BBX 50 75 4 -2
BITMAP
007C00007E0000
007E0000FC0000
007E0000FC0000
007F0001FC0000
007F8003FC0000
007FE00FF80000
003FFFFFF80000
001FFFFFF00000
000FFFFFE00000
0007FFFFC00000
0003FFFF800000
0000FFFE000000
00001FF0000000
00000000000000
00000000000000
00000000000000
00000000000000
00000000000000
00000000000000
00003FFC000000
0003FFFFC00000
001FFFFFF00000
007FFFFFFC0000
00FFFFFFFE0000
01FFFFFFFF0000
03FFFFFFFF8000
07FFFFFFFFC000
0FFF8007FFC000
0FFE0000FFE000
0FFC00007FE000
1FF800003FE000
1FF000003FE000
1FF000001FE000
1FE000001FE000
1FE000001FE000
1FE000001FE000
000000001FE000
000000001FE000
000000001FE000
000000003FE000
000000007FE000
00000001FFE000
0000003FFFE000
00003FFFFFE000
0007FFFFFFE000
003FFFFFFFE000
00FFFFFFFFE000
03FFFFFF9FE000
07FFFFFC1FE000
0FFFFF001FE000
1FFFC0001FE000
3FFE00001FE000
3FF800001FE000
7FE000001FE000
7FC000001FE000
7FC000001FE000
FF8000001FE000
FF8000001FE000
FF8000001FE000
FF8000003FE000
FF8000003FE000
FF8000007FE000
FFC00000FFE000
7FC00001FFE000
7FE00003FFE000
7FF0000FFFE000
3FF8003FFFF000
3FFF83FFFFF800
1FFFFFFFDFFFC0
0FFFFFFF8FFFC0
0FFFFFFE0FFFC0
03FFFFFC0FFFC0
01FFFFF007FFC0
007FFFC003FFC0
000FFC0000FF00
ENDCHAR
ENDFONT
